%TF.GenerationSoftware,KiCad,Pcbnew,9.0.0*%
%TF.CreationDate,2025-05-08T14:03:21-04:00*%
%TF.ProjectId,main-pcb,6d61696e-2d70-4636-922e-6b696361645f,rev?*%
%TF.SameCoordinates,Original*%
%TF.FileFunction,Copper,L2,Bot*%
%TF.FilePolarity,Positive*%
%FSLAX46Y46*%
G04 Gerber Fmt 4.6, Leading zero omitted, Abs format (unit mm)*
G04 Created by KiCad (PCBNEW 9.0.0) date 2025-05-08 14:03:21*
%MOMM*%
%LPD*%
G01*
G04 APERTURE LIST*
G04 Aperture macros list*
%AMRoundRect*
0 Rectangle with rounded corners*
0 $1 Rounding radius*
0 $2 $3 $4 $5 $6 $7 $8 $9 X,Y pos of 4 corners*
0 Add a 4 corners polygon primitive as box body*
4,1,4,$2,$3,$4,$5,$6,$7,$8,$9,$2,$3,0*
0 Add four circle primitives for the rounded corners*
1,1,$1+$1,$2,$3*
1,1,$1+$1,$4,$5*
1,1,$1+$1,$6,$7*
1,1,$1+$1,$8,$9*
0 Add four rect primitives between the rounded corners*
20,1,$1+$1,$2,$3,$4,$5,0*
20,1,$1+$1,$4,$5,$6,$7,0*
20,1,$1+$1,$6,$7,$8,$9,0*
20,1,$1+$1,$8,$9,$2,$3,0*%
G04 Aperture macros list end*
%TA.AperFunction,ComponentPad*%
%ADD10RoundRect,0.250000X0.600000X0.750000X-0.600000X0.750000X-0.600000X-0.750000X0.600000X-0.750000X0*%
%TD*%
%TA.AperFunction,ComponentPad*%
%ADD11O,1.700000X2.000000*%
%TD*%
%TA.AperFunction,ComponentPad*%
%ADD12RoundRect,0.250000X0.725000X-0.600000X0.725000X0.600000X-0.725000X0.600000X-0.725000X-0.600000X0*%
%TD*%
%TA.AperFunction,ComponentPad*%
%ADD13O,1.950000X1.700000*%
%TD*%
%TA.AperFunction,ComponentPad*%
%ADD14C,1.600000*%
%TD*%
%TA.AperFunction,ComponentPad*%
%ADD15O,1.600000X1.600000*%
%TD*%
%TA.AperFunction,ComponentPad*%
%ADD16C,2.000000*%
%TD*%
%TA.AperFunction,ComponentPad*%
%ADD17RoundRect,0.250000X-0.725000X0.600000X-0.725000X-0.600000X0.725000X-0.600000X0.725000X0.600000X0*%
%TD*%
%TA.AperFunction,ViaPad*%
%ADD18C,0.600000*%
%TD*%
%TA.AperFunction,Conductor*%
%ADD19C,0.200000*%
%TD*%
G04 APERTURE END LIST*
D10*
%TO.P,VIN1,1,Pin_1*%
%TO.N,GND*%
X136500000Y-125000000D03*
D11*
%TO.P,VIN1,2,Pin_2*%
%TO.N,+5V*%
X134000000Y-125000000D03*
%TD*%
D12*
%TO.P,SteerFL1,1,Pin_1*%
%TO.N,GND*%
X122000000Y-78000000D03*
D13*
%TO.P,SteerFL1,2,Pin_2*%
%TO.N,+5V*%
X122000000Y-75500000D03*
%TO.P,SteerFL1,3,Pin_3*%
%TO.N,Signal_Steer_Servo_Front_Left*%
X122000000Y-73000000D03*
%TD*%
D10*
%TO.P,Light4,1,Pin_1*%
%TO.N,Net-(Light1-Pin_1)*%
X148000000Y-115000000D03*
D11*
%TO.P,Light4,2,Pin_2*%
%TO.N,GND*%
X145500000Y-115000000D03*
%TD*%
D14*
%TO.P,18K,1*%
%TO.N,Battery_Voltage_Measure*%
X132420000Y-103000000D03*
D15*
%TO.P,18K,2*%
%TO.N,GND*%
X142580000Y-103000000D03*
%TD*%
D16*
%TO.P,U1,1,GP1*%
%TO.N,Signal_Steer_Servo_Front_Left*%
X138000000Y-66500000D03*
%TO.P,U1,2,GP2*%
%TO.N,Signal_Steer_Servo_Front_Right*%
X138000000Y-69000000D03*
%TO.P,U1,3,GP3*%
%TO.N,Signal_Steer_Servo_Back_Left*%
X138000000Y-71500000D03*
%TO.P,U1,4,GP4*%
%TO.N,Signal_Steer_Servo_Back_Right*%
X138000000Y-74000000D03*
%TO.P,U1,5,GP5*%
%TO.N,Crane_Servo_Pitch*%
X138000000Y-76500000D03*
%TO.P,U1,6,GP6*%
%TO.N,Crane_Servo_Yaw*%
X138000000Y-79000000D03*
%TO.P,U1,7,GP7*%
%TO.N,Crane_Servo_Extension*%
X138000000Y-81500000D03*
%TO.P,U1,8,GP8*%
%TO.N,Crane_Servo_Elbow*%
X153000000Y-81500000D03*
%TO.P,U1,9,GP9*%
%TO.N,Battery_Voltage_Measure*%
X153000000Y-79000000D03*
%TO.P,U1,10,GP10*%
%TO.N,unconnected-(U1-GP10-Pad10)*%
X153000000Y-76500000D03*
%TO.P,U1,11,GP11*%
%TO.N,L298N_ENA*%
X153000000Y-74000000D03*
%TO.P,U1,12,GP12*%
%TO.N,L298N_IN2*%
X153000000Y-71500000D03*
%TO.P,U1,13,GP13*%
%TO.N,L298N_IN1*%
X153000000Y-69000000D03*
%TO.P,U1,14,3V3*%
%TO.N,unconnected-(U1-3V3-Pad14)*%
X153000000Y-66500000D03*
%TO.P,U1,15,GND*%
%TO.N,GND*%
X153000000Y-64000000D03*
%TO.P,U1,16,5V*%
%TO.N,+5V*%
X153000000Y-61500000D03*
%TO.P,U1,17,TX*%
%TO.N,unconnected-(U1-TX-Pad17)*%
X138000000Y-61500000D03*
%TO.P,U1,18,RX*%
%TO.N,unconnected-(U1-RX-Pad18)*%
X138000000Y-64000000D03*
%TD*%
D14*
%TO.P,10K,1*%
%TO.N,Net-(Battery1-Pin_2)*%
X142660000Y-107500000D03*
D15*
%TO.P,10K,2*%
%TO.N,Battery_Voltage_Measure*%
X132500000Y-107500000D03*
%TD*%
D17*
%TO.P,CranePitch1,1,Pin_1*%
%TO.N,GND*%
X169975000Y-95500000D03*
D13*
%TO.P,CranePitch1,2,Pin_2*%
%TO.N,+5V*%
X169975000Y-98000000D03*
%TO.P,CranePitch1,3,Pin_3*%
%TO.N,Crane_Servo_Pitch*%
X169975000Y-100500000D03*
%TD*%
D14*
%TO.P,Light Resistor,1*%
%TO.N,+5V*%
X157080000Y-107500000D03*
D15*
%TO.P,Light Resistor,2*%
%TO.N,Net-(Light1-Pin_1)*%
X146920000Y-107500000D03*
%TD*%
D10*
%TO.P,Light2,1,Pin_1*%
%TO.N,Net-(Light1-Pin_1)*%
X148000000Y-125000000D03*
D11*
%TO.P,Light2,2,Pin_2*%
%TO.N,GND*%
X145500000Y-125000000D03*
%TD*%
D12*
%TO.P,SteerFR1,1,Pin_1*%
%TO.N,GND*%
X122000000Y-89500000D03*
D13*
%TO.P,SteerFR1,2,Pin_2*%
%TO.N,+5V*%
X122000000Y-87000000D03*
%TO.P,SteerFR1,3,Pin_3*%
%TO.N,Signal_Steer_Servo_Front_Right*%
X122000000Y-84500000D03*
%TD*%
D17*
%TO.P,CraneYaw1,1,Pin_1*%
%TO.N,GND*%
X170000000Y-107500000D03*
D13*
%TO.P,CraneYaw1,2,Pin_2*%
%TO.N,+5V*%
X170000000Y-110000000D03*
%TO.P,CraneYaw1,3,Pin_3*%
%TO.N,Crane_Servo_Yaw*%
X170000000Y-112500000D03*
%TD*%
D10*
%TO.P,Battery1,1,Pin_1*%
%TO.N,GND*%
X136500000Y-115000000D03*
D11*
%TO.P,Battery1,2,Pin_2*%
%TO.N,Net-(Battery1-Pin_2)*%
X134000000Y-115000000D03*
%TD*%
D12*
%TO.P,SteerBR1,1,Pin_1*%
%TO.N,GND*%
X122000000Y-112500000D03*
D13*
%TO.P,SteerBR1,2,Pin_2*%
%TO.N,+5V*%
X122000000Y-110000000D03*
%TO.P,SteerBR1,3,Pin_3*%
%TO.N,Signal_Steer_Servo_Back_Right*%
X122000000Y-107500000D03*
%TD*%
D10*
%TO.P,Light3,1,Pin_1*%
%TO.N,Net-(Light1-Pin_1)*%
X158500000Y-115025000D03*
D11*
%TO.P,Light3,2,Pin_2*%
%TO.N,GND*%
X156000000Y-115025000D03*
%TD*%
D12*
%TO.P,SteerBL1,1,Pin_1*%
%TO.N,GND*%
X121975000Y-101000000D03*
D13*
%TO.P,SteerBL1,2,Pin_2*%
%TO.N,+5V*%
X121975000Y-98500000D03*
%TO.P,SteerBL1,3,Pin_3*%
%TO.N,Signal_Steer_Servo_Back_Left*%
X121975000Y-96000000D03*
%TD*%
D12*
%TO.P,L298N1,1,Pin_1*%
%TO.N,L298N_IN1*%
X134000000Y-96500000D03*
D13*
%TO.P,L298N1,2,Pin_2*%
%TO.N,L298N_IN2*%
X134000000Y-94000000D03*
%TO.P,L298N1,3,Pin_3*%
%TO.N,L298N_ENA*%
X134000000Y-91500000D03*
%TD*%
D10*
%TO.P,Light1,1,Pin_1*%
%TO.N,Net-(Light1-Pin_1)*%
X158500000Y-125000000D03*
D11*
%TO.P,Light1,2,Pin_2*%
%TO.N,GND*%
X156000000Y-125000000D03*
%TD*%
D17*
%TO.P,CraneExtension1,1,Pin_1*%
%TO.N,GND*%
X169975000Y-72500000D03*
D13*
%TO.P,CraneExtension1,2,Pin_2*%
%TO.N,+5V*%
X169975000Y-75000000D03*
%TO.P,CraneExtension1,3,Pin_3*%
%TO.N,Crane_Servo_Extension*%
X169975000Y-77500000D03*
%TD*%
D17*
%TO.P,CraneElbow1,1,Pin_1*%
%TO.N,GND*%
X169975000Y-84000000D03*
D13*
%TO.P,CraneElbow1,2,Pin_2*%
%TO.N,+5V*%
X169975000Y-86500000D03*
%TO.P,CraneElbow1,3,Pin_3*%
%TO.N,Crane_Servo_Elbow*%
X169975000Y-89000000D03*
%TD*%
D18*
%TO.N,L298N_IN2*%
X138500000Y-87000000D03*
%TO.N,Crane_Servo_Extension*%
X149500000Y-93500000D03*
%TO.N,Battery_Voltage_Measure*%
X141920000Y-93500000D03*
%TD*%
D19*
%TO.N,L298N_IN2*%
X138500000Y-86000000D02*
X138500000Y-87000000D01*
X153000000Y-71500000D02*
X138500000Y-86000000D01*
%TO.N,L298N_IN1*%
X156500000Y-72500000D02*
X153000000Y-69000000D01*
X134000000Y-96500000D02*
X141500000Y-96500000D01*
X141500000Y-96500000D02*
X156500000Y-81500000D01*
X156500000Y-81500000D02*
X156500000Y-72500000D01*
%TO.N,Crane_Servo_Extension*%
X169975000Y-77500000D02*
X165500000Y-77500000D01*
X165500000Y-77500000D02*
X149500000Y-93500000D01*
%TO.N,L298N_ENA*%
X153000000Y-74000000D02*
X135500000Y-91500000D01*
X135500000Y-91500000D02*
X134000000Y-91500000D01*
%TO.N,Battery_Voltage_Measure*%
X141920000Y-93500000D02*
X141920000Y-90080000D01*
X141920000Y-90080000D02*
X153000000Y-79000000D01*
%TD*%
%TA.AperFunction,Conductor*%
%TO.N,GND*%
G36*
X173942539Y-57520185D02*
G01*
X173988294Y-57572989D01*
X173999500Y-57624500D01*
X173999500Y-129375500D01*
X173979815Y-129442539D01*
X173927011Y-129488294D01*
X173875500Y-129499500D01*
X118124500Y-129499500D01*
X118057461Y-129479815D01*
X118011706Y-129427011D01*
X118000500Y-129375500D01*
X118000500Y-125365186D01*
X119599500Y-125365186D01*
X119599500Y-125634813D01*
X119629686Y-125902719D01*
X119629687Y-125902728D01*
X119629688Y-125902732D01*
X119629703Y-125902797D01*
X119689684Y-126165594D01*
X119689687Y-126165602D01*
X119778734Y-126420082D01*
X119895714Y-126662994D01*
X119895716Y-126662997D01*
X120039162Y-126891289D01*
X120207266Y-127102085D01*
X120397915Y-127292734D01*
X120608711Y-127460838D01*
X120837003Y-127604284D01*
X121079921Y-127721267D01*
X121271049Y-127788145D01*
X121334397Y-127810312D01*
X121334405Y-127810315D01*
X121334408Y-127810315D01*
X121334409Y-127810316D01*
X121597268Y-127870312D01*
X121865187Y-127900499D01*
X121865188Y-127900500D01*
X121865191Y-127900500D01*
X122134812Y-127900500D01*
X122134812Y-127900499D01*
X122402732Y-127870312D01*
X122665591Y-127810316D01*
X122920079Y-127721267D01*
X123162997Y-127604284D01*
X123391289Y-127460838D01*
X123602085Y-127292734D01*
X123792734Y-127102085D01*
X123960838Y-126891289D01*
X124104284Y-126662997D01*
X124221267Y-126420079D01*
X124310316Y-126165591D01*
X124370312Y-125902732D01*
X124400500Y-125634809D01*
X124400500Y-125365191D01*
X124370312Y-125097268D01*
X124310316Y-124834409D01*
X124278580Y-124743713D01*
X132649500Y-124743713D01*
X132649500Y-125256286D01*
X132682735Y-125466127D01*
X132682754Y-125466243D01*
X132737525Y-125634811D01*
X132748444Y-125668414D01*
X132844951Y-125857820D01*
X132969890Y-126029786D01*
X133120213Y-126180109D01*
X133292179Y-126305048D01*
X133292181Y-126305049D01*
X133292184Y-126305051D01*
X133481588Y-126401557D01*
X133683757Y-126467246D01*
X133893713Y-126500500D01*
X133893714Y-126500500D01*
X134106286Y-126500500D01*
X134106287Y-126500500D01*
X134316243Y-126467246D01*
X134518412Y-126401557D01*
X134707816Y-126305051D01*
X134826729Y-126218656D01*
X134879784Y-126180110D01*
X134879784Y-126180109D01*
X134879792Y-126180104D01*
X135018967Y-126040928D01*
X135080286Y-126007446D01*
X135149978Y-126012430D01*
X135205912Y-126054301D01*
X135212184Y-126063515D01*
X135307684Y-126218345D01*
X135431654Y-126342315D01*
X135580875Y-126434356D01*
X135580880Y-126434358D01*
X135747302Y-126489505D01*
X135747309Y-126489506D01*
X135850019Y-126499999D01*
X136249999Y-126499999D01*
X136250000Y-126499998D01*
X136250000Y-125433012D01*
X136307007Y-125465925D01*
X136434174Y-125500000D01*
X136565826Y-125500000D01*
X136692993Y-125465925D01*
X136750000Y-125433012D01*
X136750000Y-126499999D01*
X137149972Y-126499999D01*
X137149986Y-126499998D01*
X137252697Y-126489505D01*
X137419119Y-126434358D01*
X137419124Y-126434356D01*
X137568345Y-126342315D01*
X137692315Y-126218345D01*
X137784356Y-126069124D01*
X137784358Y-126069119D01*
X137839505Y-125902697D01*
X137839506Y-125902690D01*
X137849999Y-125799986D01*
X137850000Y-125799973D01*
X137850000Y-125250000D01*
X136933012Y-125250000D01*
X136965925Y-125192993D01*
X137000000Y-125065826D01*
X137000000Y-124934174D01*
X136965925Y-124807007D01*
X136933012Y-124750000D01*
X137849999Y-124750000D01*
X137849999Y-124743753D01*
X144150000Y-124743753D01*
X144150000Y-124750000D01*
X145066988Y-124750000D01*
X145034075Y-124807007D01*
X145000000Y-124934174D01*
X145000000Y-125065826D01*
X145034075Y-125192993D01*
X145066988Y-125250000D01*
X144150000Y-125250000D01*
X144150000Y-125256246D01*
X144183242Y-125466127D01*
X144183242Y-125466130D01*
X144248904Y-125668217D01*
X144345379Y-125857557D01*
X144470272Y-126029459D01*
X144470276Y-126029464D01*
X144620535Y-126179723D01*
X144620540Y-126179727D01*
X144792442Y-126304620D01*
X144981782Y-126401095D01*
X145183871Y-126466757D01*
X145250000Y-126477231D01*
X145250000Y-125433012D01*
X145307007Y-125465925D01*
X145434174Y-125500000D01*
X145565826Y-125500000D01*
X145692993Y-125465925D01*
X145750000Y-125433012D01*
X145750000Y-126477230D01*
X145816126Y-126466757D01*
X145816129Y-126466757D01*
X146018217Y-126401095D01*
X146207557Y-126304620D01*
X146379458Y-126179728D01*
X146518330Y-126040856D01*
X146579653Y-126007371D01*
X146649345Y-126012355D01*
X146705279Y-126054226D01*
X146711551Y-126063440D01*
X146715185Y-126069331D01*
X146715186Y-126069334D01*
X146807288Y-126218656D01*
X146931344Y-126342712D01*
X147080666Y-126434814D01*
X147247203Y-126489999D01*
X147349991Y-126500500D01*
X148650008Y-126500499D01*
X148752797Y-126489999D01*
X148919334Y-126434814D01*
X149068656Y-126342712D01*
X149192712Y-126218656D01*
X149284814Y-126069334D01*
X149339999Y-125902797D01*
X149350500Y-125800009D01*
X149350499Y-124743753D01*
X154650000Y-124743753D01*
X154650000Y-124750000D01*
X155566988Y-124750000D01*
X155534075Y-124807007D01*
X155500000Y-124934174D01*
X155500000Y-125065826D01*
X155534075Y-125192993D01*
X155566988Y-125250000D01*
X154650000Y-125250000D01*
X154650000Y-125256246D01*
X154683242Y-125466127D01*
X154683242Y-125466130D01*
X154748904Y-125668217D01*
X154845379Y-125857557D01*
X154970272Y-126029459D01*
X154970276Y-126029464D01*
X155120535Y-126179723D01*
X155120540Y-126179727D01*
X155292442Y-126304620D01*
X155481782Y-126401095D01*
X155683871Y-126466757D01*
X155750000Y-126477231D01*
X155750000Y-125433012D01*
X155807007Y-125465925D01*
X155934174Y-125500000D01*
X156065826Y-125500000D01*
X156192993Y-125465925D01*
X156250000Y-125433012D01*
X156250000Y-126477230D01*
X156316126Y-126466757D01*
X156316129Y-126466757D01*
X156518217Y-126401095D01*
X156707557Y-126304620D01*
X156879458Y-126179728D01*
X157018330Y-126040856D01*
X157079653Y-126007371D01*
X157149345Y-126012355D01*
X157205279Y-126054226D01*
X157211551Y-126063440D01*
X157215185Y-126069331D01*
X157215186Y-126069334D01*
X157307288Y-126218656D01*
X157431344Y-126342712D01*
X157580666Y-126434814D01*
X157747203Y-126489999D01*
X157849991Y-126500500D01*
X159150008Y-126500499D01*
X159252797Y-126489999D01*
X159419334Y-126434814D01*
X159568656Y-126342712D01*
X159692712Y-126218656D01*
X159784814Y-126069334D01*
X159839999Y-125902797D01*
X159850500Y-125800009D01*
X159850499Y-125365186D01*
X167599500Y-125365186D01*
X167599500Y-125634813D01*
X167629686Y-125902719D01*
X167629687Y-125902728D01*
X167629688Y-125902732D01*
X167629703Y-125902797D01*
X167689684Y-126165594D01*
X167689687Y-126165602D01*
X167778734Y-126420082D01*
X167895714Y-126662994D01*
X167895716Y-126662997D01*
X168039162Y-126891289D01*
X168207266Y-127102085D01*
X168397915Y-127292734D01*
X168608711Y-127460838D01*
X168837003Y-127604284D01*
X169079921Y-127721267D01*
X169271049Y-127788145D01*
X169334397Y-127810312D01*
X169334405Y-127810315D01*
X169334408Y-127810315D01*
X169334409Y-127810316D01*
X169597268Y-127870312D01*
X169865187Y-127900499D01*
X169865188Y-127900500D01*
X169865191Y-127900500D01*
X170134812Y-127900500D01*
X170134812Y-127900499D01*
X170402732Y-127870312D01*
X170665591Y-127810316D01*
X170920079Y-127721267D01*
X171162997Y-127604284D01*
X171391289Y-127460838D01*
X171602085Y-127292734D01*
X171792734Y-127102085D01*
X171960838Y-126891289D01*
X172104284Y-126662997D01*
X172221267Y-126420079D01*
X172310316Y-126165591D01*
X172370312Y-125902732D01*
X172400500Y-125634809D01*
X172400500Y-125365191D01*
X172370312Y-125097268D01*
X172310316Y-124834409D01*
X172221267Y-124579921D01*
X172104284Y-124337003D01*
X171960838Y-124108711D01*
X171792734Y-123897915D01*
X171602085Y-123707266D01*
X171586642Y-123694951D01*
X171424495Y-123565643D01*
X171391289Y-123539162D01*
X171162997Y-123395716D01*
X171162994Y-123395714D01*
X170920082Y-123278734D01*
X170665602Y-123189687D01*
X170665594Y-123189684D01*
X170468446Y-123144687D01*
X170402732Y-123129688D01*
X170402728Y-123129687D01*
X170402719Y-123129686D01*
X170134813Y-123099500D01*
X170134809Y-123099500D01*
X169865191Y-123099500D01*
X169865186Y-123099500D01*
X169597280Y-123129686D01*
X169597268Y-123129688D01*
X169334405Y-123189684D01*
X169334397Y-123189687D01*
X169079917Y-123278734D01*
X168837005Y-123395714D01*
X168608712Y-123539161D01*
X168397915Y-123707265D01*
X168207265Y-123897915D01*
X168039161Y-124108712D01*
X167895714Y-124337005D01*
X167778734Y-124579917D01*
X167689687Y-124834397D01*
X167689684Y-124834405D01*
X167629688Y-125097268D01*
X167629686Y-125097280D01*
X167599500Y-125365186D01*
X159850499Y-125365186D01*
X159850499Y-124934174D01*
X159850499Y-124199998D01*
X159850498Y-124199981D01*
X159839999Y-124097203D01*
X159839998Y-124097200D01*
X159784814Y-123930666D01*
X159692712Y-123781344D01*
X159568656Y-123657288D01*
X159419334Y-123565186D01*
X159252797Y-123510001D01*
X159252795Y-123510000D01*
X159150010Y-123499500D01*
X157849998Y-123499500D01*
X157849981Y-123499501D01*
X157747203Y-123510000D01*
X157747200Y-123510001D01*
X157580668Y-123565185D01*
X157580663Y-123565187D01*
X157431342Y-123657289D01*
X157307289Y-123781342D01*
X157211551Y-123936559D01*
X157159603Y-123983283D01*
X157090640Y-123994506D01*
X157026558Y-123966662D01*
X157018331Y-123959143D01*
X156879464Y-123820276D01*
X156879459Y-123820272D01*
X156707557Y-123695379D01*
X156518215Y-123598903D01*
X156316124Y-123533241D01*
X156250000Y-123522768D01*
X156250000Y-124566988D01*
X156192993Y-124534075D01*
X156065826Y-124500000D01*
X155934174Y-124500000D01*
X155807007Y-124534075D01*
X155750000Y-124566988D01*
X155750000Y-123522768D01*
X155749999Y-123522768D01*
X155683875Y-123533241D01*
X155481784Y-123598903D01*
X155292442Y-123695379D01*
X155120540Y-123820272D01*
X155120535Y-123820276D01*
X154970276Y-123970535D01*
X154970272Y-123970540D01*
X154845379Y-124142442D01*
X154748904Y-124331782D01*
X154683242Y-124533869D01*
X154683242Y-124533872D01*
X154650000Y-124743753D01*
X149350499Y-124743753D01*
X149350499Y-124199992D01*
X149339999Y-124097203D01*
X149284814Y-123930666D01*
X149192712Y-123781344D01*
X149068656Y-123657288D01*
X148919334Y-123565186D01*
X148752797Y-123510001D01*
X148752795Y-123510000D01*
X148650010Y-123499500D01*
X147349998Y-123499500D01*
X147349981Y-123499501D01*
X147247203Y-123510000D01*
X147247200Y-123510001D01*
X147080668Y-123565185D01*
X147080663Y-123565187D01*
X146931342Y-123657289D01*
X146807289Y-123781342D01*
X146711551Y-123936559D01*
X146659603Y-123983283D01*
X146590640Y-123994506D01*
X146526558Y-123966662D01*
X146518331Y-123959143D01*
X146379464Y-123820276D01*
X146379459Y-123820272D01*
X146207557Y-123695379D01*
X146018215Y-123598903D01*
X145816124Y-123533241D01*
X145750000Y-123522768D01*
X145750000Y-124566988D01*
X145692993Y-124534075D01*
X145565826Y-124500000D01*
X145434174Y-124500000D01*
X145307007Y-124534075D01*
X145250000Y-124566988D01*
X145250000Y-123522768D01*
X145249999Y-123522768D01*
X145183875Y-123533241D01*
X144981784Y-123598903D01*
X144792442Y-123695379D01*
X144620540Y-123820272D01*
X144620535Y-123820276D01*
X144470276Y-123970535D01*
X144470272Y-123970540D01*
X144345379Y-124142442D01*
X144248904Y-124331782D01*
X144183242Y-124533869D01*
X144183242Y-124533872D01*
X144150000Y-124743753D01*
X137849999Y-124743753D01*
X137849999Y-124200028D01*
X137849998Y-124200013D01*
X137839505Y-124097302D01*
X137784358Y-123930880D01*
X137784356Y-123930875D01*
X137692315Y-123781654D01*
X137568345Y-123657684D01*
X137419124Y-123565643D01*
X137419119Y-123565641D01*
X137252697Y-123510494D01*
X137252690Y-123510493D01*
X137149986Y-123500000D01*
X136750000Y-123500000D01*
X136750000Y-124566988D01*
X136692993Y-124534075D01*
X136565826Y-124500000D01*
X136434174Y-124500000D01*
X136307007Y-124534075D01*
X136250000Y-124566988D01*
X136250000Y-123500000D01*
X135850028Y-123500000D01*
X135850012Y-123500001D01*
X135747302Y-123510494D01*
X135580880Y-123565641D01*
X135580875Y-123565643D01*
X135431654Y-123657684D01*
X135307683Y-123781655D01*
X135307680Y-123781659D01*
X135212183Y-123936484D01*
X135160235Y-123983209D01*
X135091273Y-123994430D01*
X135027191Y-123966587D01*
X135018964Y-123959068D01*
X134879786Y-123819890D01*
X134707820Y-123694951D01*
X134518414Y-123598444D01*
X134518413Y-123598443D01*
X134518412Y-123598443D01*
X134316243Y-123532754D01*
X134316241Y-123532753D01*
X134316240Y-123532753D01*
X134154957Y-123507208D01*
X134106287Y-123499500D01*
X133893713Y-123499500D01*
X133845042Y-123507208D01*
X133683760Y-123532753D01*
X133481585Y-123598444D01*
X133292179Y-123694951D01*
X133120213Y-123819890D01*
X132969890Y-123970213D01*
X132844951Y-124142179D01*
X132748444Y-124331585D01*
X132682753Y-124533760D01*
X132649500Y-124743713D01*
X124278580Y-124743713D01*
X124221267Y-124579921D01*
X124104284Y-124337003D01*
X123960838Y-124108711D01*
X123792734Y-123897915D01*
X123602085Y-123707266D01*
X123586642Y-123694951D01*
X123424495Y-123565643D01*
X123391289Y-123539162D01*
X123162997Y-123395716D01*
X123162994Y-123395714D01*
X122920082Y-123278734D01*
X122665602Y-123189687D01*
X122665594Y-123189684D01*
X122468446Y-123144687D01*
X122402732Y-123129688D01*
X122402728Y-123129687D01*
X122402719Y-123129686D01*
X122134813Y-123099500D01*
X122134809Y-123099500D01*
X121865191Y-123099500D01*
X121865186Y-123099500D01*
X121597280Y-123129686D01*
X121597268Y-123129688D01*
X121334405Y-123189684D01*
X121334397Y-123189687D01*
X121079917Y-123278734D01*
X120837005Y-123395714D01*
X120608712Y-123539161D01*
X120397915Y-123707265D01*
X120207265Y-123897915D01*
X120039161Y-124108712D01*
X119895714Y-124337005D01*
X119778734Y-124579917D01*
X119689687Y-124834397D01*
X119689684Y-124834405D01*
X119629688Y-125097268D01*
X119629686Y-125097280D01*
X119599500Y-125365186D01*
X118000500Y-125365186D01*
X118000500Y-114743713D01*
X132649500Y-114743713D01*
X132649500Y-115256286D01*
X132682735Y-115466127D01*
X132682754Y-115466243D01*
X132701845Y-115525000D01*
X132748444Y-115668414D01*
X132844951Y-115857820D01*
X132969890Y-116029786D01*
X133120213Y-116180109D01*
X133292179Y-116305048D01*
X133292181Y-116305049D01*
X133292184Y-116305051D01*
X133481588Y-116401557D01*
X133683757Y-116467246D01*
X133893713Y-116500500D01*
X133893714Y-116500500D01*
X134106286Y-116500500D01*
X134106287Y-116500500D01*
X134316243Y-116467246D01*
X134518412Y-116401557D01*
X134707816Y-116305051D01*
X134826729Y-116218656D01*
X134879784Y-116180110D01*
X134879784Y-116180109D01*
X134879792Y-116180104D01*
X135018967Y-116040928D01*
X135080286Y-116007446D01*
X135149978Y-116012430D01*
X135205912Y-116054301D01*
X135212184Y-116063515D01*
X135307684Y-116218345D01*
X135431654Y-116342315D01*
X135580875Y-116434356D01*
X135580880Y-116434358D01*
X135747302Y-116489505D01*
X135747309Y-116489506D01*
X135850019Y-116499999D01*
X136249999Y-116499999D01*
X136250000Y-116499998D01*
X136250000Y-115433012D01*
X136307007Y-115465925D01*
X136434174Y-115500000D01*
X136565826Y-115500000D01*
X136692993Y-115465925D01*
X136750000Y-115433012D01*
X136750000Y-116499999D01*
X137149972Y-116499999D01*
X137149986Y-116499998D01*
X137252697Y-116489505D01*
X137419119Y-116434358D01*
X137419124Y-116434356D01*
X137568345Y-116342315D01*
X137692315Y-116218345D01*
X137784356Y-116069124D01*
X137784358Y-116069119D01*
X137839505Y-115902697D01*
X137839506Y-115902690D01*
X137849999Y-115799986D01*
X137850000Y-115799973D01*
X137850000Y-115250000D01*
X136933012Y-115250000D01*
X136965925Y-115192993D01*
X137000000Y-115065826D01*
X137000000Y-114934174D01*
X136965925Y-114807007D01*
X136933012Y-114750000D01*
X137849999Y-114750000D01*
X137849999Y-114743753D01*
X144150000Y-114743753D01*
X144150000Y-114750000D01*
X145066988Y-114750000D01*
X145034075Y-114807007D01*
X145000000Y-114934174D01*
X145000000Y-115065826D01*
X145034075Y-115192993D01*
X145066988Y-115250000D01*
X144150000Y-115250000D01*
X144150000Y-115256246D01*
X144183242Y-115466127D01*
X144183242Y-115466130D01*
X144248904Y-115668217D01*
X144345379Y-115857557D01*
X144470272Y-116029459D01*
X144470276Y-116029464D01*
X144620535Y-116179723D01*
X144620540Y-116179727D01*
X144792442Y-116304620D01*
X144981782Y-116401095D01*
X145183871Y-116466757D01*
X145250000Y-116477231D01*
X145250000Y-115433012D01*
X145307007Y-115465925D01*
X145434174Y-115500000D01*
X145565826Y-115500000D01*
X145692993Y-115465925D01*
X145750000Y-115433012D01*
X145750000Y-116477230D01*
X145816126Y-116466757D01*
X145816129Y-116466757D01*
X146018217Y-116401095D01*
X146207557Y-116304620D01*
X146379458Y-116179728D01*
X146518330Y-116040856D01*
X146579653Y-116007371D01*
X146649345Y-116012355D01*
X146705279Y-116054226D01*
X146711551Y-116063440D01*
X146715185Y-116069331D01*
X146715186Y-116069334D01*
X146807288Y-116218656D01*
X146931344Y-116342712D01*
X147080666Y-116434814D01*
X147247203Y-116489999D01*
X147349991Y-116500500D01*
X148650008Y-116500499D01*
X148752797Y-116489999D01*
X148919334Y-116434814D01*
X149068656Y-116342712D01*
X149192712Y-116218656D01*
X149284814Y-116069334D01*
X149339999Y-115902797D01*
X149350500Y-115800009D01*
X149350499Y-114768753D01*
X154650000Y-114768753D01*
X154650000Y-114775000D01*
X155566988Y-114775000D01*
X155534075Y-114832007D01*
X155500000Y-114959174D01*
X155500000Y-115090826D01*
X155534075Y-115217993D01*
X155566988Y-115275000D01*
X154650000Y-115275000D01*
X154650000Y-115281246D01*
X154683242Y-115491127D01*
X154683242Y-115491130D01*
X154748904Y-115693217D01*
X154845379Y-115882557D01*
X154970272Y-116054459D01*
X154970276Y-116054464D01*
X155120535Y-116204723D01*
X155120540Y-116204727D01*
X155292442Y-116329620D01*
X155481782Y-116426095D01*
X155683871Y-116491757D01*
X155750000Y-116502231D01*
X155750000Y-115458012D01*
X155807007Y-115490925D01*
X155934174Y-115525000D01*
X156065826Y-115525000D01*
X156192993Y-115490925D01*
X156250000Y-115458012D01*
X156250000Y-116502230D01*
X156316126Y-116491757D01*
X156316129Y-116491757D01*
X156518217Y-116426095D01*
X156707557Y-116329620D01*
X156879458Y-116204728D01*
X157018330Y-116065856D01*
X157079653Y-116032371D01*
X157149345Y-116037355D01*
X157205279Y-116079226D01*
X157211551Y-116088440D01*
X157215185Y-116094331D01*
X157215186Y-116094334D01*
X157307288Y-116243656D01*
X157431344Y-116367712D01*
X157580666Y-116459814D01*
X157747203Y-116514999D01*
X157849991Y-116525500D01*
X159150008Y-116525499D01*
X159252797Y-116514999D01*
X159419334Y-116459814D01*
X159568656Y-116367712D01*
X159692712Y-116243656D01*
X159784814Y-116094334D01*
X159839999Y-115927797D01*
X159850500Y-115825009D01*
X159850499Y-114224992D01*
X159839999Y-114122203D01*
X159784814Y-113955666D01*
X159692712Y-113806344D01*
X159568656Y-113682288D01*
X159433467Y-113598903D01*
X159419336Y-113590187D01*
X159419331Y-113590185D01*
X159353422Y-113568345D01*
X159252797Y-113535001D01*
X159252795Y-113535000D01*
X159150010Y-113524500D01*
X157849998Y-113524500D01*
X157849981Y-113524501D01*
X157747203Y-113535000D01*
X157747200Y-113535001D01*
X157580668Y-113590185D01*
X157580663Y-113590187D01*
X157431342Y-113682289D01*
X157307289Y-113806342D01*
X157211551Y-113961559D01*
X157159603Y-114008283D01*
X157090640Y-114019506D01*
X157026558Y-113991662D01*
X157018331Y-113984143D01*
X156879464Y-113845276D01*
X156879459Y-113845272D01*
X156707557Y-113720379D01*
X156518215Y-113623903D01*
X156316124Y-113558241D01*
X156250000Y-113547768D01*
X156250000Y-114591988D01*
X156192993Y-114559075D01*
X156065826Y-114525000D01*
X155934174Y-114525000D01*
X155807007Y-114559075D01*
X155750000Y-114591988D01*
X155750000Y-113547768D01*
X155749999Y-113547768D01*
X155683875Y-113558241D01*
X155481784Y-113623903D01*
X155292442Y-113720379D01*
X155120540Y-113845272D01*
X155120535Y-113845276D01*
X154970276Y-113995535D01*
X154970272Y-113995540D01*
X154845379Y-114167442D01*
X154748904Y-114356782D01*
X154683242Y-114558869D01*
X154683242Y-114558872D01*
X154650000Y-114768753D01*
X149350499Y-114768753D01*
X149350499Y-114199992D01*
X149339999Y-114097203D01*
X149284814Y-113930666D01*
X149192712Y-113781344D01*
X149068656Y-113657288D01*
X148919334Y-113565186D01*
X148752797Y-113510001D01*
X148752795Y-113510000D01*
X148650010Y-113499500D01*
X147349998Y-113499500D01*
X147349981Y-113499501D01*
X147247203Y-113510000D01*
X147247200Y-113510001D01*
X147080668Y-113565185D01*
X147080663Y-113565187D01*
X146931342Y-113657289D01*
X146807289Y-113781342D01*
X146711551Y-113936559D01*
X146659603Y-113983283D01*
X146590640Y-113994506D01*
X146526558Y-113966662D01*
X146518331Y-113959143D01*
X146379464Y-113820276D01*
X146379459Y-113820272D01*
X146207557Y-113695379D01*
X146018215Y-113598903D01*
X145816124Y-113533241D01*
X145750000Y-113522768D01*
X145750000Y-114566988D01*
X145692993Y-114534075D01*
X145565826Y-114500000D01*
X145434174Y-114500000D01*
X145307007Y-114534075D01*
X145250000Y-114566988D01*
X145250000Y-113522768D01*
X145249999Y-113522768D01*
X145183875Y-113533241D01*
X144981784Y-113598903D01*
X144792442Y-113695379D01*
X144620540Y-113820272D01*
X144620535Y-113820276D01*
X144470276Y-113970535D01*
X144470272Y-113970540D01*
X144345379Y-114142442D01*
X144248904Y-114331782D01*
X144183242Y-114533869D01*
X144183242Y-114533872D01*
X144150000Y-114743753D01*
X137849999Y-114743753D01*
X137849999Y-114200028D01*
X137849998Y-114200013D01*
X137839505Y-114097302D01*
X137784358Y-113930880D01*
X137784356Y-113930875D01*
X137692315Y-113781654D01*
X137568345Y-113657684D01*
X137419124Y-113565643D01*
X137419119Y-113565641D01*
X137252697Y-113510494D01*
X137252690Y-113510493D01*
X137149986Y-113500000D01*
X136750000Y-113500000D01*
X136750000Y-114566988D01*
X136692993Y-114534075D01*
X136565826Y-114500000D01*
X136434174Y-114500000D01*
X136307007Y-114534075D01*
X136250000Y-114566988D01*
X136250000Y-113500000D01*
X135850028Y-113500000D01*
X135850012Y-113500001D01*
X135747302Y-113510494D01*
X135580880Y-113565641D01*
X135580875Y-113565643D01*
X135431654Y-113657684D01*
X135307683Y-113781655D01*
X135307680Y-113781659D01*
X135212183Y-113936484D01*
X135160235Y-113983209D01*
X135091273Y-113994430D01*
X135027191Y-113966587D01*
X135018964Y-113959068D01*
X134879786Y-113819890D01*
X134707820Y-113694951D01*
X134518414Y-113598444D01*
X134518413Y-113598443D01*
X134518412Y-113598443D01*
X134316243Y-113532754D01*
X134316241Y-113532753D01*
X134316240Y-113532753D01*
X134154957Y-113507208D01*
X134106287Y-113499500D01*
X133893713Y-113499500D01*
X133845042Y-113507208D01*
X133683760Y-113532753D01*
X133481585Y-113598444D01*
X133292179Y-113694951D01*
X133120213Y-113819890D01*
X132969890Y-113970213D01*
X132844951Y-114142179D01*
X132748444Y-114331585D01*
X132682753Y-114533760D01*
X132649500Y-114743713D01*
X118000500Y-114743713D01*
X118000500Y-107393713D01*
X120524500Y-107393713D01*
X120524500Y-107606286D01*
X120557753Y-107816239D01*
X120623444Y-108018414D01*
X120719951Y-108207820D01*
X120844890Y-108379786D01*
X120995209Y-108530105D01*
X120995214Y-108530109D01*
X121159793Y-108649682D01*
X121202459Y-108705011D01*
X121208438Y-108774625D01*
X121175833Y-108836420D01*
X121159793Y-108850318D01*
X120995214Y-108969890D01*
X120995209Y-108969894D01*
X120844890Y-109120213D01*
X120719951Y-109292179D01*
X120623444Y-109481585D01*
X120557753Y-109683760D01*
X120524500Y-109893713D01*
X120524500Y-110106286D01*
X120557753Y-110316239D01*
X120623444Y-110518414D01*
X120719951Y-110707820D01*
X120844890Y-110879786D01*
X120984068Y-111018964D01*
X121017553Y-111080287D01*
X121012569Y-111149979D01*
X120970697Y-111205912D01*
X120961484Y-111212183D01*
X120806659Y-111307680D01*
X120806655Y-111307683D01*
X120682684Y-111431654D01*
X120590643Y-111580875D01*
X120590641Y-111580880D01*
X120535494Y-111747302D01*
X120535493Y-111747309D01*
X120525000Y-111850013D01*
X120525000Y-112250000D01*
X121595854Y-112250000D01*
X121557370Y-112316657D01*
X121525000Y-112437465D01*
X121525000Y-112562535D01*
X121557370Y-112683343D01*
X121595854Y-112750000D01*
X120525001Y-112750000D01*
X120525001Y-113149986D01*
X120535494Y-113252697D01*
X120590641Y-113419119D01*
X120590643Y-113419124D01*
X120682684Y-113568345D01*
X120806654Y-113692315D01*
X120955875Y-113784356D01*
X120955880Y-113784358D01*
X121122302Y-113839505D01*
X121122309Y-113839506D01*
X121225019Y-113849999D01*
X121749999Y-113849999D01*
X121750000Y-113849998D01*
X121750000Y-112904145D01*
X121816657Y-112942630D01*
X121937465Y-112975000D01*
X122062535Y-112975000D01*
X122183343Y-112942630D01*
X122250000Y-112904145D01*
X122250000Y-113849999D01*
X122774972Y-113849999D01*
X122774986Y-113849998D01*
X122877697Y-113839505D01*
X123044119Y-113784358D01*
X123044124Y-113784356D01*
X123193345Y-113692315D01*
X123317315Y-113568345D01*
X123409356Y-113419124D01*
X123409358Y-113419119D01*
X123464505Y-113252697D01*
X123464506Y-113252690D01*
X123474999Y-113149986D01*
X123475000Y-113149973D01*
X123475000Y-112750000D01*
X122404146Y-112750000D01*
X122442630Y-112683343D01*
X122475000Y-112562535D01*
X122475000Y-112437465D01*
X122442630Y-112316657D01*
X122404146Y-112250000D01*
X123474999Y-112250000D01*
X123474999Y-111850028D01*
X123474998Y-111850013D01*
X123464505Y-111747302D01*
X123409358Y-111580880D01*
X123409356Y-111580875D01*
X123317315Y-111431654D01*
X123193345Y-111307684D01*
X123038515Y-111212184D01*
X122991791Y-111160236D01*
X122980568Y-111091273D01*
X123008412Y-111027191D01*
X123015909Y-111018986D01*
X123155104Y-110879792D01*
X123280051Y-110707816D01*
X123376557Y-110518412D01*
X123442246Y-110316243D01*
X123475500Y-110106287D01*
X123475500Y-109893713D01*
X168524500Y-109893713D01*
X168524500Y-110106286D01*
X168557753Y-110316239D01*
X168623444Y-110518414D01*
X168719951Y-110707820D01*
X168844890Y-110879786D01*
X168995209Y-111030105D01*
X168995214Y-111030109D01*
X169159793Y-111149682D01*
X169202459Y-111205011D01*
X169208438Y-111274625D01*
X169175833Y-111336420D01*
X169159793Y-111350318D01*
X168995214Y-111469890D01*
X168995209Y-111469894D01*
X168844890Y-111620213D01*
X168719951Y-111792179D01*
X168623444Y-111981585D01*
X168557753Y-112183760D01*
X168524500Y-112393713D01*
X168524500Y-112606286D01*
X168557753Y-112816239D01*
X168623444Y-113018414D01*
X168719951Y-113207820D01*
X168844890Y-113379786D01*
X168995213Y-113530109D01*
X169167179Y-113655048D01*
X169167181Y-113655049D01*
X169167184Y-113655051D01*
X169356588Y-113751557D01*
X169558757Y-113817246D01*
X169768713Y-113850500D01*
X169768714Y-113850500D01*
X170231286Y-113850500D01*
X170231287Y-113850500D01*
X170441243Y-113817246D01*
X170643412Y-113751557D01*
X170832816Y-113655051D01*
X170910098Y-113598903D01*
X171004786Y-113530109D01*
X171004788Y-113530106D01*
X171004792Y-113530104D01*
X171155104Y-113379792D01*
X171155106Y-113379788D01*
X171155109Y-113379786D01*
X171280048Y-113207820D01*
X171280047Y-113207820D01*
X171280051Y-113207816D01*
X171376557Y-113018412D01*
X171442246Y-112816243D01*
X171475500Y-112606287D01*
X171475500Y-112393713D01*
X171442246Y-112183757D01*
X171376557Y-111981588D01*
X171280051Y-111792184D01*
X171280049Y-111792181D01*
X171280048Y-111792179D01*
X171155109Y-111620213D01*
X171004792Y-111469896D01*
X170952156Y-111431654D01*
X170840204Y-111350316D01*
X170797540Y-111294989D01*
X170791561Y-111225376D01*
X170824166Y-111163580D01*
X170840199Y-111149686D01*
X171004792Y-111030104D01*
X171155104Y-110879792D01*
X171155106Y-110879788D01*
X171155109Y-110879786D01*
X171280048Y-110707820D01*
X171280047Y-110707820D01*
X171280051Y-110707816D01*
X171376557Y-110518412D01*
X171442246Y-110316243D01*
X171475500Y-110106287D01*
X171475500Y-109893713D01*
X171442246Y-109683757D01*
X171376557Y-109481588D01*
X171280051Y-109292184D01*
X171280049Y-109292181D01*
X171280048Y-109292179D01*
X171155109Y-109120213D01*
X171015931Y-108981035D01*
X170982446Y-108919712D01*
X170987430Y-108850020D01*
X171029302Y-108794087D01*
X171038516Y-108787815D01*
X171193343Y-108692317D01*
X171317315Y-108568345D01*
X171409356Y-108419124D01*
X171409358Y-108419119D01*
X171464505Y-108252697D01*
X171464506Y-108252690D01*
X171474999Y-108149986D01*
X171475000Y-108149973D01*
X171475000Y-107750000D01*
X170404146Y-107750000D01*
X170442630Y-107683343D01*
X170475000Y-107562535D01*
X170475000Y-107437465D01*
X170442630Y-107316657D01*
X170404146Y-107250000D01*
X171474999Y-107250000D01*
X171474999Y-106850028D01*
X171474998Y-106850013D01*
X171464505Y-106747302D01*
X171409358Y-106580880D01*
X171409356Y-106580875D01*
X171317315Y-106431654D01*
X171193345Y-106307684D01*
X171044124Y-106215643D01*
X171044119Y-106215641D01*
X170877697Y-106160494D01*
X170877690Y-106160493D01*
X170774986Y-106150000D01*
X170250000Y-106150000D01*
X170250000Y-107095854D01*
X170183343Y-107057370D01*
X170062535Y-107025000D01*
X169937465Y-107025000D01*
X169816657Y-107057370D01*
X169750000Y-107095854D01*
X169750000Y-106150000D01*
X169225028Y-106150000D01*
X169225012Y-106150001D01*
X169122302Y-106160494D01*
X168955880Y-106215641D01*
X168955875Y-106215643D01*
X168806654Y-106307684D01*
X168682684Y-106431654D01*
X168590643Y-106580875D01*
X168590641Y-106580880D01*
X168535494Y-106747302D01*
X168535493Y-106747309D01*
X168525000Y-106850013D01*
X168525000Y-107250000D01*
X169595854Y-107250000D01*
X169557370Y-107316657D01*
X169525000Y-107437465D01*
X169525000Y-107562535D01*
X169557370Y-107683343D01*
X169595854Y-107750000D01*
X168525001Y-107750000D01*
X168525001Y-108149986D01*
X168535494Y-108252697D01*
X168590641Y-108419119D01*
X168590643Y-108419124D01*
X168682684Y-108568345D01*
X168806654Y-108692315D01*
X168961484Y-108787815D01*
X169008208Y-108839763D01*
X169019431Y-108908726D01*
X168991587Y-108972808D01*
X168984069Y-108981035D01*
X168844889Y-109120215D01*
X168719951Y-109292179D01*
X168623444Y-109481585D01*
X168557753Y-109683760D01*
X168524500Y-109893713D01*
X123475500Y-109893713D01*
X123442246Y-109683757D01*
X123376557Y-109481588D01*
X123280051Y-109292184D01*
X123280049Y-109292181D01*
X123280048Y-109292179D01*
X123155109Y-109120213D01*
X123004792Y-108969896D01*
X122920598Y-108908726D01*
X122840204Y-108850316D01*
X122797540Y-108794989D01*
X122791561Y-108725376D01*
X122824166Y-108663580D01*
X122840199Y-108649686D01*
X123004792Y-108530104D01*
X123155104Y-108379792D01*
X123155106Y-108379788D01*
X123155109Y-108379786D01*
X123280048Y-108207820D01*
X123280047Y-108207820D01*
X123280051Y-108207816D01*
X123376557Y-108018412D01*
X123442246Y-107816243D01*
X123475500Y-107606287D01*
X123475500Y-107397648D01*
X131199500Y-107397648D01*
X131199500Y-107602351D01*
X131231522Y-107804534D01*
X131294781Y-107999223D01*
X131387715Y-108181613D01*
X131508028Y-108347213D01*
X131652786Y-108491971D01*
X131807749Y-108604556D01*
X131818390Y-108612287D01*
X131891425Y-108649500D01*
X132000776Y-108705218D01*
X132000778Y-108705218D01*
X132000781Y-108705220D01*
X132062815Y-108725376D01*
X132195465Y-108768477D01*
X132234282Y-108774625D01*
X132397648Y-108800500D01*
X132397649Y-108800500D01*
X132602351Y-108800500D01*
X132602352Y-108800500D01*
X132804534Y-108768477D01*
X132999219Y-108705220D01*
X133181610Y-108612287D01*
X133294726Y-108530104D01*
X133347213Y-108491971D01*
X133347215Y-108491968D01*
X133347219Y-108491966D01*
X133491966Y-108347219D01*
X133491968Y-108347215D01*
X133491971Y-108347213D01*
X133544732Y-108274590D01*
X133612287Y-108181610D01*
X133705220Y-107999219D01*
X133768477Y-107804534D01*
X133800500Y-107602352D01*
X133800500Y-107397648D01*
X141359500Y-107397648D01*
X141359500Y-107602351D01*
X141391522Y-107804534D01*
X141454781Y-107999223D01*
X141547715Y-108181613D01*
X141668028Y-108347213D01*
X141812786Y-108491971D01*
X141967749Y-108604556D01*
X141978390Y-108612287D01*
X142051425Y-108649500D01*
X142160776Y-108705218D01*
X142160778Y-108705218D01*
X142160781Y-108705220D01*
X142222815Y-108725376D01*
X142355465Y-108768477D01*
X142394282Y-108774625D01*
X142557648Y-108800500D01*
X142557649Y-108800500D01*
X142762351Y-108800500D01*
X142762352Y-108800500D01*
X142964534Y-108768477D01*
X143159219Y-108705220D01*
X143341610Y-108612287D01*
X143454726Y-108530104D01*
X143507213Y-108491971D01*
X143507215Y-108491968D01*
X143507219Y-108491966D01*
X143651966Y-108347219D01*
X143651968Y-108347215D01*
X143651971Y-108347213D01*
X143704732Y-108274590D01*
X143772287Y-108181610D01*
X143865220Y-107999219D01*
X143928477Y-107804534D01*
X143960500Y-107602352D01*
X143960500Y-107397648D01*
X145619500Y-107397648D01*
X145619500Y-107602351D01*
X145651522Y-107804534D01*
X145714781Y-107999223D01*
X145807715Y-108181613D01*
X145928028Y-108347213D01*
X146072786Y-108491971D01*
X146227749Y-108604556D01*
X146238390Y-108612287D01*
X146311425Y-108649500D01*
X146420776Y-108705218D01*
X146420778Y-108705218D01*
X146420781Y-108705220D01*
X146482815Y-108725376D01*
X146615465Y-108768477D01*
X146654282Y-108774625D01*
X146817648Y-108800500D01*
X146817649Y-108800500D01*
X147022351Y-108800500D01*
X147022352Y-108800500D01*
X147224534Y-108768477D01*
X147419219Y-108705220D01*
X147601610Y-108612287D01*
X147714726Y-108530104D01*
X147767213Y-108491971D01*
X147767215Y-108491968D01*
X147767219Y-108491966D01*
X147911966Y-108347219D01*
X147911968Y-108347215D01*
X147911971Y-108347213D01*
X147964732Y-108274590D01*
X148032287Y-108181610D01*
X148125220Y-107999219D01*
X148188477Y-107804534D01*
X148220500Y-107602352D01*
X148220500Y-107397648D01*
X155779500Y-107397648D01*
X155779500Y-107602351D01*
X155811522Y-107804534D01*
X155874781Y-107999223D01*
X155967715Y-108181613D01*
X156088028Y-108347213D01*
X156232786Y-108491971D01*
X156387749Y-108604556D01*
X156398390Y-108612287D01*
X156471425Y-108649500D01*
X156580776Y-108705218D01*
X156580778Y-108705218D01*
X156580781Y-108705220D01*
X156642815Y-108725376D01*
X156775465Y-108768477D01*
X156814282Y-108774625D01*
X156977648Y-108800500D01*
X156977649Y-108800500D01*
X157182351Y-108800500D01*
X157182352Y-108800500D01*
X157384534Y-108768477D01*
X157579219Y-108705220D01*
X157761610Y-108612287D01*
X157874726Y-108530104D01*
X157927213Y-108491971D01*
X157927215Y-108491968D01*
X157927219Y-108491966D01*
X158071966Y-108347219D01*
X158071968Y-108347215D01*
X158071971Y-108347213D01*
X158124732Y-108274590D01*
X158192287Y-108181610D01*
X158285220Y-107999219D01*
X158348477Y-107804534D01*
X158380500Y-107602352D01*
X158380500Y-107397648D01*
X158367672Y-107316657D01*
X158348477Y-107195465D01*
X158285218Y-107000776D01*
X158235479Y-106903159D01*
X158208407Y-106850028D01*
X158192287Y-106818390D01*
X158184556Y-106807749D01*
X158071971Y-106652786D01*
X157927213Y-106508028D01*
X157761613Y-106387715D01*
X157761612Y-106387714D01*
X157761610Y-106387713D01*
X157677681Y-106344949D01*
X157579223Y-106294781D01*
X157384534Y-106231522D01*
X157209995Y-106203878D01*
X157182352Y-106199500D01*
X156977648Y-106199500D01*
X156953329Y-106203351D01*
X156775465Y-106231522D01*
X156580776Y-106294781D01*
X156398386Y-106387715D01*
X156232786Y-106508028D01*
X156088028Y-106652786D01*
X155967715Y-106818386D01*
X155874781Y-107000776D01*
X155811522Y-107195465D01*
X155779500Y-107397648D01*
X148220500Y-107397648D01*
X148207672Y-107316657D01*
X148188477Y-107195465D01*
X148125218Y-107000776D01*
X148048407Y-106850028D01*
X148032287Y-106818390D01*
X148024556Y-106807749D01*
X147911971Y-106652786D01*
X147767213Y-106508028D01*
X147601613Y-106387715D01*
X147601612Y-106387714D01*
X147601610Y-106387713D01*
X147517681Y-106344949D01*
X147419223Y-106294781D01*
X147224534Y-106231522D01*
X147049995Y-106203878D01*
X147022352Y-106199500D01*
X146817648Y-106199500D01*
X146793329Y-106203351D01*
X146615465Y-106231522D01*
X146420776Y-106294781D01*
X146238386Y-106387715D01*
X146072786Y-106508028D01*
X145928028Y-106652786D01*
X145807715Y-106818386D01*
X145714781Y-107000776D01*
X145651522Y-107195465D01*
X145619500Y-107397648D01*
X143960500Y-107397648D01*
X143947672Y-107316657D01*
X143928477Y-107195465D01*
X143865218Y-107000776D01*
X143788407Y-106850028D01*
X143772287Y-106818390D01*
X143764556Y-106807749D01*
X143651971Y-106652786D01*
X143507213Y-106508028D01*
X143341613Y-106387715D01*
X143341612Y-106387714D01*
X143341610Y-106387713D01*
X143257681Y-106344949D01*
X143159223Y-106294781D01*
X142964534Y-106231522D01*
X142789995Y-106203878D01*
X142762352Y-106199500D01*
X142557648Y-106199500D01*
X142533329Y-106203351D01*
X142355465Y-106231522D01*
X142160776Y-106294781D01*
X141978386Y-106387715D01*
X141812786Y-106508028D01*
X141668028Y-106652786D01*
X141547715Y-106818386D01*
X141454781Y-107000776D01*
X141391522Y-107195465D01*
X141359500Y-107397648D01*
X133800500Y-107397648D01*
X133787672Y-107316657D01*
X133768477Y-107195465D01*
X133705218Y-107000776D01*
X133628407Y-106850028D01*
X133612287Y-106818390D01*
X133604556Y-106807749D01*
X133491971Y-106652786D01*
X133347213Y-106508028D01*
X133181613Y-106387715D01*
X133181612Y-106387714D01*
X133181610Y-106387713D01*
X133097681Y-106344949D01*
X132999223Y-106294781D01*
X132804534Y-106231522D01*
X132629995Y-106203878D01*
X132602352Y-106199500D01*
X132397648Y-106199500D01*
X132373329Y-106203351D01*
X132195465Y-106231522D01*
X132000776Y-106294781D01*
X131818386Y-106387715D01*
X131652786Y-106508028D01*
X131508028Y-106652786D01*
X131387715Y-106818386D01*
X131294781Y-107000776D01*
X131231522Y-107195465D01*
X131199500Y-107397648D01*
X123475500Y-107397648D01*
X123475500Y-107393713D01*
X123442246Y-107183757D01*
X123376557Y-106981588D01*
X123280051Y-106792184D01*
X123280049Y-106792181D01*
X123280048Y-106792179D01*
X123155109Y-106620213D01*
X123004786Y-106469890D01*
X122832820Y-106344951D01*
X122643414Y-106248444D01*
X122643413Y-106248443D01*
X122643412Y-106248443D01*
X122441243Y-106182754D01*
X122441241Y-106182753D01*
X122441240Y-106182753D01*
X122279957Y-106157208D01*
X122231287Y-106149500D01*
X121768713Y-106149500D01*
X121720042Y-106157208D01*
X121558760Y-106182753D01*
X121356585Y-106248444D01*
X121167179Y-106344951D01*
X120995213Y-106469890D01*
X120844890Y-106620213D01*
X120719951Y-106792179D01*
X120623444Y-106981585D01*
X120557753Y-107183760D01*
X120524500Y-107393713D01*
X118000500Y-107393713D01*
X118000500Y-102897648D01*
X131119500Y-102897648D01*
X131119500Y-103102351D01*
X131151522Y-103304534D01*
X131214781Y-103499223D01*
X131307715Y-103681613D01*
X131428028Y-103847213D01*
X131572786Y-103991971D01*
X131727749Y-104104556D01*
X131738390Y-104112287D01*
X131854607Y-104171503D01*
X131920776Y-104205218D01*
X131920778Y-104205218D01*
X131920781Y-104205220D01*
X132025137Y-104239127D01*
X132115465Y-104268477D01*
X132216557Y-104284488D01*
X132317648Y-104300500D01*
X132317649Y-104300500D01*
X132522351Y-104300500D01*
X132522352Y-104300500D01*
X132724534Y-104268477D01*
X132919219Y-104205220D01*
X133101610Y-104112287D01*
X133194590Y-104044732D01*
X133267213Y-103991971D01*
X133267215Y-103991968D01*
X133267219Y-103991966D01*
X133411966Y-103847219D01*
X133411968Y-103847215D01*
X133411971Y-103847213D01*
X133464732Y-103774590D01*
X133532287Y-103681610D01*
X133625220Y-103499219D01*
X133688477Y-103304534D01*
X133720500Y-103102352D01*
X133720500Y-102897648D01*
X133697114Y-102750000D01*
X141303391Y-102750000D01*
X142264314Y-102750000D01*
X142259920Y-102754394D01*
X142207259Y-102845606D01*
X142180000Y-102947339D01*
X142180000Y-103052661D01*
X142207259Y-103154394D01*
X142259920Y-103245606D01*
X142264314Y-103250000D01*
X141303391Y-103250000D01*
X141312009Y-103304413D01*
X141375244Y-103499029D01*
X141468140Y-103681349D01*
X141588417Y-103846894D01*
X141588417Y-103846895D01*
X141733104Y-103991582D01*
X141898650Y-104111859D01*
X142080968Y-104204754D01*
X142275578Y-104267988D01*
X142330000Y-104276607D01*
X142330000Y-103315686D01*
X142334394Y-103320080D01*
X142425606Y-103372741D01*
X142527339Y-103400000D01*
X142632661Y-103400000D01*
X142734394Y-103372741D01*
X142825606Y-103320080D01*
X142830000Y-103315686D01*
X142830000Y-104276606D01*
X142884421Y-104267988D01*
X143079031Y-104204754D01*
X143261349Y-104111859D01*
X143426894Y-103991582D01*
X143426895Y-103991582D01*
X143571582Y-103846895D01*
X143571582Y-103846894D01*
X143691859Y-103681349D01*
X143784755Y-103499029D01*
X143847990Y-103304413D01*
X143856609Y-103250000D01*
X142895686Y-103250000D01*
X142900080Y-103245606D01*
X142952741Y-103154394D01*
X142980000Y-103052661D01*
X142980000Y-102947339D01*
X142952741Y-102845606D01*
X142900080Y-102754394D01*
X142895686Y-102750000D01*
X143856609Y-102750000D01*
X143847990Y-102695586D01*
X143784755Y-102500970D01*
X143691859Y-102318650D01*
X143571582Y-102153105D01*
X143571582Y-102153104D01*
X143426895Y-102008417D01*
X143261349Y-101888140D01*
X143079029Y-101795244D01*
X142884413Y-101732009D01*
X142830000Y-101723390D01*
X142830000Y-102684314D01*
X142825606Y-102679920D01*
X142734394Y-102627259D01*
X142632661Y-102600000D01*
X142527339Y-102600000D01*
X142425606Y-102627259D01*
X142334394Y-102679920D01*
X142330000Y-102684314D01*
X142330000Y-101723390D01*
X142275586Y-101732009D01*
X142080970Y-101795244D01*
X141898650Y-101888140D01*
X141733105Y-102008417D01*
X141733104Y-102008417D01*
X141588417Y-102153104D01*
X141588417Y-102153105D01*
X141468140Y-102318650D01*
X141375244Y-102500970D01*
X141312009Y-102695586D01*
X141303391Y-102750000D01*
X133697114Y-102750000D01*
X133688477Y-102695466D01*
X133625220Y-102500781D01*
X133625218Y-102500778D01*
X133625218Y-102500776D01*
X133591503Y-102434607D01*
X133532287Y-102318390D01*
X133507560Y-102284356D01*
X133411971Y-102152786D01*
X133267213Y-102008028D01*
X133101613Y-101887715D01*
X133101612Y-101887714D01*
X133101610Y-101887713D01*
X133044653Y-101858691D01*
X132919223Y-101794781D01*
X132724534Y-101731522D01*
X132549995Y-101703878D01*
X132522352Y-101699500D01*
X132317648Y-101699500D01*
X132293329Y-101703351D01*
X132115465Y-101731522D01*
X131920776Y-101794781D01*
X131738386Y-101887715D01*
X131572786Y-102008028D01*
X131428028Y-102152786D01*
X131307715Y-102318386D01*
X131214781Y-102500776D01*
X131151522Y-102695465D01*
X131119500Y-102897648D01*
X118000500Y-102897648D01*
X118000500Y-95893713D01*
X120499500Y-95893713D01*
X120499500Y-96106287D01*
X120532754Y-96316243D01*
X120566182Y-96419124D01*
X120598444Y-96518414D01*
X120694951Y-96707820D01*
X120819890Y-96879786D01*
X120970208Y-97030104D01*
X120970214Y-97030109D01*
X121134793Y-97149682D01*
X121177459Y-97205011D01*
X121183438Y-97274625D01*
X121150833Y-97336420D01*
X121134793Y-97350318D01*
X120970214Y-97469890D01*
X120970209Y-97469894D01*
X120819890Y-97620213D01*
X120694951Y-97792179D01*
X120598444Y-97981585D01*
X120532753Y-98183760D01*
X120511771Y-98316239D01*
X120499500Y-98393713D01*
X120499500Y-98606287D01*
X120532754Y-98816243D01*
X120553402Y-98879792D01*
X120598444Y-99018414D01*
X120694951Y-99207820D01*
X120819890Y-99379786D01*
X120959068Y-99518964D01*
X120992553Y-99580287D01*
X120987569Y-99649979D01*
X120945697Y-99705912D01*
X120936484Y-99712183D01*
X120781659Y-99807680D01*
X120781655Y-99807683D01*
X120657684Y-99931654D01*
X120565643Y-100080875D01*
X120565641Y-100080880D01*
X120510494Y-100247302D01*
X120510493Y-100247309D01*
X120500000Y-100350013D01*
X120500000Y-100750000D01*
X121570854Y-100750000D01*
X121532370Y-100816657D01*
X121500000Y-100937465D01*
X121500000Y-101062535D01*
X121532370Y-101183343D01*
X121570854Y-101250000D01*
X120500001Y-101250000D01*
X120500001Y-101649986D01*
X120510494Y-101752697D01*
X120565641Y-101919119D01*
X120565643Y-101919124D01*
X120657684Y-102068345D01*
X120781654Y-102192315D01*
X120930875Y-102284356D01*
X120930880Y-102284358D01*
X121097302Y-102339505D01*
X121097309Y-102339506D01*
X121200019Y-102349999D01*
X121724999Y-102349999D01*
X121725000Y-102349998D01*
X121725000Y-101404145D01*
X121791657Y-101442630D01*
X121912465Y-101475000D01*
X122037535Y-101475000D01*
X122158343Y-101442630D01*
X122225000Y-101404145D01*
X122225000Y-102349999D01*
X122749972Y-102349999D01*
X122749986Y-102349998D01*
X122852697Y-102339505D01*
X123019119Y-102284358D01*
X123019124Y-102284356D01*
X123168345Y-102192315D01*
X123292315Y-102068345D01*
X123384356Y-101919124D01*
X123384358Y-101919119D01*
X123439505Y-101752697D01*
X123439506Y-101752690D01*
X123449999Y-101649986D01*
X123450000Y-101649973D01*
X123450000Y-101250000D01*
X122379146Y-101250000D01*
X122417630Y-101183343D01*
X122450000Y-101062535D01*
X122450000Y-100937465D01*
X122417630Y-100816657D01*
X122379146Y-100750000D01*
X123449999Y-100750000D01*
X123449999Y-100350028D01*
X123449998Y-100350013D01*
X123439505Y-100247302D01*
X123384358Y-100080880D01*
X123384356Y-100080875D01*
X123292315Y-99931654D01*
X123168345Y-99807684D01*
X123013515Y-99712184D01*
X122966791Y-99660236D01*
X122955568Y-99591273D01*
X122983412Y-99527191D01*
X122990909Y-99518986D01*
X123130104Y-99379792D01*
X123255051Y-99207816D01*
X123351557Y-99018412D01*
X123417246Y-98816243D01*
X123450500Y-98606287D01*
X123450500Y-98393713D01*
X123417246Y-98183757D01*
X123351557Y-97981588D01*
X123306783Y-97893713D01*
X168499500Y-97893713D01*
X168499500Y-98106286D01*
X168532753Y-98316239D01*
X168598444Y-98518414D01*
X168694951Y-98707820D01*
X168819890Y-98879786D01*
X168970209Y-99030105D01*
X168970214Y-99030109D01*
X169134793Y-99149682D01*
X169177459Y-99205011D01*
X169183438Y-99274625D01*
X169150833Y-99336420D01*
X169134793Y-99350318D01*
X168970214Y-99469890D01*
X168970209Y-99469894D01*
X168819890Y-99620213D01*
X168694951Y-99792179D01*
X168598444Y-99981585D01*
X168532753Y-100183760D01*
X168499500Y-100393713D01*
X168499500Y-100606286D01*
X168532753Y-100816239D01*
X168598444Y-101018414D01*
X168694951Y-101207820D01*
X168819890Y-101379786D01*
X168970213Y-101530109D01*
X169142179Y-101655048D01*
X169142181Y-101655049D01*
X169142184Y-101655051D01*
X169331588Y-101751557D01*
X169533757Y-101817246D01*
X169743713Y-101850500D01*
X169743714Y-101850500D01*
X170206286Y-101850500D01*
X170206287Y-101850500D01*
X170416243Y-101817246D01*
X170618412Y-101751557D01*
X170807816Y-101655051D01*
X170829789Y-101639086D01*
X170979786Y-101530109D01*
X170979788Y-101530106D01*
X170979792Y-101530104D01*
X171130104Y-101379792D01*
X171130106Y-101379788D01*
X171130109Y-101379786D01*
X171255048Y-101207820D01*
X171255047Y-101207820D01*
X171255051Y-101207816D01*
X171351557Y-101018412D01*
X171417246Y-100816243D01*
X171450500Y-100606287D01*
X171450500Y-100393713D01*
X171417246Y-100183757D01*
X171351557Y-99981588D01*
X171255051Y-99792184D01*
X171255049Y-99792181D01*
X171255048Y-99792179D01*
X171130109Y-99620213D01*
X170979792Y-99469896D01*
X170979784Y-99469890D01*
X170815204Y-99350316D01*
X170772540Y-99294989D01*
X170766561Y-99225376D01*
X170799166Y-99163580D01*
X170815199Y-99149686D01*
X170979792Y-99030104D01*
X171130104Y-98879792D01*
X171130106Y-98879788D01*
X171130109Y-98879786D01*
X171255048Y-98707820D01*
X171255047Y-98707820D01*
X171255051Y-98707816D01*
X171351557Y-98518412D01*
X171417246Y-98316243D01*
X171450500Y-98106287D01*
X171450500Y-97893713D01*
X171417246Y-97683757D01*
X171351557Y-97481588D01*
X171255051Y-97292184D01*
X171255049Y-97292181D01*
X171255048Y-97292179D01*
X171130109Y-97120213D01*
X170990931Y-96981035D01*
X170957446Y-96919712D01*
X170962430Y-96850020D01*
X171004302Y-96794087D01*
X171013516Y-96787815D01*
X171168343Y-96692317D01*
X171292315Y-96568345D01*
X171384356Y-96419124D01*
X171384358Y-96419119D01*
X171439505Y-96252697D01*
X171439506Y-96252690D01*
X171449999Y-96149986D01*
X171450000Y-96149973D01*
X171450000Y-95750000D01*
X170379146Y-95750000D01*
X170417630Y-95683343D01*
X170450000Y-95562535D01*
X170450000Y-95437465D01*
X170417630Y-95316657D01*
X170379146Y-95250000D01*
X171449999Y-95250000D01*
X171449999Y-94850028D01*
X171449998Y-94850013D01*
X171439505Y-94747302D01*
X171384358Y-94580880D01*
X171384356Y-94580875D01*
X171292315Y-94431654D01*
X171168345Y-94307684D01*
X171019124Y-94215643D01*
X171019119Y-94215641D01*
X170852697Y-94160494D01*
X170852690Y-94160493D01*
X170749986Y-94150000D01*
X170225000Y-94150000D01*
X170225000Y-95095854D01*
X170158343Y-95057370D01*
X170037535Y-95025000D01*
X169912465Y-95025000D01*
X169791657Y-95057370D01*
X169725000Y-95095854D01*
X169725000Y-94150000D01*
X169200028Y-94150000D01*
X169200012Y-94150001D01*
X169097302Y-94160494D01*
X168930880Y-94215641D01*
X168930875Y-94215643D01*
X168781654Y-94307684D01*
X168657684Y-94431654D01*
X168565643Y-94580875D01*
X168565641Y-94580880D01*
X168510494Y-94747302D01*
X168510493Y-94747309D01*
X168500000Y-94850013D01*
X168500000Y-95250000D01*
X169570854Y-95250000D01*
X169532370Y-95316657D01*
X169500000Y-95437465D01*
X169500000Y-95562535D01*
X169532370Y-95683343D01*
X169570854Y-95750000D01*
X168500001Y-95750000D01*
X168500001Y-96149986D01*
X168510494Y-96252697D01*
X168565641Y-96419119D01*
X168565643Y-96419124D01*
X168657684Y-96568345D01*
X168781654Y-96692315D01*
X168936484Y-96787815D01*
X168983208Y-96839763D01*
X168994431Y-96908726D01*
X168966587Y-96972808D01*
X168959069Y-96981035D01*
X168819889Y-97120215D01*
X168694951Y-97292179D01*
X168598444Y-97481585D01*
X168532753Y-97683760D01*
X168499500Y-97893713D01*
X123306783Y-97893713D01*
X123255051Y-97792184D01*
X123255049Y-97792181D01*
X123255048Y-97792179D01*
X123130109Y-97620213D01*
X122979792Y-97469896D01*
X122979784Y-97469890D01*
X122815204Y-97350316D01*
X122772540Y-97294989D01*
X122766561Y-97225376D01*
X122799166Y-97163580D01*
X122815199Y-97149686D01*
X122979792Y-97030104D01*
X123130104Y-96879792D01*
X123130106Y-96879788D01*
X123130109Y-96879786D01*
X123255048Y-96707820D01*
X123255047Y-96707820D01*
X123255051Y-96707816D01*
X123351557Y-96518412D01*
X123417246Y-96316243D01*
X123450500Y-96106287D01*
X123450500Y-95893713D01*
X123417246Y-95683757D01*
X123351557Y-95481588D01*
X123255051Y-95292184D01*
X123255049Y-95292181D01*
X123255048Y-95292179D01*
X123130109Y-95120213D01*
X122979786Y-94969890D01*
X122807820Y-94844951D01*
X122618414Y-94748444D01*
X122618413Y-94748443D01*
X122618412Y-94748443D01*
X122416243Y-94682754D01*
X122416241Y-94682753D01*
X122416240Y-94682753D01*
X122254957Y-94657208D01*
X122206287Y-94649500D01*
X121743713Y-94649500D01*
X121695042Y-94657208D01*
X121533760Y-94682753D01*
X121331585Y-94748444D01*
X121142179Y-94844951D01*
X120970213Y-94969890D01*
X120819890Y-95120213D01*
X120694951Y-95292179D01*
X120598444Y-95481585D01*
X120532753Y-95683760D01*
X120506426Y-95849983D01*
X120499500Y-95893713D01*
X118000500Y-95893713D01*
X118000500Y-91393713D01*
X132524500Y-91393713D01*
X132524500Y-91606287D01*
X132557754Y-91816243D01*
X132571486Y-91858507D01*
X132623444Y-92018414D01*
X132719951Y-92207820D01*
X132844890Y-92379786D01*
X132995209Y-92530105D01*
X132995214Y-92530109D01*
X133159793Y-92649682D01*
X133202459Y-92705011D01*
X133208438Y-92774625D01*
X133175833Y-92836420D01*
X133159793Y-92850318D01*
X132995214Y-92969890D01*
X132995209Y-92969894D01*
X132844890Y-93120213D01*
X132719951Y-93292179D01*
X132623444Y-93481585D01*
X132557753Y-93683760D01*
X132524500Y-93893713D01*
X132524500Y-94106286D01*
X132555260Y-94300500D01*
X132557754Y-94316243D01*
X132595253Y-94431654D01*
X132623444Y-94518414D01*
X132719951Y-94707820D01*
X132844890Y-94879786D01*
X132983705Y-95018601D01*
X133017190Y-95079924D01*
X133012206Y-95149616D01*
X132970334Y-95205549D01*
X132961121Y-95211821D01*
X132806342Y-95307289D01*
X132682289Y-95431342D01*
X132590187Y-95580663D01*
X132590186Y-95580666D01*
X132535001Y-95747203D01*
X132535001Y-95747204D01*
X132535000Y-95747204D01*
X132524500Y-95849983D01*
X132524500Y-97150001D01*
X132524501Y-97150018D01*
X132535000Y-97252796D01*
X132535001Y-97252799D01*
X132590185Y-97419331D01*
X132590186Y-97419334D01*
X132682288Y-97568656D01*
X132806344Y-97692712D01*
X132955666Y-97784814D01*
X133122203Y-97839999D01*
X133224991Y-97850500D01*
X134775008Y-97850499D01*
X134877797Y-97839999D01*
X135044334Y-97784814D01*
X135045779Y-97783922D01*
X135046781Y-97783305D01*
X135046785Y-97783302D01*
X135193656Y-97692712D01*
X135317712Y-97568656D01*
X135409814Y-97419334D01*
X135464999Y-97252797D01*
X135469177Y-97211896D01*
X135495573Y-97147207D01*
X135552753Y-97107055D01*
X135592535Y-97100500D01*
X141413331Y-97100500D01*
X141413347Y-97100501D01*
X141420943Y-97100501D01*
X141579054Y-97100501D01*
X141579057Y-97100501D01*
X141731785Y-97059577D01*
X141782833Y-97030104D01*
X141868716Y-96980520D01*
X141980520Y-96868716D01*
X141980520Y-96868714D01*
X141990724Y-96858511D01*
X141990728Y-96858506D01*
X145428081Y-93421153D01*
X148699500Y-93421153D01*
X148699500Y-93578846D01*
X148730261Y-93733489D01*
X148730264Y-93733501D01*
X148790602Y-93879172D01*
X148790609Y-93879185D01*
X148878210Y-94010288D01*
X148878213Y-94010292D01*
X148989707Y-94121786D01*
X148989711Y-94121789D01*
X149120814Y-94209390D01*
X149120827Y-94209397D01*
X149266498Y-94269735D01*
X149266503Y-94269737D01*
X149421153Y-94300499D01*
X149421156Y-94300500D01*
X149421158Y-94300500D01*
X149578844Y-94300500D01*
X149578845Y-94300499D01*
X149733497Y-94269737D01*
X149846166Y-94223067D01*
X149879172Y-94209397D01*
X149879172Y-94209396D01*
X149879179Y-94209394D01*
X150010289Y-94121789D01*
X150121789Y-94010289D01*
X150209394Y-93879179D01*
X150269737Y-93733497D01*
X150289113Y-93636085D01*
X150300638Y-93578150D01*
X150333023Y-93516239D01*
X150334518Y-93514716D01*
X157455521Y-86393713D01*
X168499500Y-86393713D01*
X168499500Y-86606286D01*
X168522221Y-86749744D01*
X168532754Y-86816243D01*
X168566841Y-86921153D01*
X168598444Y-87018414D01*
X168694951Y-87207820D01*
X168819890Y-87379786D01*
X168970209Y-87530105D01*
X168970214Y-87530109D01*
X169134793Y-87649682D01*
X169177459Y-87705011D01*
X169183438Y-87774625D01*
X169150833Y-87836420D01*
X169134793Y-87850318D01*
X168970214Y-87969890D01*
X168970209Y-87969894D01*
X168819890Y-88120213D01*
X168694951Y-88292179D01*
X168598444Y-88481585D01*
X168532753Y-88683760D01*
X168499500Y-88893713D01*
X168499500Y-89106286D01*
X168532753Y-89316239D01*
X168598444Y-89518414D01*
X168694951Y-89707820D01*
X168819890Y-89879786D01*
X168970213Y-90030109D01*
X169142179Y-90155048D01*
X169142181Y-90155049D01*
X169142184Y-90155051D01*
X169331588Y-90251557D01*
X169533757Y-90317246D01*
X169743713Y-90350500D01*
X169743714Y-90350500D01*
X170206286Y-90350500D01*
X170206287Y-90350500D01*
X170416243Y-90317246D01*
X170618412Y-90251557D01*
X170807816Y-90155051D01*
X170829789Y-90139086D01*
X170979786Y-90030109D01*
X170979788Y-90030106D01*
X170979792Y-90030104D01*
X171130104Y-89879792D01*
X171130106Y-89879788D01*
X171130109Y-89879786D01*
X171255048Y-89707820D01*
X171255047Y-89707820D01*
X171255051Y-89707816D01*
X171351557Y-89518412D01*
X171417246Y-89316243D01*
X171450500Y-89106287D01*
X171450500Y-88893713D01*
X171417246Y-88683757D01*
X171351557Y-88481588D01*
X171255051Y-88292184D01*
X171255049Y-88292181D01*
X171255048Y-88292179D01*
X171130109Y-88120213D01*
X170979792Y-87969896D01*
X170979784Y-87969890D01*
X170815204Y-87850316D01*
X170772540Y-87794989D01*
X170766561Y-87725376D01*
X170799166Y-87663580D01*
X170815199Y-87649686D01*
X170979792Y-87530104D01*
X171130104Y-87379792D01*
X171130106Y-87379788D01*
X171130109Y-87379786D01*
X171255048Y-87207820D01*
X171255047Y-87207820D01*
X171255051Y-87207816D01*
X171351557Y-87018412D01*
X171417246Y-86816243D01*
X171450500Y-86606287D01*
X171450500Y-86393713D01*
X171417246Y-86183757D01*
X171351557Y-85981588D01*
X171255051Y-85792184D01*
X171255049Y-85792181D01*
X171255048Y-85792179D01*
X171130109Y-85620213D01*
X170990931Y-85481035D01*
X170957446Y-85419712D01*
X170962430Y-85350020D01*
X171004302Y-85294087D01*
X171013516Y-85287815D01*
X171168343Y-85192317D01*
X171292315Y-85068345D01*
X171384356Y-84919124D01*
X171384358Y-84919119D01*
X171439505Y-84752697D01*
X171439506Y-84752690D01*
X171449999Y-84649986D01*
X171450000Y-84649973D01*
X171450000Y-84250000D01*
X170379146Y-84250000D01*
X170417630Y-84183343D01*
X170450000Y-84062535D01*
X170450000Y-83937465D01*
X170417630Y-83816657D01*
X170379146Y-83750000D01*
X171449999Y-83750000D01*
X171449999Y-83350028D01*
X171449998Y-83350013D01*
X171439505Y-83247302D01*
X171384358Y-83080880D01*
X171384356Y-83080875D01*
X171292315Y-82931654D01*
X171168345Y-82807684D01*
X171019124Y-82715643D01*
X171019119Y-82715641D01*
X170852697Y-82660494D01*
X170852690Y-82660493D01*
X170749986Y-82650000D01*
X170225000Y-82650000D01*
X170225000Y-83595854D01*
X170158343Y-83557370D01*
X170037535Y-83525000D01*
X169912465Y-83525000D01*
X169791657Y-83557370D01*
X169725000Y-83595854D01*
X169725000Y-82650000D01*
X169200028Y-82650000D01*
X169200012Y-82650001D01*
X169097302Y-82660494D01*
X168930880Y-82715641D01*
X168930875Y-82715643D01*
X168781654Y-82807684D01*
X168657684Y-82931654D01*
X168565643Y-83080875D01*
X168565641Y-83080880D01*
X168510494Y-83247302D01*
X168510493Y-83247309D01*
X168500000Y-83350013D01*
X168500000Y-83750000D01*
X169570854Y-83750000D01*
X169532370Y-83816657D01*
X169500000Y-83937465D01*
X169500000Y-84062535D01*
X169532370Y-84183343D01*
X169570854Y-84250000D01*
X168500001Y-84250000D01*
X168500001Y-84649986D01*
X168510494Y-84752697D01*
X168565641Y-84919119D01*
X168565643Y-84919124D01*
X168657684Y-85068345D01*
X168781654Y-85192315D01*
X168936484Y-85287815D01*
X168983208Y-85339763D01*
X168994431Y-85408726D01*
X168966587Y-85472808D01*
X168959069Y-85481035D01*
X168819889Y-85620215D01*
X168694951Y-85792179D01*
X168598444Y-85981585D01*
X168532753Y-86183760D01*
X168499500Y-86393713D01*
X157455521Y-86393713D01*
X165712416Y-78136819D01*
X165773739Y-78103334D01*
X165800097Y-78100500D01*
X168564281Y-78100500D01*
X168631320Y-78120185D01*
X168674765Y-78168205D01*
X168694947Y-78207814D01*
X168694948Y-78207815D01*
X168819890Y-78379786D01*
X168970213Y-78530109D01*
X169142179Y-78655048D01*
X169142181Y-78655049D01*
X169142184Y-78655051D01*
X169331588Y-78751557D01*
X169533757Y-78817246D01*
X169743713Y-78850500D01*
X169743714Y-78850500D01*
X170206286Y-78850500D01*
X170206287Y-78850500D01*
X170416243Y-78817246D01*
X170618412Y-78751557D01*
X170807816Y-78655051D01*
X170829789Y-78639086D01*
X170979786Y-78530109D01*
X170979788Y-78530106D01*
X170979792Y-78530104D01*
X171130104Y-78379792D01*
X171130106Y-78379788D01*
X171130109Y-78379786D01*
X171255048Y-78207820D01*
X171255047Y-78207820D01*
X171255051Y-78207816D01*
X171351557Y-78018412D01*
X171417246Y-77816243D01*
X171450500Y-77606287D01*
X171450500Y-77393713D01*
X171417246Y-77183757D01*
X171351557Y-76981588D01*
X171255051Y-76792184D01*
X171255049Y-76792181D01*
X171255048Y-76792179D01*
X171130109Y-76620213D01*
X170979792Y-76469896D01*
X170979784Y-76469890D01*
X170815204Y-76350316D01*
X170772540Y-76294989D01*
X170766561Y-76225376D01*
X170799166Y-76163580D01*
X170815199Y-76149686D01*
X170979792Y-76030104D01*
X171130104Y-75879792D01*
X171130106Y-75879788D01*
X171130109Y-75879786D01*
X171255048Y-75707820D01*
X171255047Y-75707820D01*
X171255051Y-75707816D01*
X171351557Y-75518412D01*
X171417246Y-75316243D01*
X171450500Y-75106287D01*
X171450500Y-74893713D01*
X171417246Y-74683757D01*
X171351557Y-74481588D01*
X171255051Y-74292184D01*
X171255049Y-74292181D01*
X171255048Y-74292179D01*
X171130109Y-74120213D01*
X170990931Y-73981035D01*
X170957446Y-73919712D01*
X170962430Y-73850020D01*
X171004302Y-73794087D01*
X171013516Y-73787815D01*
X171168343Y-73692317D01*
X171292315Y-73568345D01*
X171384356Y-73419124D01*
X171384358Y-73419119D01*
X171439505Y-73252697D01*
X171439506Y-73252690D01*
X171449999Y-73149986D01*
X171450000Y-73149973D01*
X171450000Y-72750000D01*
X170379146Y-72750000D01*
X170417630Y-72683343D01*
X170450000Y-72562535D01*
X170450000Y-72437465D01*
X170417630Y-72316657D01*
X170379146Y-72250000D01*
X171449999Y-72250000D01*
X171449999Y-71850028D01*
X171449998Y-71850013D01*
X171439505Y-71747302D01*
X171384358Y-71580880D01*
X171384356Y-71580875D01*
X171292315Y-71431654D01*
X171168345Y-71307684D01*
X171019124Y-71215643D01*
X171019119Y-71215641D01*
X170852697Y-71160494D01*
X170852690Y-71160493D01*
X170749986Y-71150000D01*
X170225000Y-71150000D01*
X170225000Y-72095854D01*
X170158343Y-72057370D01*
X170037535Y-72025000D01*
X169912465Y-72025000D01*
X169791657Y-72057370D01*
X169725000Y-72095854D01*
X169725000Y-71150000D01*
X169200028Y-71150000D01*
X169200012Y-71150001D01*
X169097302Y-71160494D01*
X168930880Y-71215641D01*
X168930875Y-71215643D01*
X168781654Y-71307684D01*
X168657684Y-71431654D01*
X168565643Y-71580875D01*
X168565641Y-71580880D01*
X168510494Y-71747302D01*
X168510493Y-71747309D01*
X168500000Y-71850013D01*
X168500000Y-72250000D01*
X169570854Y-72250000D01*
X169532370Y-72316657D01*
X169500000Y-72437465D01*
X169500000Y-72562535D01*
X169532370Y-72683343D01*
X169570854Y-72750000D01*
X168500001Y-72750000D01*
X168500001Y-73149986D01*
X168510494Y-73252697D01*
X168565641Y-73419119D01*
X168565643Y-73419124D01*
X168657684Y-73568345D01*
X168781654Y-73692315D01*
X168936484Y-73787815D01*
X168983208Y-73839763D01*
X168994431Y-73908726D01*
X168966587Y-73972808D01*
X168959069Y-73981035D01*
X168819889Y-74120215D01*
X168694951Y-74292179D01*
X168598444Y-74481585D01*
X168532753Y-74683760D01*
X168499500Y-74893713D01*
X168499500Y-75106286D01*
X168529387Y-75294988D01*
X168532754Y-75316243D01*
X168539311Y-75336424D01*
X168598444Y-75518414D01*
X168694951Y-75707820D01*
X168819890Y-75879786D01*
X168970209Y-76030105D01*
X168970214Y-76030109D01*
X169134793Y-76149682D01*
X169177459Y-76205011D01*
X169183438Y-76274625D01*
X169150833Y-76336420D01*
X169134793Y-76350318D01*
X168970214Y-76469890D01*
X168970209Y-76469894D01*
X168819890Y-76620213D01*
X168694948Y-76792184D01*
X168694947Y-76792185D01*
X168674765Y-76831795D01*
X168626791Y-76882591D01*
X168564281Y-76899500D01*
X165586669Y-76899500D01*
X165586653Y-76899499D01*
X165579057Y-76899499D01*
X165420943Y-76899499D01*
X165313587Y-76928265D01*
X165268210Y-76940424D01*
X165268209Y-76940425D01*
X165218096Y-76969359D01*
X165218095Y-76969360D01*
X165174689Y-76994420D01*
X165131285Y-77019479D01*
X165131282Y-77019481D01*
X149485339Y-92665425D01*
X149424016Y-92698910D01*
X149421850Y-92699361D01*
X149266508Y-92730261D01*
X149266498Y-92730264D01*
X149120827Y-92790602D01*
X149120814Y-92790609D01*
X148989711Y-92878210D01*
X148989707Y-92878213D01*
X148878213Y-92989707D01*
X148878210Y-92989711D01*
X148790609Y-93120814D01*
X148790602Y-93120827D01*
X148730264Y-93266498D01*
X148730261Y-93266510D01*
X148699500Y-93421153D01*
X145428081Y-93421153D01*
X156858506Y-81990728D01*
X156858511Y-81990724D01*
X156868714Y-81980520D01*
X156868716Y-81980520D01*
X156980520Y-81868716D01*
X157059577Y-81731784D01*
X157100500Y-81579057D01*
X157100500Y-72420943D01*
X157059577Y-72268216D01*
X157025010Y-72208343D01*
X156980524Y-72131290D01*
X156980521Y-72131286D01*
X156980520Y-72131284D01*
X156868716Y-72019480D01*
X156868715Y-72019479D01*
X156864385Y-72015149D01*
X156864374Y-72015139D01*
X154452798Y-69603563D01*
X154419313Y-69542240D01*
X154422547Y-69477566D01*
X154463553Y-69351368D01*
X154483705Y-69224126D01*
X154500500Y-69118097D01*
X154500500Y-68881902D01*
X154463553Y-68648631D01*
X154390566Y-68424003D01*
X154283342Y-68213566D01*
X154144517Y-68022490D01*
X153977510Y-67855483D01*
X153970401Y-67850318D01*
X153927735Y-67794988D01*
X153921756Y-67725375D01*
X153954362Y-67663580D01*
X153970401Y-67649682D01*
X153970500Y-67649609D01*
X153977510Y-67644517D01*
X154144517Y-67477510D01*
X154283343Y-67286433D01*
X154390568Y-67075992D01*
X154463553Y-66851368D01*
X154500500Y-66618097D01*
X154500500Y-66381902D01*
X154463553Y-66148631D01*
X154390566Y-65924003D01*
X154283342Y-65713566D01*
X154144517Y-65522490D01*
X153977510Y-65355483D01*
X153921259Y-65314614D01*
X153878595Y-65259284D01*
X153873902Y-65227455D01*
X153137574Y-64491128D01*
X153196853Y-64475245D01*
X153313147Y-64408102D01*
X153408102Y-64313147D01*
X153475245Y-64196853D01*
X153491128Y-64137574D01*
X154222658Y-64869105D01*
X154222658Y-64869104D01*
X154282914Y-64786169D01*
X154282918Y-64786163D01*
X154390102Y-64575802D01*
X154463065Y-64351247D01*
X154500000Y-64118052D01*
X154500000Y-63881947D01*
X154463065Y-63648752D01*
X154390102Y-63424197D01*
X154282914Y-63213828D01*
X154222658Y-63130894D01*
X154222658Y-63130893D01*
X153491128Y-63862424D01*
X153475245Y-63803147D01*
X153408102Y-63686853D01*
X153313147Y-63591898D01*
X153196853Y-63524755D01*
X153137574Y-63508871D01*
X153875716Y-62770729D01*
X153884891Y-62727054D01*
X153921257Y-62685386D01*
X153977510Y-62644517D01*
X154144517Y-62477510D01*
X154283343Y-62286433D01*
X154390568Y-62075992D01*
X154463553Y-61851368D01*
X154497852Y-61634813D01*
X154500500Y-61618097D01*
X154500500Y-61381908D01*
X154500375Y-61381120D01*
X154500375Y-61381115D01*
X154500374Y-61381110D01*
X154497852Y-61365186D01*
X167599500Y-61365186D01*
X167599500Y-61634813D01*
X167629686Y-61902719D01*
X167629688Y-61902731D01*
X167689684Y-62165594D01*
X167689687Y-62165602D01*
X167778734Y-62420082D01*
X167895714Y-62662994D01*
X167895716Y-62662997D01*
X168039162Y-62891289D01*
X168207266Y-63102085D01*
X168397915Y-63292734D01*
X168608711Y-63460838D01*
X168837003Y-63604284D01*
X169079921Y-63721267D01*
X169271049Y-63788145D01*
X169334397Y-63810312D01*
X169334405Y-63810315D01*
X169334408Y-63810315D01*
X169334409Y-63810316D01*
X169597268Y-63870312D01*
X169865187Y-63900499D01*
X169865188Y-63900500D01*
X169865191Y-63900500D01*
X170134812Y-63900500D01*
X170134812Y-63900499D01*
X170402732Y-63870312D01*
X170665591Y-63810316D01*
X170920079Y-63721267D01*
X171162997Y-63604284D01*
X171391289Y-63460838D01*
X171602085Y-63292734D01*
X171792734Y-63102085D01*
X171960838Y-62891289D01*
X172104284Y-62662997D01*
X172221267Y-62420079D01*
X172310316Y-62165591D01*
X172370312Y-61902732D01*
X172400500Y-61634809D01*
X172400500Y-61365191D01*
X172370312Y-61097268D01*
X172310316Y-60834409D01*
X172221267Y-60579921D01*
X172113184Y-60355485D01*
X172104285Y-60337005D01*
X172028665Y-60216657D01*
X171960838Y-60108711D01*
X171792734Y-59897915D01*
X171602085Y-59707266D01*
X171391289Y-59539162D01*
X171162997Y-59395716D01*
X171162994Y-59395714D01*
X170920082Y-59278734D01*
X170665602Y-59189687D01*
X170665594Y-59189684D01*
X170468446Y-59144687D01*
X170402732Y-59129688D01*
X170402728Y-59129687D01*
X170402719Y-59129686D01*
X170134813Y-59099500D01*
X170134809Y-59099500D01*
X169865191Y-59099500D01*
X169865186Y-59099500D01*
X169597280Y-59129686D01*
X169597268Y-59129688D01*
X169334405Y-59189684D01*
X169334397Y-59189687D01*
X169079917Y-59278734D01*
X168837005Y-59395714D01*
X168608712Y-59539161D01*
X168397915Y-59707265D01*
X168207265Y-59897915D01*
X168039161Y-60108712D01*
X167895714Y-60337005D01*
X167778734Y-60579917D01*
X167689687Y-60834397D01*
X167689684Y-60834405D01*
X167629688Y-61097268D01*
X167629686Y-61097280D01*
X167599500Y-61365186D01*
X154497852Y-61365186D01*
X154488718Y-61307520D01*
X154463553Y-61148632D01*
X154390568Y-60924008D01*
X154390566Y-60924005D01*
X154390566Y-60924003D01*
X154283342Y-60713566D01*
X154144517Y-60522490D01*
X153977510Y-60355483D01*
X153786433Y-60216657D01*
X153575996Y-60109433D01*
X153351368Y-60036446D01*
X153118097Y-59999500D01*
X153118092Y-59999500D01*
X152881908Y-59999500D01*
X152881903Y-59999500D01*
X152648631Y-60036446D01*
X152424003Y-60109433D01*
X152213566Y-60216657D01*
X152104550Y-60295862D01*
X152022490Y-60355483D01*
X152022488Y-60355485D01*
X152022487Y-60355485D01*
X151855485Y-60522487D01*
X151855485Y-60522488D01*
X151855483Y-60522490D01*
X151813760Y-60579917D01*
X151716657Y-60713566D01*
X151609433Y-60924003D01*
X151536446Y-61148631D01*
X151499500Y-61381902D01*
X151499500Y-61618097D01*
X151536446Y-61851368D01*
X151609433Y-62075996D01*
X151716657Y-62286433D01*
X151855483Y-62477510D01*
X152022490Y-62644517D01*
X152078739Y-62685384D01*
X152121403Y-62740713D01*
X152126095Y-62772542D01*
X152862425Y-63508871D01*
X152803147Y-63524755D01*
X152686853Y-63591898D01*
X152591898Y-63686853D01*
X152524755Y-63803147D01*
X152508871Y-63862425D01*
X151777340Y-63130894D01*
X151717084Y-63213830D01*
X151609897Y-63424197D01*
X151536934Y-63648752D01*
X151500000Y-63881947D01*
X151500000Y-64118052D01*
X151536934Y-64351247D01*
X151609897Y-64575802D01*
X151717087Y-64786174D01*
X151777338Y-64869104D01*
X151777340Y-64869105D01*
X152508871Y-64137574D01*
X152524755Y-64196853D01*
X152591898Y-64313147D01*
X152686853Y-64408102D01*
X152803147Y-64475245D01*
X152862425Y-64491128D01*
X152124280Y-65229271D01*
X152115105Y-65272947D01*
X152078739Y-65314615D01*
X152022490Y-65355482D01*
X151855485Y-65522487D01*
X151855485Y-65522488D01*
X151855483Y-65522490D01*
X151795862Y-65604550D01*
X151716657Y-65713566D01*
X151609433Y-65924003D01*
X151536446Y-66148631D01*
X151499500Y-66381902D01*
X151499500Y-66618097D01*
X151536446Y-66851368D01*
X151609433Y-67075996D01*
X151716657Y-67286433D01*
X151855483Y-67477510D01*
X151855485Y-67477512D01*
X152022490Y-67644517D01*
X152029603Y-67649685D01*
X152072266Y-67705017D01*
X152078242Y-67774630D01*
X152045634Y-67836424D01*
X152029603Y-67850315D01*
X152022490Y-67855482D01*
X151855485Y-68022487D01*
X151855485Y-68022488D01*
X151855483Y-68022490D01*
X151795862Y-68104550D01*
X151716657Y-68213566D01*
X151609433Y-68424003D01*
X151536446Y-68648631D01*
X151499500Y-68881902D01*
X151499500Y-69118097D01*
X151536446Y-69351368D01*
X151609433Y-69575996D01*
X151716657Y-69786433D01*
X151855483Y-69977510D01*
X151855485Y-69977512D01*
X152022490Y-70144517D01*
X152029603Y-70149685D01*
X152072266Y-70205017D01*
X152078242Y-70274630D01*
X152045634Y-70336424D01*
X152029603Y-70350315D01*
X152022490Y-70355482D01*
X151855485Y-70522487D01*
X151855485Y-70522488D01*
X151855483Y-70522490D01*
X151795862Y-70604550D01*
X151716657Y-70713566D01*
X151609433Y-70924003D01*
X151536446Y-71148631D01*
X151499500Y-71381902D01*
X151499500Y-71618097D01*
X151536446Y-71851364D01*
X151536446Y-71851365D01*
X151577450Y-71977563D01*
X151579445Y-72047405D01*
X151547200Y-72103562D01*
X138134753Y-85516010D01*
X138134747Y-85516016D01*
X138131286Y-85519478D01*
X138131284Y-85519480D01*
X138019480Y-85631284D01*
X137989764Y-85682754D01*
X137940423Y-85768215D01*
X137899499Y-85920943D01*
X137899499Y-85920945D01*
X137899499Y-86089046D01*
X137899500Y-86089059D01*
X137899500Y-86420234D01*
X137879815Y-86487273D01*
X137878602Y-86489125D01*
X137790609Y-86620814D01*
X137790602Y-86620827D01*
X137730264Y-86766498D01*
X137730261Y-86766510D01*
X137699500Y-86921153D01*
X137699500Y-87078846D01*
X137730261Y-87233489D01*
X137730264Y-87233501D01*
X137790602Y-87379172D01*
X137790609Y-87379185D01*
X137878210Y-87510288D01*
X137878213Y-87510292D01*
X137989707Y-87621786D01*
X137989711Y-87621789D01*
X138120814Y-87709390D01*
X138120821Y-87709394D01*
X138176030Y-87732262D01*
X138230433Y-87776102D01*
X138252499Y-87842396D01*
X138235221Y-87910095D01*
X138216259Y-87934504D01*
X135415758Y-90735005D01*
X135354435Y-90768490D01*
X135284743Y-90763506D01*
X135228810Y-90721634D01*
X135227758Y-90720209D01*
X135155107Y-90620213D01*
X135155104Y-90620208D01*
X135004792Y-90469896D01*
X135004786Y-90469890D01*
X134832820Y-90344951D01*
X134643414Y-90248444D01*
X134643413Y-90248443D01*
X134643412Y-90248443D01*
X134441243Y-90182754D01*
X134441241Y-90182753D01*
X134441240Y-90182753D01*
X134234355Y-90149986D01*
X134231287Y-90149500D01*
X133768713Y-90149500D01*
X133765645Y-90149986D01*
X133558760Y-90182753D01*
X133356585Y-90248444D01*
X133167179Y-90344951D01*
X132995213Y-90469890D01*
X132844890Y-90620213D01*
X132719951Y-90792179D01*
X132623444Y-90981585D01*
X132557753Y-91183760D01*
X132524500Y-91393713D01*
X118000500Y-91393713D01*
X118000500Y-84393713D01*
X120524500Y-84393713D01*
X120524500Y-84606287D01*
X120557754Y-84816243D01*
X120591182Y-84919124D01*
X120623444Y-85018414D01*
X120719951Y-85207820D01*
X120844890Y-85379786D01*
X120995209Y-85530105D01*
X120995214Y-85530109D01*
X121159793Y-85649682D01*
X121202459Y-85705011D01*
X121208438Y-85774625D01*
X121175833Y-85836420D01*
X121159793Y-85850318D01*
X120995214Y-85969890D01*
X120995209Y-85969894D01*
X120844890Y-86120213D01*
X120719951Y-86292179D01*
X120623444Y-86481585D01*
X120557753Y-86683760D01*
X120547182Y-86750505D01*
X120524500Y-86893713D01*
X120524500Y-87106287D01*
X120557754Y-87316243D01*
X120620803Y-87510288D01*
X120623444Y-87518414D01*
X120719951Y-87707820D01*
X120844890Y-87879786D01*
X120984068Y-88018964D01*
X121017553Y-88080287D01*
X121012569Y-88149979D01*
X120970697Y-88205912D01*
X120961484Y-88212183D01*
X120806659Y-88307680D01*
X120806655Y-88307683D01*
X120682684Y-88431654D01*
X120590643Y-88580875D01*
X120590641Y-88580880D01*
X120535494Y-88747302D01*
X120535493Y-88747309D01*
X120525000Y-88850013D01*
X120525000Y-89250000D01*
X121595854Y-89250000D01*
X121557370Y-89316657D01*
X121525000Y-89437465D01*
X121525000Y-89562535D01*
X121557370Y-89683343D01*
X121595854Y-89750000D01*
X120525001Y-89750000D01*
X120525001Y-90149986D01*
X120535494Y-90252697D01*
X120590641Y-90419119D01*
X120590643Y-90419124D01*
X120682684Y-90568345D01*
X120806654Y-90692315D01*
X120955875Y-90784356D01*
X120955880Y-90784358D01*
X121122302Y-90839505D01*
X121122309Y-90839506D01*
X121225019Y-90849999D01*
X121749999Y-90849999D01*
X121750000Y-90849998D01*
X121750000Y-89904145D01*
X121816657Y-89942630D01*
X121937465Y-89975000D01*
X122062535Y-89975000D01*
X122183343Y-89942630D01*
X122250000Y-89904145D01*
X122250000Y-90849999D01*
X122774972Y-90849999D01*
X122774986Y-90849998D01*
X122877697Y-90839505D01*
X123044119Y-90784358D01*
X123044124Y-90784356D01*
X123193345Y-90692315D01*
X123317315Y-90568345D01*
X123409356Y-90419124D01*
X123409358Y-90419119D01*
X123464505Y-90252697D01*
X123464506Y-90252690D01*
X123474999Y-90149986D01*
X123475000Y-90149973D01*
X123475000Y-89750000D01*
X122404146Y-89750000D01*
X122442630Y-89683343D01*
X122475000Y-89562535D01*
X122475000Y-89437465D01*
X122442630Y-89316657D01*
X122404146Y-89250000D01*
X123474999Y-89250000D01*
X123474999Y-88850028D01*
X123474998Y-88850013D01*
X123464505Y-88747302D01*
X123409358Y-88580880D01*
X123409356Y-88580875D01*
X123317315Y-88431654D01*
X123193345Y-88307684D01*
X123038515Y-88212184D01*
X122991791Y-88160236D01*
X122980568Y-88091273D01*
X123008412Y-88027191D01*
X123015909Y-88018986D01*
X123155104Y-87879792D01*
X123280051Y-87707816D01*
X123376557Y-87518412D01*
X123442246Y-87316243D01*
X123475500Y-87106287D01*
X123475500Y-86893713D01*
X123442246Y-86683757D01*
X123376557Y-86481588D01*
X123280051Y-86292184D01*
X123280049Y-86292181D01*
X123280048Y-86292179D01*
X123155109Y-86120213D01*
X123004792Y-85969896D01*
X122937416Y-85920945D01*
X122840204Y-85850316D01*
X122797540Y-85794989D01*
X122791561Y-85725376D01*
X122824166Y-85663580D01*
X122840199Y-85649686D01*
X123004792Y-85530104D01*
X123155104Y-85379792D01*
X123155106Y-85379788D01*
X123155109Y-85379786D01*
X123280048Y-85207820D01*
X123280047Y-85207820D01*
X123280051Y-85207816D01*
X123376557Y-85018412D01*
X123442246Y-84816243D01*
X123475500Y-84606287D01*
X123475500Y-84393713D01*
X123442246Y-84183757D01*
X123376557Y-83981588D01*
X123280051Y-83792184D01*
X123280049Y-83792181D01*
X123280048Y-83792179D01*
X123155109Y-83620213D01*
X123004786Y-83469890D01*
X122832820Y-83344951D01*
X122643414Y-83248444D01*
X122643413Y-83248443D01*
X122643412Y-83248443D01*
X122441243Y-83182754D01*
X122441241Y-83182753D01*
X122441240Y-83182753D01*
X122279957Y-83157208D01*
X122231287Y-83149500D01*
X121768713Y-83149500D01*
X121720042Y-83157208D01*
X121558760Y-83182753D01*
X121356585Y-83248444D01*
X121167179Y-83344951D01*
X120995213Y-83469890D01*
X120844890Y-83620213D01*
X120719951Y-83792179D01*
X120623444Y-83981585D01*
X120557753Y-84183760D01*
X120547262Y-84250000D01*
X120524500Y-84393713D01*
X118000500Y-84393713D01*
X118000500Y-72893713D01*
X120524500Y-72893713D01*
X120524500Y-73106286D01*
X120541491Y-73213567D01*
X120557754Y-73316243D01*
X120591182Y-73419124D01*
X120623444Y-73518414D01*
X120719951Y-73707820D01*
X120844890Y-73879786D01*
X120995209Y-74030105D01*
X120995214Y-74030109D01*
X121159793Y-74149682D01*
X121202459Y-74205011D01*
X121208438Y-74274625D01*
X121175833Y-74336420D01*
X121159793Y-74350318D01*
X120995214Y-74469890D01*
X120995209Y-74469894D01*
X120844890Y-74620213D01*
X120719951Y-74792179D01*
X120623444Y-74981585D01*
X120557753Y-75183760D01*
X120524500Y-75393713D01*
X120524500Y-75606286D01*
X120541491Y-75713567D01*
X120557754Y-75816243D01*
X120578402Y-75879792D01*
X120623444Y-76018414D01*
X120719951Y-76207820D01*
X120844890Y-76379786D01*
X120984068Y-76518964D01*
X121017553Y-76580287D01*
X121012569Y-76649979D01*
X120970697Y-76705912D01*
X120961484Y-76712183D01*
X120806659Y-76807680D01*
X120806655Y-76807683D01*
X120682684Y-76931654D01*
X120590643Y-77080875D01*
X120590641Y-77080880D01*
X120535494Y-77247302D01*
X120535493Y-77247309D01*
X120525000Y-77350013D01*
X120525000Y-77750000D01*
X121595854Y-77750000D01*
X121557370Y-77816657D01*
X121525000Y-77937465D01*
X121525000Y-78062535D01*
X121557370Y-78183343D01*
X121595854Y-78250000D01*
X120525001Y-78250000D01*
X120525001Y-78649986D01*
X120535494Y-78752697D01*
X120590641Y-78919119D01*
X120590643Y-78919124D01*
X120682684Y-79068345D01*
X120806654Y-79192315D01*
X120955875Y-79284356D01*
X120955880Y-79284358D01*
X121122302Y-79339505D01*
X121122309Y-79339506D01*
X121225019Y-79349999D01*
X121749999Y-79349999D01*
X121750000Y-79349998D01*
X121750000Y-78404145D01*
X121816657Y-78442630D01*
X121937465Y-78475000D01*
X122062535Y-78475000D01*
X122183343Y-78442630D01*
X122250000Y-78404145D01*
X122250000Y-79349999D01*
X122774972Y-79349999D01*
X122774986Y-79349998D01*
X122877697Y-79339505D01*
X123044119Y-79284358D01*
X123044124Y-79284356D01*
X123193345Y-79192315D01*
X123317315Y-79068345D01*
X123409356Y-78919124D01*
X123409358Y-78919119D01*
X123464505Y-78752697D01*
X123464506Y-78752690D01*
X123474999Y-78649986D01*
X123475000Y-78649973D01*
X123475000Y-78250000D01*
X122404146Y-78250000D01*
X122442630Y-78183343D01*
X122475000Y-78062535D01*
X122475000Y-77937465D01*
X122442630Y-77816657D01*
X122404146Y-77750000D01*
X123474999Y-77750000D01*
X123474999Y-77350028D01*
X123474998Y-77350013D01*
X123464505Y-77247302D01*
X123409358Y-77080880D01*
X123409356Y-77080875D01*
X123317315Y-76931654D01*
X123193345Y-76807684D01*
X123038515Y-76712184D01*
X122991791Y-76660236D01*
X122980568Y-76591273D01*
X123008412Y-76527191D01*
X123015909Y-76518986D01*
X123155104Y-76379792D01*
X123280051Y-76207816D01*
X123376557Y-76018412D01*
X123442246Y-75816243D01*
X123475500Y-75606287D01*
X123475500Y-75393713D01*
X123442246Y-75183757D01*
X123376557Y-74981588D01*
X123280051Y-74792184D01*
X123280049Y-74792181D01*
X123280048Y-74792179D01*
X123155109Y-74620213D01*
X123004792Y-74469896D01*
X123004784Y-74469890D01*
X122840204Y-74350316D01*
X122797540Y-74294989D01*
X122791561Y-74225376D01*
X122824166Y-74163580D01*
X122840199Y-74149686D01*
X123004792Y-74030104D01*
X123155104Y-73879792D01*
X123155106Y-73879788D01*
X123155109Y-73879786D01*
X123280048Y-73707820D01*
X123280047Y-73707820D01*
X123280051Y-73707816D01*
X123376557Y-73518412D01*
X123442246Y-73316243D01*
X123475500Y-73106287D01*
X123475500Y-72893713D01*
X123442246Y-72683757D01*
X123376557Y-72481588D01*
X123280051Y-72292184D01*
X123280049Y-72292181D01*
X123280048Y-72292179D01*
X123155109Y-72120213D01*
X123004786Y-71969890D01*
X122832820Y-71844951D01*
X122643414Y-71748444D01*
X122643413Y-71748443D01*
X122643412Y-71748443D01*
X122441243Y-71682754D01*
X122441241Y-71682753D01*
X122441240Y-71682753D01*
X122279957Y-71657208D01*
X122231287Y-71649500D01*
X121768713Y-71649500D01*
X121720042Y-71657208D01*
X121558760Y-71682753D01*
X121356585Y-71748444D01*
X121167179Y-71844951D01*
X120995213Y-71969890D01*
X120844890Y-72120213D01*
X120719951Y-72292179D01*
X120623444Y-72481585D01*
X120557753Y-72683760D01*
X120524500Y-72893713D01*
X118000500Y-72893713D01*
X118000500Y-61365186D01*
X119599500Y-61365186D01*
X119599500Y-61634813D01*
X119629686Y-61902719D01*
X119629688Y-61902731D01*
X119689684Y-62165594D01*
X119689687Y-62165602D01*
X119778734Y-62420082D01*
X119895714Y-62662994D01*
X119895716Y-62662997D01*
X120039162Y-62891289D01*
X120207266Y-63102085D01*
X120397915Y-63292734D01*
X120608711Y-63460838D01*
X120837003Y-63604284D01*
X121079921Y-63721267D01*
X121271049Y-63788145D01*
X121334397Y-63810312D01*
X121334405Y-63810315D01*
X121334408Y-63810315D01*
X121334409Y-63810316D01*
X121597268Y-63870312D01*
X121865187Y-63900499D01*
X121865188Y-63900500D01*
X121865191Y-63900500D01*
X122134812Y-63900500D01*
X122134812Y-63900499D01*
X122402732Y-63870312D01*
X122665591Y-63810316D01*
X122920079Y-63721267D01*
X123162997Y-63604284D01*
X123391289Y-63460838D01*
X123602085Y-63292734D01*
X123792734Y-63102085D01*
X123960838Y-62891289D01*
X124104284Y-62662997D01*
X124221267Y-62420079D01*
X124310316Y-62165591D01*
X124370312Y-61902732D01*
X124400500Y-61634809D01*
X124400500Y-61381902D01*
X136499500Y-61381902D01*
X136499500Y-61618097D01*
X136536446Y-61851368D01*
X136609433Y-62075996D01*
X136716657Y-62286433D01*
X136855483Y-62477510D01*
X136855485Y-62477512D01*
X137022490Y-62644517D01*
X137029603Y-62649685D01*
X137072266Y-62705017D01*
X137078242Y-62774630D01*
X137045634Y-62836424D01*
X137029603Y-62850315D01*
X137022490Y-62855482D01*
X136855485Y-63022487D01*
X136855485Y-63022488D01*
X136855483Y-63022490D01*
X136797654Y-63102084D01*
X136716657Y-63213566D01*
X136609433Y-63424003D01*
X136536446Y-63648631D01*
X136499500Y-63881902D01*
X136499500Y-64118097D01*
X136536446Y-64351368D01*
X136609433Y-64575996D01*
X136716519Y-64786163D01*
X136716657Y-64786433D01*
X136855483Y-64977510D01*
X136855485Y-64977512D01*
X137022490Y-65144517D01*
X137029603Y-65149685D01*
X137072266Y-65205017D01*
X137078242Y-65274630D01*
X137045634Y-65336424D01*
X137029603Y-65350315D01*
X137022490Y-65355482D01*
X136855485Y-65522487D01*
X136855485Y-65522488D01*
X136855483Y-65522490D01*
X136795862Y-65604550D01*
X136716657Y-65713566D01*
X136609433Y-65924003D01*
X136536446Y-66148631D01*
X136499500Y-66381902D01*
X136499500Y-66618097D01*
X136536446Y-66851368D01*
X136609433Y-67075996D01*
X136716657Y-67286433D01*
X136855483Y-67477510D01*
X136855485Y-67477512D01*
X137022490Y-67644517D01*
X137029603Y-67649685D01*
X137072266Y-67705017D01*
X137078242Y-67774630D01*
X137045634Y-67836424D01*
X137029603Y-67850315D01*
X137022490Y-67855482D01*
X136855485Y-68022487D01*
X136855485Y-68022488D01*
X136855483Y-68022490D01*
X136795862Y-68104550D01*
X136716657Y-68213566D01*
X136609433Y-68424003D01*
X136536446Y-68648631D01*
X136499500Y-68881902D01*
X136499500Y-69118097D01*
X136536446Y-69351368D01*
X136609433Y-69575996D01*
X136716657Y-69786433D01*
X136855483Y-69977510D01*
X136855485Y-69977512D01*
X137022490Y-70144517D01*
X137029603Y-70149685D01*
X137072266Y-70205017D01*
X137078242Y-70274630D01*
X137045634Y-70336424D01*
X137029603Y-70350315D01*
X137022490Y-70355482D01*
X136855485Y-70522487D01*
X136855485Y-70522488D01*
X136855483Y-70522490D01*
X136795862Y-70604550D01*
X136716657Y-70713566D01*
X136609433Y-70924003D01*
X136536446Y-71148631D01*
X136499500Y-71381902D01*
X136499500Y-71618097D01*
X136536446Y-71851368D01*
X136609433Y-72075996D01*
X136676868Y-72208343D01*
X136716657Y-72286433D01*
X136855483Y-72477510D01*
X136855485Y-72477512D01*
X137022490Y-72644517D01*
X137029603Y-72649685D01*
X137072266Y-72705017D01*
X137078242Y-72774630D01*
X137045634Y-72836424D01*
X137029603Y-72850315D01*
X137022490Y-72855482D01*
X136855485Y-73022487D01*
X136855485Y-73022488D01*
X136855483Y-73022490D01*
X136795862Y-73104550D01*
X136716657Y-73213566D01*
X136609433Y-73424003D01*
X136536446Y-73648631D01*
X136499500Y-73881902D01*
X136499500Y-74118097D01*
X136536446Y-74351368D01*
X136609433Y-74575996D01*
X136716657Y-74786433D01*
X136855483Y-74977510D01*
X136855485Y-74977512D01*
X137022490Y-75144517D01*
X137029603Y-75149685D01*
X137072266Y-75205017D01*
X137078242Y-75274630D01*
X137045634Y-75336424D01*
X137029603Y-75350315D01*
X137022490Y-75355482D01*
X136855485Y-75522487D01*
X136855485Y-75522488D01*
X136855483Y-75522490D01*
X136795862Y-75604550D01*
X136716657Y-75713566D01*
X136609433Y-75924003D01*
X136536446Y-76148631D01*
X136499500Y-76381902D01*
X136499500Y-76618097D01*
X136536446Y-76851368D01*
X136609433Y-77075996D01*
X136696719Y-77247302D01*
X136716657Y-77286433D01*
X136855483Y-77477510D01*
X136855485Y-77477512D01*
X137022490Y-77644517D01*
X137029603Y-77649685D01*
X137072266Y-77705017D01*
X137078242Y-77774630D01*
X137045634Y-77836424D01*
X137029603Y-77850315D01*
X137022490Y-77855482D01*
X136855485Y-78022487D01*
X136855485Y-78022488D01*
X136855483Y-78022490D01*
X136826389Y-78062535D01*
X136716657Y-78213566D01*
X136609433Y-78424003D01*
X136536446Y-78648631D01*
X136499500Y-78881902D01*
X136499500Y-79118097D01*
X136536446Y-79351368D01*
X136609433Y-79575996D01*
X136716657Y-79786433D01*
X136855483Y-79977510D01*
X136855485Y-79977512D01*
X137022490Y-80144517D01*
X137029603Y-80149685D01*
X137072266Y-80205017D01*
X137078242Y-80274630D01*
X137045634Y-80336424D01*
X137029603Y-80350315D01*
X137022490Y-80355482D01*
X136855485Y-80522487D01*
X136855485Y-80522488D01*
X136855483Y-80522490D01*
X136795862Y-80604550D01*
X136716657Y-80713566D01*
X136609433Y-80924003D01*
X136536446Y-81148631D01*
X136499500Y-81381902D01*
X136499500Y-81618097D01*
X136536446Y-81851368D01*
X136609433Y-82075996D01*
X136716657Y-82286433D01*
X136855483Y-82477510D01*
X137022490Y-82644517D01*
X137213567Y-82783343D01*
X137261339Y-82807684D01*
X137424003Y-82890566D01*
X137424005Y-82890566D01*
X137424008Y-82890568D01*
X137544412Y-82929689D01*
X137648631Y-82963553D01*
X137881903Y-83000500D01*
X137881908Y-83000500D01*
X138118097Y-83000500D01*
X138351368Y-82963553D01*
X138575992Y-82890568D01*
X138786433Y-82783343D01*
X138977510Y-82644517D01*
X139144517Y-82477510D01*
X139283343Y-82286433D01*
X139390568Y-82075992D01*
X139463553Y-81851368D01*
X139500500Y-81618097D01*
X139500500Y-81381902D01*
X139463553Y-81148631D01*
X139390566Y-80924003D01*
X139283342Y-80713566D01*
X139144517Y-80522490D01*
X138977510Y-80355483D01*
X138970401Y-80350318D01*
X138927735Y-80294988D01*
X138921756Y-80225375D01*
X138954362Y-80163580D01*
X138970401Y-80149682D01*
X138970500Y-80149609D01*
X138977510Y-80144517D01*
X139144517Y-79977510D01*
X139283343Y-79786433D01*
X139390568Y-79575992D01*
X139463553Y-79351368D01*
X139474167Y-79284356D01*
X139500500Y-79118097D01*
X139500500Y-78881902D01*
X139463553Y-78648631D01*
X139407136Y-78475000D01*
X139390568Y-78424008D01*
X139390566Y-78424005D01*
X139390566Y-78424003D01*
X139323132Y-78291657D01*
X139283343Y-78213567D01*
X139144517Y-78022490D01*
X138977510Y-77855483D01*
X138970401Y-77850318D01*
X138927735Y-77794988D01*
X138921756Y-77725375D01*
X138954362Y-77663580D01*
X138970401Y-77649682D01*
X138970500Y-77649609D01*
X138977510Y-77644517D01*
X139144517Y-77477510D01*
X139283343Y-77286433D01*
X139390568Y-77075992D01*
X139463553Y-76851368D01*
X139470472Y-76807683D01*
X139500500Y-76618097D01*
X139500500Y-76381902D01*
X139463553Y-76148631D01*
X139390566Y-75924003D01*
X139283342Y-75713566D01*
X139144517Y-75522490D01*
X138977510Y-75355483D01*
X138970401Y-75350318D01*
X138927735Y-75294988D01*
X138921756Y-75225375D01*
X138954362Y-75163580D01*
X138970401Y-75149682D01*
X138970500Y-75149609D01*
X138977510Y-75144517D01*
X139144517Y-74977510D01*
X139283343Y-74786433D01*
X139390568Y-74575992D01*
X139463553Y-74351368D01*
X139465921Y-74336420D01*
X139500500Y-74118097D01*
X139500500Y-73881902D01*
X139463553Y-73648631D01*
X139390566Y-73424003D01*
X139334002Y-73312991D01*
X139283343Y-73213567D01*
X139144517Y-73022490D01*
X138977510Y-72855483D01*
X138970401Y-72850318D01*
X138927735Y-72794988D01*
X138921756Y-72725375D01*
X138954362Y-72663580D01*
X138970401Y-72649682D01*
X138970500Y-72649609D01*
X138977510Y-72644517D01*
X139144517Y-72477510D01*
X139283343Y-72286433D01*
X139390568Y-72075992D01*
X139463553Y-71851368D01*
X139464570Y-71844949D01*
X139500500Y-71618097D01*
X139500500Y-71381902D01*
X139463553Y-71148631D01*
X139390566Y-70924003D01*
X139283342Y-70713566D01*
X139144517Y-70522490D01*
X138977510Y-70355483D01*
X138970401Y-70350318D01*
X138927735Y-70294988D01*
X138921756Y-70225375D01*
X138954362Y-70163580D01*
X138970401Y-70149682D01*
X138970500Y-70149609D01*
X138977510Y-70144517D01*
X139144517Y-69977510D01*
X139283343Y-69786433D01*
X139390568Y-69575992D01*
X139463553Y-69351368D01*
X139463554Y-69351362D01*
X139500500Y-69118097D01*
X139500500Y-68881902D01*
X139463553Y-68648631D01*
X139390566Y-68424003D01*
X139283342Y-68213566D01*
X139144517Y-68022490D01*
X138977510Y-67855483D01*
X138970401Y-67850318D01*
X138927735Y-67794988D01*
X138921756Y-67725375D01*
X138954362Y-67663580D01*
X138970401Y-67649682D01*
X138970500Y-67649609D01*
X138977510Y-67644517D01*
X139144517Y-67477510D01*
X139283343Y-67286433D01*
X139390568Y-67075992D01*
X139463553Y-66851368D01*
X139500500Y-66618097D01*
X139500500Y-66381902D01*
X139463553Y-66148631D01*
X139390566Y-65924003D01*
X139283342Y-65713566D01*
X139144517Y-65522490D01*
X138977510Y-65355483D01*
X138970401Y-65350318D01*
X138927735Y-65294988D01*
X138921756Y-65225375D01*
X138954362Y-65163580D01*
X138970401Y-65149682D01*
X138970500Y-65149609D01*
X138977510Y-65144517D01*
X139144517Y-64977510D01*
X139283343Y-64786433D01*
X139390568Y-64575992D01*
X139463553Y-64351368D01*
X139488026Y-64196853D01*
X139500500Y-64118097D01*
X139500500Y-63881902D01*
X139463553Y-63648631D01*
X139390566Y-63424003D01*
X139334002Y-63312991D01*
X139283343Y-63213567D01*
X139144517Y-63022490D01*
X138977510Y-62855483D01*
X138970401Y-62850318D01*
X138927735Y-62794988D01*
X138921756Y-62725375D01*
X138954362Y-62663580D01*
X138970401Y-62649682D01*
X138970500Y-62649609D01*
X138977510Y-62644517D01*
X139144517Y-62477510D01*
X139283343Y-62286433D01*
X139390568Y-62075992D01*
X139463553Y-61851368D01*
X139497852Y-61634813D01*
X139500500Y-61618097D01*
X139500500Y-61381902D01*
X139463553Y-61148631D01*
X139390566Y-60924003D01*
X139283342Y-60713566D01*
X139144517Y-60522490D01*
X138977510Y-60355483D01*
X138786433Y-60216657D01*
X138575996Y-60109433D01*
X138351368Y-60036446D01*
X138118097Y-59999500D01*
X138118092Y-59999500D01*
X137881908Y-59999500D01*
X137881903Y-59999500D01*
X137648631Y-60036446D01*
X137424003Y-60109433D01*
X137213566Y-60216657D01*
X137104550Y-60295862D01*
X137022490Y-60355483D01*
X137022488Y-60355485D01*
X137022487Y-60355485D01*
X136855485Y-60522487D01*
X136855485Y-60522488D01*
X136855483Y-60522490D01*
X136813760Y-60579917D01*
X136716657Y-60713566D01*
X136609433Y-60924003D01*
X136536446Y-61148631D01*
X136499500Y-61381902D01*
X124400500Y-61381902D01*
X124400500Y-61365191D01*
X124370312Y-61097268D01*
X124310316Y-60834409D01*
X124221267Y-60579921D01*
X124113184Y-60355485D01*
X124104285Y-60337005D01*
X124028665Y-60216657D01*
X123960838Y-60108711D01*
X123792734Y-59897915D01*
X123602085Y-59707266D01*
X123391289Y-59539162D01*
X123162997Y-59395716D01*
X123162994Y-59395714D01*
X122920082Y-59278734D01*
X122665602Y-59189687D01*
X122665594Y-59189684D01*
X122468446Y-59144687D01*
X122402732Y-59129688D01*
X122402728Y-59129687D01*
X122402719Y-59129686D01*
X122134813Y-59099500D01*
X122134809Y-59099500D01*
X121865191Y-59099500D01*
X121865186Y-59099500D01*
X121597280Y-59129686D01*
X121597268Y-59129688D01*
X121334405Y-59189684D01*
X121334397Y-59189687D01*
X121079917Y-59278734D01*
X120837005Y-59395714D01*
X120608712Y-59539161D01*
X120397915Y-59707265D01*
X120207265Y-59897915D01*
X120039161Y-60108712D01*
X119895714Y-60337005D01*
X119778734Y-60579917D01*
X119689687Y-60834397D01*
X119689684Y-60834405D01*
X119629688Y-61097268D01*
X119629686Y-61097280D01*
X119599500Y-61365186D01*
X118000500Y-61365186D01*
X118000500Y-57624500D01*
X118020185Y-57557461D01*
X118072989Y-57511706D01*
X118124500Y-57500500D01*
X173875500Y-57500500D01*
X173942539Y-57520185D01*
G37*
%TD.AperFunction*%
%TD*%
M02*
