%TF.GenerationSoftware,KiCad,Pcbnew,9.0.0*%
%TF.CreationDate,2025-05-08T14:03:21-04:00*%
%TF.ProjectId,main-pcb,6d61696e-2d70-4636-922e-6b696361645f,rev?*%
%TF.SameCoordinates,Original*%
%TF.FileFunction,Legend,Bot*%
%TF.FilePolarity,Positive*%
%FSLAX46Y46*%
G04 Gerber Fmt 4.6, Leading zero omitted, Abs format (unit mm)*
G04 Created by KiCad (PCBNEW 9.0.0) date 2025-05-08 14:03:21*
%MOMM*%
%LPD*%
G01*
G04 APERTURE LIST*
%ADD10C,0.100000*%
G04 APERTURE END LIST*
D10*
X167672306Y-106480262D02*
X167767544Y-106432643D01*
X167767544Y-106432643D02*
X167910401Y-106432643D01*
X167910401Y-106432643D02*
X168053258Y-106480262D01*
X168053258Y-106480262D02*
X168148496Y-106575500D01*
X168148496Y-106575500D02*
X168196115Y-106670738D01*
X168196115Y-106670738D02*
X168243734Y-106861214D01*
X168243734Y-106861214D02*
X168243734Y-107004071D01*
X168243734Y-107004071D02*
X168196115Y-107194547D01*
X168196115Y-107194547D02*
X168148496Y-107289785D01*
X168148496Y-107289785D02*
X168053258Y-107385024D01*
X168053258Y-107385024D02*
X167910401Y-107432643D01*
X167910401Y-107432643D02*
X167815163Y-107432643D01*
X167815163Y-107432643D02*
X167672306Y-107385024D01*
X167672306Y-107385024D02*
X167624687Y-107337404D01*
X167624687Y-107337404D02*
X167624687Y-107004071D01*
X167624687Y-107004071D02*
X167815163Y-107004071D01*
X167196115Y-107432643D02*
X167196115Y-106432643D01*
X167196115Y-106432643D02*
X166624687Y-107432643D01*
X166624687Y-107432643D02*
X166624687Y-106432643D01*
X166148496Y-107432643D02*
X166148496Y-106432643D01*
X166148496Y-106432643D02*
X165910401Y-106432643D01*
X165910401Y-106432643D02*
X165767544Y-106480262D01*
X165767544Y-106480262D02*
X165672306Y-106575500D01*
X165672306Y-106575500D02*
X165624687Y-106670738D01*
X165624687Y-106670738D02*
X165577068Y-106861214D01*
X165577068Y-106861214D02*
X165577068Y-107004071D01*
X165577068Y-107004071D02*
X165624687Y-107194547D01*
X165624687Y-107194547D02*
X165672306Y-107289785D01*
X165672306Y-107289785D02*
X165767544Y-107385024D01*
X165767544Y-107385024D02*
X165910401Y-107432643D01*
X165910401Y-107432643D02*
X166148496Y-107432643D01*
X168196115Y-110271578D02*
X167434211Y-110271578D01*
X167815163Y-110652531D02*
X167815163Y-109890626D01*
X166481830Y-109652531D02*
X166958020Y-109652531D01*
X166958020Y-109652531D02*
X167005639Y-110128721D01*
X167005639Y-110128721D02*
X166958020Y-110081102D01*
X166958020Y-110081102D02*
X166862782Y-110033483D01*
X166862782Y-110033483D02*
X166624687Y-110033483D01*
X166624687Y-110033483D02*
X166529449Y-110081102D01*
X166529449Y-110081102D02*
X166481830Y-110128721D01*
X166481830Y-110128721D02*
X166434211Y-110223959D01*
X166434211Y-110223959D02*
X166434211Y-110462054D01*
X166434211Y-110462054D02*
X166481830Y-110557292D01*
X166481830Y-110557292D02*
X166529449Y-110604912D01*
X166529449Y-110604912D02*
X166624687Y-110652531D01*
X166624687Y-110652531D02*
X166862782Y-110652531D01*
X166862782Y-110652531D02*
X166958020Y-110604912D01*
X166958020Y-110604912D02*
X167005639Y-110557292D01*
X166148496Y-109652531D02*
X165815163Y-110652531D01*
X165815163Y-110652531D02*
X165481830Y-109652531D01*
X168243734Y-113824800D02*
X168100877Y-113872419D01*
X168100877Y-113872419D02*
X167862782Y-113872419D01*
X167862782Y-113872419D02*
X167767544Y-113824800D01*
X167767544Y-113824800D02*
X167719925Y-113777180D01*
X167719925Y-113777180D02*
X167672306Y-113681942D01*
X167672306Y-113681942D02*
X167672306Y-113586704D01*
X167672306Y-113586704D02*
X167719925Y-113491466D01*
X167719925Y-113491466D02*
X167767544Y-113443847D01*
X167767544Y-113443847D02*
X167862782Y-113396228D01*
X167862782Y-113396228D02*
X168053258Y-113348609D01*
X168053258Y-113348609D02*
X168148496Y-113300990D01*
X168148496Y-113300990D02*
X168196115Y-113253371D01*
X168196115Y-113253371D02*
X168243734Y-113158133D01*
X168243734Y-113158133D02*
X168243734Y-113062895D01*
X168243734Y-113062895D02*
X168196115Y-112967657D01*
X168196115Y-112967657D02*
X168148496Y-112920038D01*
X168148496Y-112920038D02*
X168053258Y-112872419D01*
X168053258Y-112872419D02*
X167815163Y-112872419D01*
X167815163Y-112872419D02*
X167672306Y-112920038D01*
X167243734Y-113872419D02*
X167243734Y-113205752D01*
X167243734Y-112872419D02*
X167291353Y-112920038D01*
X167291353Y-112920038D02*
X167243734Y-112967657D01*
X167243734Y-112967657D02*
X167196115Y-112920038D01*
X167196115Y-112920038D02*
X167243734Y-112872419D01*
X167243734Y-112872419D02*
X167243734Y-112967657D01*
X166338973Y-113205752D02*
X166338973Y-114015276D01*
X166338973Y-114015276D02*
X166386592Y-114110514D01*
X166386592Y-114110514D02*
X166434211Y-114158133D01*
X166434211Y-114158133D02*
X166529449Y-114205752D01*
X166529449Y-114205752D02*
X166672306Y-114205752D01*
X166672306Y-114205752D02*
X166767544Y-114158133D01*
X166338973Y-113824800D02*
X166434211Y-113872419D01*
X166434211Y-113872419D02*
X166624687Y-113872419D01*
X166624687Y-113872419D02*
X166719925Y-113824800D01*
X166719925Y-113824800D02*
X166767544Y-113777180D01*
X166767544Y-113777180D02*
X166815163Y-113681942D01*
X166815163Y-113681942D02*
X166815163Y-113396228D01*
X166815163Y-113396228D02*
X166767544Y-113300990D01*
X166767544Y-113300990D02*
X166719925Y-113253371D01*
X166719925Y-113253371D02*
X166624687Y-113205752D01*
X166624687Y-113205752D02*
X166434211Y-113205752D01*
X166434211Y-113205752D02*
X166338973Y-113253371D01*
X132696115Y-90908833D02*
X132362782Y-90908833D01*
X132219925Y-91432643D02*
X132696115Y-91432643D01*
X132696115Y-91432643D02*
X132696115Y-90432643D01*
X132696115Y-90432643D02*
X132219925Y-90432643D01*
X131791353Y-91432643D02*
X131791353Y-90432643D01*
X131791353Y-90432643D02*
X131219925Y-91432643D01*
X131219925Y-91432643D02*
X131219925Y-90432643D01*
X130791353Y-91146928D02*
X130315163Y-91146928D01*
X130886591Y-91432643D02*
X130553258Y-90432643D01*
X130553258Y-90432643D02*
X130219925Y-91432643D01*
X132696115Y-94652531D02*
X132696115Y-93652531D01*
X132219925Y-94652531D02*
X132219925Y-93652531D01*
X132219925Y-93652531D02*
X131648497Y-94652531D01*
X131648497Y-94652531D02*
X131648497Y-93652531D01*
X130648497Y-94652531D02*
X131219925Y-94652531D01*
X130934211Y-94652531D02*
X130934211Y-93652531D01*
X130934211Y-93652531D02*
X131029449Y-93795388D01*
X131029449Y-93795388D02*
X131124687Y-93890626D01*
X131124687Y-93890626D02*
X131219925Y-93938245D01*
X132696115Y-97872419D02*
X132696115Y-96872419D01*
X132219925Y-97872419D02*
X132219925Y-96872419D01*
X132219925Y-96872419D02*
X131648497Y-97872419D01*
X131648497Y-97872419D02*
X131648497Y-96872419D01*
X131219925Y-96967657D02*
X131172306Y-96920038D01*
X131172306Y-96920038D02*
X131077068Y-96872419D01*
X131077068Y-96872419D02*
X130838973Y-96872419D01*
X130838973Y-96872419D02*
X130743735Y-96920038D01*
X130743735Y-96920038D02*
X130696116Y-96967657D01*
X130696116Y-96967657D02*
X130648497Y-97062895D01*
X130648497Y-97062895D02*
X130648497Y-97158133D01*
X130648497Y-97158133D02*
X130696116Y-97300990D01*
X130696116Y-97300990D02*
X131267544Y-97872419D01*
X131267544Y-97872419D02*
X130648497Y-97872419D01*
X125743734Y-95885024D02*
X125600877Y-95932643D01*
X125600877Y-95932643D02*
X125362782Y-95932643D01*
X125362782Y-95932643D02*
X125267544Y-95885024D01*
X125267544Y-95885024D02*
X125219925Y-95837404D01*
X125219925Y-95837404D02*
X125172306Y-95742166D01*
X125172306Y-95742166D02*
X125172306Y-95646928D01*
X125172306Y-95646928D02*
X125219925Y-95551690D01*
X125219925Y-95551690D02*
X125267544Y-95504071D01*
X125267544Y-95504071D02*
X125362782Y-95456452D01*
X125362782Y-95456452D02*
X125553258Y-95408833D01*
X125553258Y-95408833D02*
X125648496Y-95361214D01*
X125648496Y-95361214D02*
X125696115Y-95313595D01*
X125696115Y-95313595D02*
X125743734Y-95218357D01*
X125743734Y-95218357D02*
X125743734Y-95123119D01*
X125743734Y-95123119D02*
X125696115Y-95027881D01*
X125696115Y-95027881D02*
X125648496Y-94980262D01*
X125648496Y-94980262D02*
X125553258Y-94932643D01*
X125553258Y-94932643D02*
X125315163Y-94932643D01*
X125315163Y-94932643D02*
X125172306Y-94980262D01*
X124743734Y-95932643D02*
X124743734Y-95265976D01*
X124743734Y-94932643D02*
X124791353Y-94980262D01*
X124791353Y-94980262D02*
X124743734Y-95027881D01*
X124743734Y-95027881D02*
X124696115Y-94980262D01*
X124696115Y-94980262D02*
X124743734Y-94932643D01*
X124743734Y-94932643D02*
X124743734Y-95027881D01*
X123838973Y-95265976D02*
X123838973Y-96075500D01*
X123838973Y-96075500D02*
X123886592Y-96170738D01*
X123886592Y-96170738D02*
X123934211Y-96218357D01*
X123934211Y-96218357D02*
X124029449Y-96265976D01*
X124029449Y-96265976D02*
X124172306Y-96265976D01*
X124172306Y-96265976D02*
X124267544Y-96218357D01*
X123838973Y-95885024D02*
X123934211Y-95932643D01*
X123934211Y-95932643D02*
X124124687Y-95932643D01*
X124124687Y-95932643D02*
X124219925Y-95885024D01*
X124219925Y-95885024D02*
X124267544Y-95837404D01*
X124267544Y-95837404D02*
X124315163Y-95742166D01*
X124315163Y-95742166D02*
X124315163Y-95456452D01*
X124315163Y-95456452D02*
X124267544Y-95361214D01*
X124267544Y-95361214D02*
X124219925Y-95313595D01*
X124219925Y-95313595D02*
X124124687Y-95265976D01*
X124124687Y-95265976D02*
X123934211Y-95265976D01*
X123934211Y-95265976D02*
X123838973Y-95313595D01*
X125696115Y-98771578D02*
X124934211Y-98771578D01*
X125315163Y-99152531D02*
X125315163Y-98390626D01*
X123981830Y-98152531D02*
X124458020Y-98152531D01*
X124458020Y-98152531D02*
X124505639Y-98628721D01*
X124505639Y-98628721D02*
X124458020Y-98581102D01*
X124458020Y-98581102D02*
X124362782Y-98533483D01*
X124362782Y-98533483D02*
X124124687Y-98533483D01*
X124124687Y-98533483D02*
X124029449Y-98581102D01*
X124029449Y-98581102D02*
X123981830Y-98628721D01*
X123981830Y-98628721D02*
X123934211Y-98723959D01*
X123934211Y-98723959D02*
X123934211Y-98962054D01*
X123934211Y-98962054D02*
X123981830Y-99057292D01*
X123981830Y-99057292D02*
X124029449Y-99104912D01*
X124029449Y-99104912D02*
X124124687Y-99152531D01*
X124124687Y-99152531D02*
X124362782Y-99152531D01*
X124362782Y-99152531D02*
X124458020Y-99104912D01*
X124458020Y-99104912D02*
X124505639Y-99057292D01*
X123648496Y-98152531D02*
X123315163Y-99152531D01*
X123315163Y-99152531D02*
X122981830Y-98152531D01*
X125172306Y-101420038D02*
X125267544Y-101372419D01*
X125267544Y-101372419D02*
X125410401Y-101372419D01*
X125410401Y-101372419D02*
X125553258Y-101420038D01*
X125553258Y-101420038D02*
X125648496Y-101515276D01*
X125648496Y-101515276D02*
X125696115Y-101610514D01*
X125696115Y-101610514D02*
X125743734Y-101800990D01*
X125743734Y-101800990D02*
X125743734Y-101943847D01*
X125743734Y-101943847D02*
X125696115Y-102134323D01*
X125696115Y-102134323D02*
X125648496Y-102229561D01*
X125648496Y-102229561D02*
X125553258Y-102324800D01*
X125553258Y-102324800D02*
X125410401Y-102372419D01*
X125410401Y-102372419D02*
X125315163Y-102372419D01*
X125315163Y-102372419D02*
X125172306Y-102324800D01*
X125172306Y-102324800D02*
X125124687Y-102277180D01*
X125124687Y-102277180D02*
X125124687Y-101943847D01*
X125124687Y-101943847D02*
X125315163Y-101943847D01*
X124696115Y-102372419D02*
X124696115Y-101372419D01*
X124696115Y-101372419D02*
X124124687Y-102372419D01*
X124124687Y-102372419D02*
X124124687Y-101372419D01*
X123648496Y-102372419D02*
X123648496Y-101372419D01*
X123648496Y-101372419D02*
X123410401Y-101372419D01*
X123410401Y-101372419D02*
X123267544Y-101420038D01*
X123267544Y-101420038D02*
X123172306Y-101515276D01*
X123172306Y-101515276D02*
X123124687Y-101610514D01*
X123124687Y-101610514D02*
X123077068Y-101800990D01*
X123077068Y-101800990D02*
X123077068Y-101943847D01*
X123077068Y-101943847D02*
X123124687Y-102134323D01*
X123124687Y-102134323D02*
X123172306Y-102229561D01*
X123172306Y-102229561D02*
X123267544Y-102324800D01*
X123267544Y-102324800D02*
X123410401Y-102372419D01*
X123410401Y-102372419D02*
X123648496Y-102372419D01*
X138172306Y-121920038D02*
X138267544Y-121872419D01*
X138267544Y-121872419D02*
X138410401Y-121872419D01*
X138410401Y-121872419D02*
X138553258Y-121920038D01*
X138553258Y-121920038D02*
X138648496Y-122015276D01*
X138648496Y-122015276D02*
X138696115Y-122110514D01*
X138696115Y-122110514D02*
X138743734Y-122300990D01*
X138743734Y-122300990D02*
X138743734Y-122443847D01*
X138743734Y-122443847D02*
X138696115Y-122634323D01*
X138696115Y-122634323D02*
X138648496Y-122729561D01*
X138648496Y-122729561D02*
X138553258Y-122824800D01*
X138553258Y-122824800D02*
X138410401Y-122872419D01*
X138410401Y-122872419D02*
X138315163Y-122872419D01*
X138315163Y-122872419D02*
X138172306Y-122824800D01*
X138172306Y-122824800D02*
X138124687Y-122777180D01*
X138124687Y-122777180D02*
X138124687Y-122443847D01*
X138124687Y-122443847D02*
X138315163Y-122443847D01*
X137696115Y-122872419D02*
X137696115Y-121872419D01*
X137696115Y-121872419D02*
X137124687Y-122872419D01*
X137124687Y-122872419D02*
X137124687Y-121872419D01*
X136648496Y-122872419D02*
X136648496Y-121872419D01*
X136648496Y-121872419D02*
X136410401Y-121872419D01*
X136410401Y-121872419D02*
X136267544Y-121920038D01*
X136267544Y-121920038D02*
X136172306Y-122015276D01*
X136172306Y-122015276D02*
X136124687Y-122110514D01*
X136124687Y-122110514D02*
X136077068Y-122300990D01*
X136077068Y-122300990D02*
X136077068Y-122443847D01*
X136077068Y-122443847D02*
X136124687Y-122634323D01*
X136124687Y-122634323D02*
X136172306Y-122729561D01*
X136172306Y-122729561D02*
X136267544Y-122824800D01*
X136267544Y-122824800D02*
X136410401Y-122872419D01*
X136410401Y-122872419D02*
X136648496Y-122872419D01*
X134886591Y-122491466D02*
X134124687Y-122491466D01*
X134505639Y-122872419D02*
X134505639Y-122110514D01*
X133172306Y-121872419D02*
X133648496Y-121872419D01*
X133648496Y-121872419D02*
X133696115Y-122348609D01*
X133696115Y-122348609D02*
X133648496Y-122300990D01*
X133648496Y-122300990D02*
X133553258Y-122253371D01*
X133553258Y-122253371D02*
X133315163Y-122253371D01*
X133315163Y-122253371D02*
X133219925Y-122300990D01*
X133219925Y-122300990D02*
X133172306Y-122348609D01*
X133172306Y-122348609D02*
X133124687Y-122443847D01*
X133124687Y-122443847D02*
X133124687Y-122681942D01*
X133124687Y-122681942D02*
X133172306Y-122777180D01*
X133172306Y-122777180D02*
X133219925Y-122824800D01*
X133219925Y-122824800D02*
X133315163Y-122872419D01*
X133315163Y-122872419D02*
X133553258Y-122872419D01*
X133553258Y-122872419D02*
X133648496Y-122824800D01*
X133648496Y-122824800D02*
X133696115Y-122777180D01*
X132838972Y-121872419D02*
X132505639Y-122872419D01*
X132505639Y-122872419D02*
X132172306Y-121872419D01*
X125743734Y-84385024D02*
X125600877Y-84432643D01*
X125600877Y-84432643D02*
X125362782Y-84432643D01*
X125362782Y-84432643D02*
X125267544Y-84385024D01*
X125267544Y-84385024D02*
X125219925Y-84337404D01*
X125219925Y-84337404D02*
X125172306Y-84242166D01*
X125172306Y-84242166D02*
X125172306Y-84146928D01*
X125172306Y-84146928D02*
X125219925Y-84051690D01*
X125219925Y-84051690D02*
X125267544Y-84004071D01*
X125267544Y-84004071D02*
X125362782Y-83956452D01*
X125362782Y-83956452D02*
X125553258Y-83908833D01*
X125553258Y-83908833D02*
X125648496Y-83861214D01*
X125648496Y-83861214D02*
X125696115Y-83813595D01*
X125696115Y-83813595D02*
X125743734Y-83718357D01*
X125743734Y-83718357D02*
X125743734Y-83623119D01*
X125743734Y-83623119D02*
X125696115Y-83527881D01*
X125696115Y-83527881D02*
X125648496Y-83480262D01*
X125648496Y-83480262D02*
X125553258Y-83432643D01*
X125553258Y-83432643D02*
X125315163Y-83432643D01*
X125315163Y-83432643D02*
X125172306Y-83480262D01*
X124743734Y-84432643D02*
X124743734Y-83765976D01*
X124743734Y-83432643D02*
X124791353Y-83480262D01*
X124791353Y-83480262D02*
X124743734Y-83527881D01*
X124743734Y-83527881D02*
X124696115Y-83480262D01*
X124696115Y-83480262D02*
X124743734Y-83432643D01*
X124743734Y-83432643D02*
X124743734Y-83527881D01*
X123838973Y-83765976D02*
X123838973Y-84575500D01*
X123838973Y-84575500D02*
X123886592Y-84670738D01*
X123886592Y-84670738D02*
X123934211Y-84718357D01*
X123934211Y-84718357D02*
X124029449Y-84765976D01*
X124029449Y-84765976D02*
X124172306Y-84765976D01*
X124172306Y-84765976D02*
X124267544Y-84718357D01*
X123838973Y-84385024D02*
X123934211Y-84432643D01*
X123934211Y-84432643D02*
X124124687Y-84432643D01*
X124124687Y-84432643D02*
X124219925Y-84385024D01*
X124219925Y-84385024D02*
X124267544Y-84337404D01*
X124267544Y-84337404D02*
X124315163Y-84242166D01*
X124315163Y-84242166D02*
X124315163Y-83956452D01*
X124315163Y-83956452D02*
X124267544Y-83861214D01*
X124267544Y-83861214D02*
X124219925Y-83813595D01*
X124219925Y-83813595D02*
X124124687Y-83765976D01*
X124124687Y-83765976D02*
X123934211Y-83765976D01*
X123934211Y-83765976D02*
X123838973Y-83813595D01*
X125696115Y-87271578D02*
X124934211Y-87271578D01*
X125315163Y-87652531D02*
X125315163Y-86890626D01*
X123981830Y-86652531D02*
X124458020Y-86652531D01*
X124458020Y-86652531D02*
X124505639Y-87128721D01*
X124505639Y-87128721D02*
X124458020Y-87081102D01*
X124458020Y-87081102D02*
X124362782Y-87033483D01*
X124362782Y-87033483D02*
X124124687Y-87033483D01*
X124124687Y-87033483D02*
X124029449Y-87081102D01*
X124029449Y-87081102D02*
X123981830Y-87128721D01*
X123981830Y-87128721D02*
X123934211Y-87223959D01*
X123934211Y-87223959D02*
X123934211Y-87462054D01*
X123934211Y-87462054D02*
X123981830Y-87557292D01*
X123981830Y-87557292D02*
X124029449Y-87604912D01*
X124029449Y-87604912D02*
X124124687Y-87652531D01*
X124124687Y-87652531D02*
X124362782Y-87652531D01*
X124362782Y-87652531D02*
X124458020Y-87604912D01*
X124458020Y-87604912D02*
X124505639Y-87557292D01*
X123648496Y-86652531D02*
X123315163Y-87652531D01*
X123315163Y-87652531D02*
X122981830Y-86652531D01*
X125172306Y-89920038D02*
X125267544Y-89872419D01*
X125267544Y-89872419D02*
X125410401Y-89872419D01*
X125410401Y-89872419D02*
X125553258Y-89920038D01*
X125553258Y-89920038D02*
X125648496Y-90015276D01*
X125648496Y-90015276D02*
X125696115Y-90110514D01*
X125696115Y-90110514D02*
X125743734Y-90300990D01*
X125743734Y-90300990D02*
X125743734Y-90443847D01*
X125743734Y-90443847D02*
X125696115Y-90634323D01*
X125696115Y-90634323D02*
X125648496Y-90729561D01*
X125648496Y-90729561D02*
X125553258Y-90824800D01*
X125553258Y-90824800D02*
X125410401Y-90872419D01*
X125410401Y-90872419D02*
X125315163Y-90872419D01*
X125315163Y-90872419D02*
X125172306Y-90824800D01*
X125172306Y-90824800D02*
X125124687Y-90777180D01*
X125124687Y-90777180D02*
X125124687Y-90443847D01*
X125124687Y-90443847D02*
X125315163Y-90443847D01*
X124696115Y-90872419D02*
X124696115Y-89872419D01*
X124696115Y-89872419D02*
X124124687Y-90872419D01*
X124124687Y-90872419D02*
X124124687Y-89872419D01*
X123648496Y-90872419D02*
X123648496Y-89872419D01*
X123648496Y-89872419D02*
X123410401Y-89872419D01*
X123410401Y-89872419D02*
X123267544Y-89920038D01*
X123267544Y-89920038D02*
X123172306Y-90015276D01*
X123172306Y-90015276D02*
X123124687Y-90110514D01*
X123124687Y-90110514D02*
X123077068Y-90300990D01*
X123077068Y-90300990D02*
X123077068Y-90443847D01*
X123077068Y-90443847D02*
X123124687Y-90634323D01*
X123124687Y-90634323D02*
X123172306Y-90729561D01*
X123172306Y-90729561D02*
X123267544Y-90824800D01*
X123267544Y-90824800D02*
X123410401Y-90872419D01*
X123410401Y-90872419D02*
X123648496Y-90872419D01*
X138172306Y-111920038D02*
X138267544Y-111872419D01*
X138267544Y-111872419D02*
X138410401Y-111872419D01*
X138410401Y-111872419D02*
X138553258Y-111920038D01*
X138553258Y-111920038D02*
X138648496Y-112015276D01*
X138648496Y-112015276D02*
X138696115Y-112110514D01*
X138696115Y-112110514D02*
X138743734Y-112300990D01*
X138743734Y-112300990D02*
X138743734Y-112443847D01*
X138743734Y-112443847D02*
X138696115Y-112634323D01*
X138696115Y-112634323D02*
X138648496Y-112729561D01*
X138648496Y-112729561D02*
X138553258Y-112824800D01*
X138553258Y-112824800D02*
X138410401Y-112872419D01*
X138410401Y-112872419D02*
X138315163Y-112872419D01*
X138315163Y-112872419D02*
X138172306Y-112824800D01*
X138172306Y-112824800D02*
X138124687Y-112777180D01*
X138124687Y-112777180D02*
X138124687Y-112443847D01*
X138124687Y-112443847D02*
X138315163Y-112443847D01*
X137696115Y-112872419D02*
X137696115Y-111872419D01*
X137696115Y-111872419D02*
X137124687Y-112872419D01*
X137124687Y-112872419D02*
X137124687Y-111872419D01*
X136648496Y-112872419D02*
X136648496Y-111872419D01*
X136648496Y-111872419D02*
X136410401Y-111872419D01*
X136410401Y-111872419D02*
X136267544Y-111920038D01*
X136267544Y-111920038D02*
X136172306Y-112015276D01*
X136172306Y-112015276D02*
X136124687Y-112110514D01*
X136124687Y-112110514D02*
X136077068Y-112300990D01*
X136077068Y-112300990D02*
X136077068Y-112443847D01*
X136077068Y-112443847D02*
X136124687Y-112634323D01*
X136124687Y-112634323D02*
X136172306Y-112729561D01*
X136172306Y-112729561D02*
X136267544Y-112824800D01*
X136267544Y-112824800D02*
X136410401Y-112872419D01*
X136410401Y-112872419D02*
X136648496Y-112872419D01*
X134886591Y-112491466D02*
X134124687Y-112491466D01*
X134505639Y-112872419D02*
X134505639Y-112110514D01*
X133172306Y-111872419D02*
X133648496Y-111872419D01*
X133648496Y-111872419D02*
X133696115Y-112348609D01*
X133696115Y-112348609D02*
X133648496Y-112300990D01*
X133648496Y-112300990D02*
X133553258Y-112253371D01*
X133553258Y-112253371D02*
X133315163Y-112253371D01*
X133315163Y-112253371D02*
X133219925Y-112300990D01*
X133219925Y-112300990D02*
X133172306Y-112348609D01*
X133172306Y-112348609D02*
X133124687Y-112443847D01*
X133124687Y-112443847D02*
X133124687Y-112681942D01*
X133124687Y-112681942D02*
X133172306Y-112777180D01*
X133172306Y-112777180D02*
X133219925Y-112824800D01*
X133219925Y-112824800D02*
X133315163Y-112872419D01*
X133315163Y-112872419D02*
X133553258Y-112872419D01*
X133553258Y-112872419D02*
X133648496Y-112824800D01*
X133648496Y-112824800D02*
X133696115Y-112777180D01*
X132838972Y-111872419D02*
X132505639Y-112872419D01*
X132505639Y-112872419D02*
X132172306Y-111872419D01*
X167672306Y-82980262D02*
X167767544Y-82932643D01*
X167767544Y-82932643D02*
X167910401Y-82932643D01*
X167910401Y-82932643D02*
X168053258Y-82980262D01*
X168053258Y-82980262D02*
X168148496Y-83075500D01*
X168148496Y-83075500D02*
X168196115Y-83170738D01*
X168196115Y-83170738D02*
X168243734Y-83361214D01*
X168243734Y-83361214D02*
X168243734Y-83504071D01*
X168243734Y-83504071D02*
X168196115Y-83694547D01*
X168196115Y-83694547D02*
X168148496Y-83789785D01*
X168148496Y-83789785D02*
X168053258Y-83885024D01*
X168053258Y-83885024D02*
X167910401Y-83932643D01*
X167910401Y-83932643D02*
X167815163Y-83932643D01*
X167815163Y-83932643D02*
X167672306Y-83885024D01*
X167672306Y-83885024D02*
X167624687Y-83837404D01*
X167624687Y-83837404D02*
X167624687Y-83504071D01*
X167624687Y-83504071D02*
X167815163Y-83504071D01*
X167196115Y-83932643D02*
X167196115Y-82932643D01*
X167196115Y-82932643D02*
X166624687Y-83932643D01*
X166624687Y-83932643D02*
X166624687Y-82932643D01*
X166148496Y-83932643D02*
X166148496Y-82932643D01*
X166148496Y-82932643D02*
X165910401Y-82932643D01*
X165910401Y-82932643D02*
X165767544Y-82980262D01*
X165767544Y-82980262D02*
X165672306Y-83075500D01*
X165672306Y-83075500D02*
X165624687Y-83170738D01*
X165624687Y-83170738D02*
X165577068Y-83361214D01*
X165577068Y-83361214D02*
X165577068Y-83504071D01*
X165577068Y-83504071D02*
X165624687Y-83694547D01*
X165624687Y-83694547D02*
X165672306Y-83789785D01*
X165672306Y-83789785D02*
X165767544Y-83885024D01*
X165767544Y-83885024D02*
X165910401Y-83932643D01*
X165910401Y-83932643D02*
X166148496Y-83932643D01*
X168196115Y-86771578D02*
X167434211Y-86771578D01*
X167815163Y-87152531D02*
X167815163Y-86390626D01*
X166481830Y-86152531D02*
X166958020Y-86152531D01*
X166958020Y-86152531D02*
X167005639Y-86628721D01*
X167005639Y-86628721D02*
X166958020Y-86581102D01*
X166958020Y-86581102D02*
X166862782Y-86533483D01*
X166862782Y-86533483D02*
X166624687Y-86533483D01*
X166624687Y-86533483D02*
X166529449Y-86581102D01*
X166529449Y-86581102D02*
X166481830Y-86628721D01*
X166481830Y-86628721D02*
X166434211Y-86723959D01*
X166434211Y-86723959D02*
X166434211Y-86962054D01*
X166434211Y-86962054D02*
X166481830Y-87057292D01*
X166481830Y-87057292D02*
X166529449Y-87104912D01*
X166529449Y-87104912D02*
X166624687Y-87152531D01*
X166624687Y-87152531D02*
X166862782Y-87152531D01*
X166862782Y-87152531D02*
X166958020Y-87104912D01*
X166958020Y-87104912D02*
X167005639Y-87057292D01*
X166148496Y-86152531D02*
X165815163Y-87152531D01*
X165815163Y-87152531D02*
X165481830Y-86152531D01*
X168243734Y-90324800D02*
X168100877Y-90372419D01*
X168100877Y-90372419D02*
X167862782Y-90372419D01*
X167862782Y-90372419D02*
X167767544Y-90324800D01*
X167767544Y-90324800D02*
X167719925Y-90277180D01*
X167719925Y-90277180D02*
X167672306Y-90181942D01*
X167672306Y-90181942D02*
X167672306Y-90086704D01*
X167672306Y-90086704D02*
X167719925Y-89991466D01*
X167719925Y-89991466D02*
X167767544Y-89943847D01*
X167767544Y-89943847D02*
X167862782Y-89896228D01*
X167862782Y-89896228D02*
X168053258Y-89848609D01*
X168053258Y-89848609D02*
X168148496Y-89800990D01*
X168148496Y-89800990D02*
X168196115Y-89753371D01*
X168196115Y-89753371D02*
X168243734Y-89658133D01*
X168243734Y-89658133D02*
X168243734Y-89562895D01*
X168243734Y-89562895D02*
X168196115Y-89467657D01*
X168196115Y-89467657D02*
X168148496Y-89420038D01*
X168148496Y-89420038D02*
X168053258Y-89372419D01*
X168053258Y-89372419D02*
X167815163Y-89372419D01*
X167815163Y-89372419D02*
X167672306Y-89420038D01*
X167243734Y-90372419D02*
X167243734Y-89705752D01*
X167243734Y-89372419D02*
X167291353Y-89420038D01*
X167291353Y-89420038D02*
X167243734Y-89467657D01*
X167243734Y-89467657D02*
X167196115Y-89420038D01*
X167196115Y-89420038D02*
X167243734Y-89372419D01*
X167243734Y-89372419D02*
X167243734Y-89467657D01*
X166338973Y-89705752D02*
X166338973Y-90515276D01*
X166338973Y-90515276D02*
X166386592Y-90610514D01*
X166386592Y-90610514D02*
X166434211Y-90658133D01*
X166434211Y-90658133D02*
X166529449Y-90705752D01*
X166529449Y-90705752D02*
X166672306Y-90705752D01*
X166672306Y-90705752D02*
X166767544Y-90658133D01*
X166338973Y-90324800D02*
X166434211Y-90372419D01*
X166434211Y-90372419D02*
X166624687Y-90372419D01*
X166624687Y-90372419D02*
X166719925Y-90324800D01*
X166719925Y-90324800D02*
X166767544Y-90277180D01*
X166767544Y-90277180D02*
X166815163Y-90181942D01*
X166815163Y-90181942D02*
X166815163Y-89896228D01*
X166815163Y-89896228D02*
X166767544Y-89800990D01*
X166767544Y-89800990D02*
X166719925Y-89753371D01*
X166719925Y-89753371D02*
X166624687Y-89705752D01*
X166624687Y-89705752D02*
X166434211Y-89705752D01*
X166434211Y-89705752D02*
X166338973Y-89753371D01*
X143827693Y-113079961D02*
X143732455Y-113127580D01*
X143732455Y-113127580D02*
X143589598Y-113127580D01*
X143589598Y-113127580D02*
X143446741Y-113079961D01*
X143446741Y-113079961D02*
X143351503Y-112984723D01*
X143351503Y-112984723D02*
X143303884Y-112889485D01*
X143303884Y-112889485D02*
X143256265Y-112699009D01*
X143256265Y-112699009D02*
X143256265Y-112556152D01*
X143256265Y-112556152D02*
X143303884Y-112365676D01*
X143303884Y-112365676D02*
X143351503Y-112270438D01*
X143351503Y-112270438D02*
X143446741Y-112175200D01*
X143446741Y-112175200D02*
X143589598Y-112127580D01*
X143589598Y-112127580D02*
X143684836Y-112127580D01*
X143684836Y-112127580D02*
X143827693Y-112175200D01*
X143827693Y-112175200D02*
X143875312Y-112222819D01*
X143875312Y-112222819D02*
X143875312Y-112556152D01*
X143875312Y-112556152D02*
X143684836Y-112556152D01*
X144303884Y-112127580D02*
X144303884Y-113127580D01*
X144303884Y-113127580D02*
X144875312Y-112127580D01*
X144875312Y-112127580D02*
X144875312Y-113127580D01*
X145351503Y-112127580D02*
X145351503Y-113127580D01*
X145351503Y-113127580D02*
X145589598Y-113127580D01*
X145589598Y-113127580D02*
X145732455Y-113079961D01*
X145732455Y-113079961D02*
X145827693Y-112984723D01*
X145827693Y-112984723D02*
X145875312Y-112889485D01*
X145875312Y-112889485D02*
X145922931Y-112699009D01*
X145922931Y-112699009D02*
X145922931Y-112556152D01*
X145922931Y-112556152D02*
X145875312Y-112365676D01*
X145875312Y-112365676D02*
X145827693Y-112270438D01*
X145827693Y-112270438D02*
X145732455Y-112175200D01*
X145732455Y-112175200D02*
X145589598Y-112127580D01*
X145589598Y-112127580D02*
X145351503Y-112127580D01*
X147875313Y-112127580D02*
X147875313Y-113127580D01*
X147875313Y-113127580D02*
X148256265Y-113127580D01*
X148256265Y-113127580D02*
X148351503Y-113079961D01*
X148351503Y-113079961D02*
X148399122Y-113032342D01*
X148399122Y-113032342D02*
X148446741Y-112937104D01*
X148446741Y-112937104D02*
X148446741Y-112794247D01*
X148446741Y-112794247D02*
X148399122Y-112699009D01*
X148399122Y-112699009D02*
X148351503Y-112651390D01*
X148351503Y-112651390D02*
X148256265Y-112603771D01*
X148256265Y-112603771D02*
X147875313Y-112603771D01*
X148780075Y-113127580D02*
X149018170Y-112127580D01*
X149018170Y-112127580D02*
X149208646Y-112841866D01*
X149208646Y-112841866D02*
X149399122Y-112127580D01*
X149399122Y-112127580D02*
X149637218Y-113127580D01*
X150589598Y-112127580D02*
X150256265Y-112603771D01*
X150018170Y-112127580D02*
X150018170Y-113127580D01*
X150018170Y-113127580D02*
X150399122Y-113127580D01*
X150399122Y-113127580D02*
X150494360Y-113079961D01*
X150494360Y-113079961D02*
X150541979Y-113032342D01*
X150541979Y-113032342D02*
X150589598Y-112937104D01*
X150589598Y-112937104D02*
X150589598Y-112794247D01*
X150589598Y-112794247D02*
X150541979Y-112699009D01*
X150541979Y-112699009D02*
X150494360Y-112651390D01*
X150494360Y-112651390D02*
X150399122Y-112603771D01*
X150399122Y-112603771D02*
X150018170Y-112603771D01*
X167672306Y-94480262D02*
X167767544Y-94432643D01*
X167767544Y-94432643D02*
X167910401Y-94432643D01*
X167910401Y-94432643D02*
X168053258Y-94480262D01*
X168053258Y-94480262D02*
X168148496Y-94575500D01*
X168148496Y-94575500D02*
X168196115Y-94670738D01*
X168196115Y-94670738D02*
X168243734Y-94861214D01*
X168243734Y-94861214D02*
X168243734Y-95004071D01*
X168243734Y-95004071D02*
X168196115Y-95194547D01*
X168196115Y-95194547D02*
X168148496Y-95289785D01*
X168148496Y-95289785D02*
X168053258Y-95385024D01*
X168053258Y-95385024D02*
X167910401Y-95432643D01*
X167910401Y-95432643D02*
X167815163Y-95432643D01*
X167815163Y-95432643D02*
X167672306Y-95385024D01*
X167672306Y-95385024D02*
X167624687Y-95337404D01*
X167624687Y-95337404D02*
X167624687Y-95004071D01*
X167624687Y-95004071D02*
X167815163Y-95004071D01*
X167196115Y-95432643D02*
X167196115Y-94432643D01*
X167196115Y-94432643D02*
X166624687Y-95432643D01*
X166624687Y-95432643D02*
X166624687Y-94432643D01*
X166148496Y-95432643D02*
X166148496Y-94432643D01*
X166148496Y-94432643D02*
X165910401Y-94432643D01*
X165910401Y-94432643D02*
X165767544Y-94480262D01*
X165767544Y-94480262D02*
X165672306Y-94575500D01*
X165672306Y-94575500D02*
X165624687Y-94670738D01*
X165624687Y-94670738D02*
X165577068Y-94861214D01*
X165577068Y-94861214D02*
X165577068Y-95004071D01*
X165577068Y-95004071D02*
X165624687Y-95194547D01*
X165624687Y-95194547D02*
X165672306Y-95289785D01*
X165672306Y-95289785D02*
X165767544Y-95385024D01*
X165767544Y-95385024D02*
X165910401Y-95432643D01*
X165910401Y-95432643D02*
X166148496Y-95432643D01*
X168196115Y-98271578D02*
X167434211Y-98271578D01*
X167815163Y-98652531D02*
X167815163Y-97890626D01*
X166481830Y-97652531D02*
X166958020Y-97652531D01*
X166958020Y-97652531D02*
X167005639Y-98128721D01*
X167005639Y-98128721D02*
X166958020Y-98081102D01*
X166958020Y-98081102D02*
X166862782Y-98033483D01*
X166862782Y-98033483D02*
X166624687Y-98033483D01*
X166624687Y-98033483D02*
X166529449Y-98081102D01*
X166529449Y-98081102D02*
X166481830Y-98128721D01*
X166481830Y-98128721D02*
X166434211Y-98223959D01*
X166434211Y-98223959D02*
X166434211Y-98462054D01*
X166434211Y-98462054D02*
X166481830Y-98557292D01*
X166481830Y-98557292D02*
X166529449Y-98604912D01*
X166529449Y-98604912D02*
X166624687Y-98652531D01*
X166624687Y-98652531D02*
X166862782Y-98652531D01*
X166862782Y-98652531D02*
X166958020Y-98604912D01*
X166958020Y-98604912D02*
X167005639Y-98557292D01*
X166148496Y-97652531D02*
X165815163Y-98652531D01*
X165815163Y-98652531D02*
X165481830Y-97652531D01*
X168243734Y-101824800D02*
X168100877Y-101872419D01*
X168100877Y-101872419D02*
X167862782Y-101872419D01*
X167862782Y-101872419D02*
X167767544Y-101824800D01*
X167767544Y-101824800D02*
X167719925Y-101777180D01*
X167719925Y-101777180D02*
X167672306Y-101681942D01*
X167672306Y-101681942D02*
X167672306Y-101586704D01*
X167672306Y-101586704D02*
X167719925Y-101491466D01*
X167719925Y-101491466D02*
X167767544Y-101443847D01*
X167767544Y-101443847D02*
X167862782Y-101396228D01*
X167862782Y-101396228D02*
X168053258Y-101348609D01*
X168053258Y-101348609D02*
X168148496Y-101300990D01*
X168148496Y-101300990D02*
X168196115Y-101253371D01*
X168196115Y-101253371D02*
X168243734Y-101158133D01*
X168243734Y-101158133D02*
X168243734Y-101062895D01*
X168243734Y-101062895D02*
X168196115Y-100967657D01*
X168196115Y-100967657D02*
X168148496Y-100920038D01*
X168148496Y-100920038D02*
X168053258Y-100872419D01*
X168053258Y-100872419D02*
X167815163Y-100872419D01*
X167815163Y-100872419D02*
X167672306Y-100920038D01*
X167243734Y-101872419D02*
X167243734Y-101205752D01*
X167243734Y-100872419D02*
X167291353Y-100920038D01*
X167291353Y-100920038D02*
X167243734Y-100967657D01*
X167243734Y-100967657D02*
X167196115Y-100920038D01*
X167196115Y-100920038D02*
X167243734Y-100872419D01*
X167243734Y-100872419D02*
X167243734Y-100967657D01*
X166338973Y-101205752D02*
X166338973Y-102015276D01*
X166338973Y-102015276D02*
X166386592Y-102110514D01*
X166386592Y-102110514D02*
X166434211Y-102158133D01*
X166434211Y-102158133D02*
X166529449Y-102205752D01*
X166529449Y-102205752D02*
X166672306Y-102205752D01*
X166672306Y-102205752D02*
X166767544Y-102158133D01*
X166338973Y-101824800D02*
X166434211Y-101872419D01*
X166434211Y-101872419D02*
X166624687Y-101872419D01*
X166624687Y-101872419D02*
X166719925Y-101824800D01*
X166719925Y-101824800D02*
X166767544Y-101777180D01*
X166767544Y-101777180D02*
X166815163Y-101681942D01*
X166815163Y-101681942D02*
X166815163Y-101396228D01*
X166815163Y-101396228D02*
X166767544Y-101300990D01*
X166767544Y-101300990D02*
X166719925Y-101253371D01*
X166719925Y-101253371D02*
X166624687Y-101205752D01*
X166624687Y-101205752D02*
X166434211Y-101205752D01*
X166434211Y-101205752D02*
X166338973Y-101253371D01*
X125743734Y-107385024D02*
X125600877Y-107432643D01*
X125600877Y-107432643D02*
X125362782Y-107432643D01*
X125362782Y-107432643D02*
X125267544Y-107385024D01*
X125267544Y-107385024D02*
X125219925Y-107337404D01*
X125219925Y-107337404D02*
X125172306Y-107242166D01*
X125172306Y-107242166D02*
X125172306Y-107146928D01*
X125172306Y-107146928D02*
X125219925Y-107051690D01*
X125219925Y-107051690D02*
X125267544Y-107004071D01*
X125267544Y-107004071D02*
X125362782Y-106956452D01*
X125362782Y-106956452D02*
X125553258Y-106908833D01*
X125553258Y-106908833D02*
X125648496Y-106861214D01*
X125648496Y-106861214D02*
X125696115Y-106813595D01*
X125696115Y-106813595D02*
X125743734Y-106718357D01*
X125743734Y-106718357D02*
X125743734Y-106623119D01*
X125743734Y-106623119D02*
X125696115Y-106527881D01*
X125696115Y-106527881D02*
X125648496Y-106480262D01*
X125648496Y-106480262D02*
X125553258Y-106432643D01*
X125553258Y-106432643D02*
X125315163Y-106432643D01*
X125315163Y-106432643D02*
X125172306Y-106480262D01*
X124743734Y-107432643D02*
X124743734Y-106765976D01*
X124743734Y-106432643D02*
X124791353Y-106480262D01*
X124791353Y-106480262D02*
X124743734Y-106527881D01*
X124743734Y-106527881D02*
X124696115Y-106480262D01*
X124696115Y-106480262D02*
X124743734Y-106432643D01*
X124743734Y-106432643D02*
X124743734Y-106527881D01*
X123838973Y-106765976D02*
X123838973Y-107575500D01*
X123838973Y-107575500D02*
X123886592Y-107670738D01*
X123886592Y-107670738D02*
X123934211Y-107718357D01*
X123934211Y-107718357D02*
X124029449Y-107765976D01*
X124029449Y-107765976D02*
X124172306Y-107765976D01*
X124172306Y-107765976D02*
X124267544Y-107718357D01*
X123838973Y-107385024D02*
X123934211Y-107432643D01*
X123934211Y-107432643D02*
X124124687Y-107432643D01*
X124124687Y-107432643D02*
X124219925Y-107385024D01*
X124219925Y-107385024D02*
X124267544Y-107337404D01*
X124267544Y-107337404D02*
X124315163Y-107242166D01*
X124315163Y-107242166D02*
X124315163Y-106956452D01*
X124315163Y-106956452D02*
X124267544Y-106861214D01*
X124267544Y-106861214D02*
X124219925Y-106813595D01*
X124219925Y-106813595D02*
X124124687Y-106765976D01*
X124124687Y-106765976D02*
X123934211Y-106765976D01*
X123934211Y-106765976D02*
X123838973Y-106813595D01*
X125696115Y-110271578D02*
X124934211Y-110271578D01*
X125315163Y-110652531D02*
X125315163Y-109890626D01*
X123981830Y-109652531D02*
X124458020Y-109652531D01*
X124458020Y-109652531D02*
X124505639Y-110128721D01*
X124505639Y-110128721D02*
X124458020Y-110081102D01*
X124458020Y-110081102D02*
X124362782Y-110033483D01*
X124362782Y-110033483D02*
X124124687Y-110033483D01*
X124124687Y-110033483D02*
X124029449Y-110081102D01*
X124029449Y-110081102D02*
X123981830Y-110128721D01*
X123981830Y-110128721D02*
X123934211Y-110223959D01*
X123934211Y-110223959D02*
X123934211Y-110462054D01*
X123934211Y-110462054D02*
X123981830Y-110557292D01*
X123981830Y-110557292D02*
X124029449Y-110604912D01*
X124029449Y-110604912D02*
X124124687Y-110652531D01*
X124124687Y-110652531D02*
X124362782Y-110652531D01*
X124362782Y-110652531D02*
X124458020Y-110604912D01*
X124458020Y-110604912D02*
X124505639Y-110557292D01*
X123648496Y-109652531D02*
X123315163Y-110652531D01*
X123315163Y-110652531D02*
X122981830Y-109652531D01*
X125172306Y-112920038D02*
X125267544Y-112872419D01*
X125267544Y-112872419D02*
X125410401Y-112872419D01*
X125410401Y-112872419D02*
X125553258Y-112920038D01*
X125553258Y-112920038D02*
X125648496Y-113015276D01*
X125648496Y-113015276D02*
X125696115Y-113110514D01*
X125696115Y-113110514D02*
X125743734Y-113300990D01*
X125743734Y-113300990D02*
X125743734Y-113443847D01*
X125743734Y-113443847D02*
X125696115Y-113634323D01*
X125696115Y-113634323D02*
X125648496Y-113729561D01*
X125648496Y-113729561D02*
X125553258Y-113824800D01*
X125553258Y-113824800D02*
X125410401Y-113872419D01*
X125410401Y-113872419D02*
X125315163Y-113872419D01*
X125315163Y-113872419D02*
X125172306Y-113824800D01*
X125172306Y-113824800D02*
X125124687Y-113777180D01*
X125124687Y-113777180D02*
X125124687Y-113443847D01*
X125124687Y-113443847D02*
X125315163Y-113443847D01*
X124696115Y-113872419D02*
X124696115Y-112872419D01*
X124696115Y-112872419D02*
X124124687Y-113872419D01*
X124124687Y-113872419D02*
X124124687Y-112872419D01*
X123648496Y-113872419D02*
X123648496Y-112872419D01*
X123648496Y-112872419D02*
X123410401Y-112872419D01*
X123410401Y-112872419D02*
X123267544Y-112920038D01*
X123267544Y-112920038D02*
X123172306Y-113015276D01*
X123172306Y-113015276D02*
X123124687Y-113110514D01*
X123124687Y-113110514D02*
X123077068Y-113300990D01*
X123077068Y-113300990D02*
X123077068Y-113443847D01*
X123077068Y-113443847D02*
X123124687Y-113634323D01*
X123124687Y-113634323D02*
X123172306Y-113729561D01*
X123172306Y-113729561D02*
X123267544Y-113824800D01*
X123267544Y-113824800D02*
X123410401Y-113872419D01*
X123410401Y-113872419D02*
X123648496Y-113872419D01*
X125743734Y-72385024D02*
X125600877Y-72432643D01*
X125600877Y-72432643D02*
X125362782Y-72432643D01*
X125362782Y-72432643D02*
X125267544Y-72385024D01*
X125267544Y-72385024D02*
X125219925Y-72337404D01*
X125219925Y-72337404D02*
X125172306Y-72242166D01*
X125172306Y-72242166D02*
X125172306Y-72146928D01*
X125172306Y-72146928D02*
X125219925Y-72051690D01*
X125219925Y-72051690D02*
X125267544Y-72004071D01*
X125267544Y-72004071D02*
X125362782Y-71956452D01*
X125362782Y-71956452D02*
X125553258Y-71908833D01*
X125553258Y-71908833D02*
X125648496Y-71861214D01*
X125648496Y-71861214D02*
X125696115Y-71813595D01*
X125696115Y-71813595D02*
X125743734Y-71718357D01*
X125743734Y-71718357D02*
X125743734Y-71623119D01*
X125743734Y-71623119D02*
X125696115Y-71527881D01*
X125696115Y-71527881D02*
X125648496Y-71480262D01*
X125648496Y-71480262D02*
X125553258Y-71432643D01*
X125553258Y-71432643D02*
X125315163Y-71432643D01*
X125315163Y-71432643D02*
X125172306Y-71480262D01*
X124743734Y-72432643D02*
X124743734Y-71765976D01*
X124743734Y-71432643D02*
X124791353Y-71480262D01*
X124791353Y-71480262D02*
X124743734Y-71527881D01*
X124743734Y-71527881D02*
X124696115Y-71480262D01*
X124696115Y-71480262D02*
X124743734Y-71432643D01*
X124743734Y-71432643D02*
X124743734Y-71527881D01*
X123838973Y-71765976D02*
X123838973Y-72575500D01*
X123838973Y-72575500D02*
X123886592Y-72670738D01*
X123886592Y-72670738D02*
X123934211Y-72718357D01*
X123934211Y-72718357D02*
X124029449Y-72765976D01*
X124029449Y-72765976D02*
X124172306Y-72765976D01*
X124172306Y-72765976D02*
X124267544Y-72718357D01*
X123838973Y-72385024D02*
X123934211Y-72432643D01*
X123934211Y-72432643D02*
X124124687Y-72432643D01*
X124124687Y-72432643D02*
X124219925Y-72385024D01*
X124219925Y-72385024D02*
X124267544Y-72337404D01*
X124267544Y-72337404D02*
X124315163Y-72242166D01*
X124315163Y-72242166D02*
X124315163Y-71956452D01*
X124315163Y-71956452D02*
X124267544Y-71861214D01*
X124267544Y-71861214D02*
X124219925Y-71813595D01*
X124219925Y-71813595D02*
X124124687Y-71765976D01*
X124124687Y-71765976D02*
X123934211Y-71765976D01*
X123934211Y-71765976D02*
X123838973Y-71813595D01*
X125696115Y-75271578D02*
X124934211Y-75271578D01*
X125315163Y-75652531D02*
X125315163Y-74890626D01*
X123981830Y-74652531D02*
X124458020Y-74652531D01*
X124458020Y-74652531D02*
X124505639Y-75128721D01*
X124505639Y-75128721D02*
X124458020Y-75081102D01*
X124458020Y-75081102D02*
X124362782Y-75033483D01*
X124362782Y-75033483D02*
X124124687Y-75033483D01*
X124124687Y-75033483D02*
X124029449Y-75081102D01*
X124029449Y-75081102D02*
X123981830Y-75128721D01*
X123981830Y-75128721D02*
X123934211Y-75223959D01*
X123934211Y-75223959D02*
X123934211Y-75462054D01*
X123934211Y-75462054D02*
X123981830Y-75557292D01*
X123981830Y-75557292D02*
X124029449Y-75604912D01*
X124029449Y-75604912D02*
X124124687Y-75652531D01*
X124124687Y-75652531D02*
X124362782Y-75652531D01*
X124362782Y-75652531D02*
X124458020Y-75604912D01*
X124458020Y-75604912D02*
X124505639Y-75557292D01*
X123648496Y-74652531D02*
X123315163Y-75652531D01*
X123315163Y-75652531D02*
X122981830Y-74652531D01*
X125172306Y-77920038D02*
X125267544Y-77872419D01*
X125267544Y-77872419D02*
X125410401Y-77872419D01*
X125410401Y-77872419D02*
X125553258Y-77920038D01*
X125553258Y-77920038D02*
X125648496Y-78015276D01*
X125648496Y-78015276D02*
X125696115Y-78110514D01*
X125696115Y-78110514D02*
X125743734Y-78300990D01*
X125743734Y-78300990D02*
X125743734Y-78443847D01*
X125743734Y-78443847D02*
X125696115Y-78634323D01*
X125696115Y-78634323D02*
X125648496Y-78729561D01*
X125648496Y-78729561D02*
X125553258Y-78824800D01*
X125553258Y-78824800D02*
X125410401Y-78872419D01*
X125410401Y-78872419D02*
X125315163Y-78872419D01*
X125315163Y-78872419D02*
X125172306Y-78824800D01*
X125172306Y-78824800D02*
X125124687Y-78777180D01*
X125124687Y-78777180D02*
X125124687Y-78443847D01*
X125124687Y-78443847D02*
X125315163Y-78443847D01*
X124696115Y-78872419D02*
X124696115Y-77872419D01*
X124696115Y-77872419D02*
X124124687Y-78872419D01*
X124124687Y-78872419D02*
X124124687Y-77872419D01*
X123648496Y-78872419D02*
X123648496Y-77872419D01*
X123648496Y-77872419D02*
X123410401Y-77872419D01*
X123410401Y-77872419D02*
X123267544Y-77920038D01*
X123267544Y-77920038D02*
X123172306Y-78015276D01*
X123172306Y-78015276D02*
X123124687Y-78110514D01*
X123124687Y-78110514D02*
X123077068Y-78300990D01*
X123077068Y-78300990D02*
X123077068Y-78443847D01*
X123077068Y-78443847D02*
X123124687Y-78634323D01*
X123124687Y-78634323D02*
X123172306Y-78729561D01*
X123172306Y-78729561D02*
X123267544Y-78824800D01*
X123267544Y-78824800D02*
X123410401Y-78872419D01*
X123410401Y-78872419D02*
X123648496Y-78872419D01*
X143827693Y-123579961D02*
X143732455Y-123627580D01*
X143732455Y-123627580D02*
X143589598Y-123627580D01*
X143589598Y-123627580D02*
X143446741Y-123579961D01*
X143446741Y-123579961D02*
X143351503Y-123484723D01*
X143351503Y-123484723D02*
X143303884Y-123389485D01*
X143303884Y-123389485D02*
X143256265Y-123199009D01*
X143256265Y-123199009D02*
X143256265Y-123056152D01*
X143256265Y-123056152D02*
X143303884Y-122865676D01*
X143303884Y-122865676D02*
X143351503Y-122770438D01*
X143351503Y-122770438D02*
X143446741Y-122675200D01*
X143446741Y-122675200D02*
X143589598Y-122627580D01*
X143589598Y-122627580D02*
X143684836Y-122627580D01*
X143684836Y-122627580D02*
X143827693Y-122675200D01*
X143827693Y-122675200D02*
X143875312Y-122722819D01*
X143875312Y-122722819D02*
X143875312Y-123056152D01*
X143875312Y-123056152D02*
X143684836Y-123056152D01*
X144303884Y-122627580D02*
X144303884Y-123627580D01*
X144303884Y-123627580D02*
X144875312Y-122627580D01*
X144875312Y-122627580D02*
X144875312Y-123627580D01*
X145351503Y-122627580D02*
X145351503Y-123627580D01*
X145351503Y-123627580D02*
X145589598Y-123627580D01*
X145589598Y-123627580D02*
X145732455Y-123579961D01*
X145732455Y-123579961D02*
X145827693Y-123484723D01*
X145827693Y-123484723D02*
X145875312Y-123389485D01*
X145875312Y-123389485D02*
X145922931Y-123199009D01*
X145922931Y-123199009D02*
X145922931Y-123056152D01*
X145922931Y-123056152D02*
X145875312Y-122865676D01*
X145875312Y-122865676D02*
X145827693Y-122770438D01*
X145827693Y-122770438D02*
X145732455Y-122675200D01*
X145732455Y-122675200D02*
X145589598Y-122627580D01*
X145589598Y-122627580D02*
X145351503Y-122627580D01*
X147875313Y-122627580D02*
X147875313Y-123627580D01*
X147875313Y-123627580D02*
X148256265Y-123627580D01*
X148256265Y-123627580D02*
X148351503Y-123579961D01*
X148351503Y-123579961D02*
X148399122Y-123532342D01*
X148399122Y-123532342D02*
X148446741Y-123437104D01*
X148446741Y-123437104D02*
X148446741Y-123294247D01*
X148446741Y-123294247D02*
X148399122Y-123199009D01*
X148399122Y-123199009D02*
X148351503Y-123151390D01*
X148351503Y-123151390D02*
X148256265Y-123103771D01*
X148256265Y-123103771D02*
X147875313Y-123103771D01*
X148780075Y-123627580D02*
X149018170Y-122627580D01*
X149018170Y-122627580D02*
X149208646Y-123341866D01*
X149208646Y-123341866D02*
X149399122Y-122627580D01*
X149399122Y-122627580D02*
X149637218Y-123627580D01*
X150589598Y-122627580D02*
X150256265Y-123103771D01*
X150018170Y-122627580D02*
X150018170Y-123627580D01*
X150018170Y-123627580D02*
X150399122Y-123627580D01*
X150399122Y-123627580D02*
X150494360Y-123579961D01*
X150494360Y-123579961D02*
X150541979Y-123532342D01*
X150541979Y-123532342D02*
X150589598Y-123437104D01*
X150589598Y-123437104D02*
X150589598Y-123294247D01*
X150589598Y-123294247D02*
X150541979Y-123199009D01*
X150541979Y-123199009D02*
X150494360Y-123151390D01*
X150494360Y-123151390D02*
X150399122Y-123103771D01*
X150399122Y-123103771D02*
X150018170Y-123103771D01*
X154327693Y-123579961D02*
X154232455Y-123627580D01*
X154232455Y-123627580D02*
X154089598Y-123627580D01*
X154089598Y-123627580D02*
X153946741Y-123579961D01*
X153946741Y-123579961D02*
X153851503Y-123484723D01*
X153851503Y-123484723D02*
X153803884Y-123389485D01*
X153803884Y-123389485D02*
X153756265Y-123199009D01*
X153756265Y-123199009D02*
X153756265Y-123056152D01*
X153756265Y-123056152D02*
X153803884Y-122865676D01*
X153803884Y-122865676D02*
X153851503Y-122770438D01*
X153851503Y-122770438D02*
X153946741Y-122675200D01*
X153946741Y-122675200D02*
X154089598Y-122627580D01*
X154089598Y-122627580D02*
X154184836Y-122627580D01*
X154184836Y-122627580D02*
X154327693Y-122675200D01*
X154327693Y-122675200D02*
X154375312Y-122722819D01*
X154375312Y-122722819D02*
X154375312Y-123056152D01*
X154375312Y-123056152D02*
X154184836Y-123056152D01*
X154803884Y-122627580D02*
X154803884Y-123627580D01*
X154803884Y-123627580D02*
X155375312Y-122627580D01*
X155375312Y-122627580D02*
X155375312Y-123627580D01*
X155851503Y-122627580D02*
X155851503Y-123627580D01*
X155851503Y-123627580D02*
X156089598Y-123627580D01*
X156089598Y-123627580D02*
X156232455Y-123579961D01*
X156232455Y-123579961D02*
X156327693Y-123484723D01*
X156327693Y-123484723D02*
X156375312Y-123389485D01*
X156375312Y-123389485D02*
X156422931Y-123199009D01*
X156422931Y-123199009D02*
X156422931Y-123056152D01*
X156422931Y-123056152D02*
X156375312Y-122865676D01*
X156375312Y-122865676D02*
X156327693Y-122770438D01*
X156327693Y-122770438D02*
X156232455Y-122675200D01*
X156232455Y-122675200D02*
X156089598Y-122627580D01*
X156089598Y-122627580D02*
X155851503Y-122627580D01*
X158375313Y-122627580D02*
X158375313Y-123627580D01*
X158375313Y-123627580D02*
X158756265Y-123627580D01*
X158756265Y-123627580D02*
X158851503Y-123579961D01*
X158851503Y-123579961D02*
X158899122Y-123532342D01*
X158899122Y-123532342D02*
X158946741Y-123437104D01*
X158946741Y-123437104D02*
X158946741Y-123294247D01*
X158946741Y-123294247D02*
X158899122Y-123199009D01*
X158899122Y-123199009D02*
X158851503Y-123151390D01*
X158851503Y-123151390D02*
X158756265Y-123103771D01*
X158756265Y-123103771D02*
X158375313Y-123103771D01*
X159280075Y-123627580D02*
X159518170Y-122627580D01*
X159518170Y-122627580D02*
X159708646Y-123341866D01*
X159708646Y-123341866D02*
X159899122Y-122627580D01*
X159899122Y-122627580D02*
X160137218Y-123627580D01*
X161089598Y-122627580D02*
X160756265Y-123103771D01*
X160518170Y-122627580D02*
X160518170Y-123627580D01*
X160518170Y-123627580D02*
X160899122Y-123627580D01*
X160899122Y-123627580D02*
X160994360Y-123579961D01*
X160994360Y-123579961D02*
X161041979Y-123532342D01*
X161041979Y-123532342D02*
X161089598Y-123437104D01*
X161089598Y-123437104D02*
X161089598Y-123294247D01*
X161089598Y-123294247D02*
X161041979Y-123199009D01*
X161041979Y-123199009D02*
X160994360Y-123151390D01*
X160994360Y-123151390D02*
X160899122Y-123103771D01*
X160899122Y-123103771D02*
X160518170Y-123103771D01*
X154827693Y-113079961D02*
X154732455Y-113127580D01*
X154732455Y-113127580D02*
X154589598Y-113127580D01*
X154589598Y-113127580D02*
X154446741Y-113079961D01*
X154446741Y-113079961D02*
X154351503Y-112984723D01*
X154351503Y-112984723D02*
X154303884Y-112889485D01*
X154303884Y-112889485D02*
X154256265Y-112699009D01*
X154256265Y-112699009D02*
X154256265Y-112556152D01*
X154256265Y-112556152D02*
X154303884Y-112365676D01*
X154303884Y-112365676D02*
X154351503Y-112270438D01*
X154351503Y-112270438D02*
X154446741Y-112175200D01*
X154446741Y-112175200D02*
X154589598Y-112127580D01*
X154589598Y-112127580D02*
X154684836Y-112127580D01*
X154684836Y-112127580D02*
X154827693Y-112175200D01*
X154827693Y-112175200D02*
X154875312Y-112222819D01*
X154875312Y-112222819D02*
X154875312Y-112556152D01*
X154875312Y-112556152D02*
X154684836Y-112556152D01*
X155303884Y-112127580D02*
X155303884Y-113127580D01*
X155303884Y-113127580D02*
X155875312Y-112127580D01*
X155875312Y-112127580D02*
X155875312Y-113127580D01*
X156351503Y-112127580D02*
X156351503Y-113127580D01*
X156351503Y-113127580D02*
X156589598Y-113127580D01*
X156589598Y-113127580D02*
X156732455Y-113079961D01*
X156732455Y-113079961D02*
X156827693Y-112984723D01*
X156827693Y-112984723D02*
X156875312Y-112889485D01*
X156875312Y-112889485D02*
X156922931Y-112699009D01*
X156922931Y-112699009D02*
X156922931Y-112556152D01*
X156922931Y-112556152D02*
X156875312Y-112365676D01*
X156875312Y-112365676D02*
X156827693Y-112270438D01*
X156827693Y-112270438D02*
X156732455Y-112175200D01*
X156732455Y-112175200D02*
X156589598Y-112127580D01*
X156589598Y-112127580D02*
X156351503Y-112127580D01*
X158875313Y-112127580D02*
X158875313Y-113127580D01*
X158875313Y-113127580D02*
X159256265Y-113127580D01*
X159256265Y-113127580D02*
X159351503Y-113079961D01*
X159351503Y-113079961D02*
X159399122Y-113032342D01*
X159399122Y-113032342D02*
X159446741Y-112937104D01*
X159446741Y-112937104D02*
X159446741Y-112794247D01*
X159446741Y-112794247D02*
X159399122Y-112699009D01*
X159399122Y-112699009D02*
X159351503Y-112651390D01*
X159351503Y-112651390D02*
X159256265Y-112603771D01*
X159256265Y-112603771D02*
X158875313Y-112603771D01*
X159780075Y-113127580D02*
X160018170Y-112127580D01*
X160018170Y-112127580D02*
X160208646Y-112841866D01*
X160208646Y-112841866D02*
X160399122Y-112127580D01*
X160399122Y-112127580D02*
X160637218Y-113127580D01*
X161589598Y-112127580D02*
X161256265Y-112603771D01*
X161018170Y-112127580D02*
X161018170Y-113127580D01*
X161018170Y-113127580D02*
X161399122Y-113127580D01*
X161399122Y-113127580D02*
X161494360Y-113079961D01*
X161494360Y-113079961D02*
X161541979Y-113032342D01*
X161541979Y-113032342D02*
X161589598Y-112937104D01*
X161589598Y-112937104D02*
X161589598Y-112794247D01*
X161589598Y-112794247D02*
X161541979Y-112699009D01*
X161541979Y-112699009D02*
X161494360Y-112651390D01*
X161494360Y-112651390D02*
X161399122Y-112603771D01*
X161399122Y-112603771D02*
X161018170Y-112603771D01*
X167672306Y-70980262D02*
X167767544Y-70932643D01*
X167767544Y-70932643D02*
X167910401Y-70932643D01*
X167910401Y-70932643D02*
X168053258Y-70980262D01*
X168053258Y-70980262D02*
X168148496Y-71075500D01*
X168148496Y-71075500D02*
X168196115Y-71170738D01*
X168196115Y-71170738D02*
X168243734Y-71361214D01*
X168243734Y-71361214D02*
X168243734Y-71504071D01*
X168243734Y-71504071D02*
X168196115Y-71694547D01*
X168196115Y-71694547D02*
X168148496Y-71789785D01*
X168148496Y-71789785D02*
X168053258Y-71885024D01*
X168053258Y-71885024D02*
X167910401Y-71932643D01*
X167910401Y-71932643D02*
X167815163Y-71932643D01*
X167815163Y-71932643D02*
X167672306Y-71885024D01*
X167672306Y-71885024D02*
X167624687Y-71837404D01*
X167624687Y-71837404D02*
X167624687Y-71504071D01*
X167624687Y-71504071D02*
X167815163Y-71504071D01*
X167196115Y-71932643D02*
X167196115Y-70932643D01*
X167196115Y-70932643D02*
X166624687Y-71932643D01*
X166624687Y-71932643D02*
X166624687Y-70932643D01*
X166148496Y-71932643D02*
X166148496Y-70932643D01*
X166148496Y-70932643D02*
X165910401Y-70932643D01*
X165910401Y-70932643D02*
X165767544Y-70980262D01*
X165767544Y-70980262D02*
X165672306Y-71075500D01*
X165672306Y-71075500D02*
X165624687Y-71170738D01*
X165624687Y-71170738D02*
X165577068Y-71361214D01*
X165577068Y-71361214D02*
X165577068Y-71504071D01*
X165577068Y-71504071D02*
X165624687Y-71694547D01*
X165624687Y-71694547D02*
X165672306Y-71789785D01*
X165672306Y-71789785D02*
X165767544Y-71885024D01*
X165767544Y-71885024D02*
X165910401Y-71932643D01*
X165910401Y-71932643D02*
X166148496Y-71932643D01*
X168196115Y-74771578D02*
X167434211Y-74771578D01*
X167815163Y-75152531D02*
X167815163Y-74390626D01*
X166481830Y-74152531D02*
X166958020Y-74152531D01*
X166958020Y-74152531D02*
X167005639Y-74628721D01*
X167005639Y-74628721D02*
X166958020Y-74581102D01*
X166958020Y-74581102D02*
X166862782Y-74533483D01*
X166862782Y-74533483D02*
X166624687Y-74533483D01*
X166624687Y-74533483D02*
X166529449Y-74581102D01*
X166529449Y-74581102D02*
X166481830Y-74628721D01*
X166481830Y-74628721D02*
X166434211Y-74723959D01*
X166434211Y-74723959D02*
X166434211Y-74962054D01*
X166434211Y-74962054D02*
X166481830Y-75057292D01*
X166481830Y-75057292D02*
X166529449Y-75104912D01*
X166529449Y-75104912D02*
X166624687Y-75152531D01*
X166624687Y-75152531D02*
X166862782Y-75152531D01*
X166862782Y-75152531D02*
X166958020Y-75104912D01*
X166958020Y-75104912D02*
X167005639Y-75057292D01*
X166148496Y-74152531D02*
X165815163Y-75152531D01*
X165815163Y-75152531D02*
X165481830Y-74152531D01*
X168243734Y-78324800D02*
X168100877Y-78372419D01*
X168100877Y-78372419D02*
X167862782Y-78372419D01*
X167862782Y-78372419D02*
X167767544Y-78324800D01*
X167767544Y-78324800D02*
X167719925Y-78277180D01*
X167719925Y-78277180D02*
X167672306Y-78181942D01*
X167672306Y-78181942D02*
X167672306Y-78086704D01*
X167672306Y-78086704D02*
X167719925Y-77991466D01*
X167719925Y-77991466D02*
X167767544Y-77943847D01*
X167767544Y-77943847D02*
X167862782Y-77896228D01*
X167862782Y-77896228D02*
X168053258Y-77848609D01*
X168053258Y-77848609D02*
X168148496Y-77800990D01*
X168148496Y-77800990D02*
X168196115Y-77753371D01*
X168196115Y-77753371D02*
X168243734Y-77658133D01*
X168243734Y-77658133D02*
X168243734Y-77562895D01*
X168243734Y-77562895D02*
X168196115Y-77467657D01*
X168196115Y-77467657D02*
X168148496Y-77420038D01*
X168148496Y-77420038D02*
X168053258Y-77372419D01*
X168053258Y-77372419D02*
X167815163Y-77372419D01*
X167815163Y-77372419D02*
X167672306Y-77420038D01*
X167243734Y-78372419D02*
X167243734Y-77705752D01*
X167243734Y-77372419D02*
X167291353Y-77420038D01*
X167291353Y-77420038D02*
X167243734Y-77467657D01*
X167243734Y-77467657D02*
X167196115Y-77420038D01*
X167196115Y-77420038D02*
X167243734Y-77372419D01*
X167243734Y-77372419D02*
X167243734Y-77467657D01*
X166338973Y-77705752D02*
X166338973Y-78515276D01*
X166338973Y-78515276D02*
X166386592Y-78610514D01*
X166386592Y-78610514D02*
X166434211Y-78658133D01*
X166434211Y-78658133D02*
X166529449Y-78705752D01*
X166529449Y-78705752D02*
X166672306Y-78705752D01*
X166672306Y-78705752D02*
X166767544Y-78658133D01*
X166338973Y-78324800D02*
X166434211Y-78372419D01*
X166434211Y-78372419D02*
X166624687Y-78372419D01*
X166624687Y-78372419D02*
X166719925Y-78324800D01*
X166719925Y-78324800D02*
X166767544Y-78277180D01*
X166767544Y-78277180D02*
X166815163Y-78181942D01*
X166815163Y-78181942D02*
X166815163Y-77896228D01*
X166815163Y-77896228D02*
X166767544Y-77800990D01*
X166767544Y-77800990D02*
X166719925Y-77753371D01*
X166719925Y-77753371D02*
X166624687Y-77705752D01*
X166624687Y-77705752D02*
X166434211Y-77705752D01*
X166434211Y-77705752D02*
X166338973Y-77753371D01*
X150672306Y-75920038D02*
X150767544Y-75872419D01*
X150767544Y-75872419D02*
X150910401Y-75872419D01*
X150910401Y-75872419D02*
X151053258Y-75920038D01*
X151053258Y-75920038D02*
X151148496Y-76015276D01*
X151148496Y-76015276D02*
X151196115Y-76110514D01*
X151196115Y-76110514D02*
X151243734Y-76300990D01*
X151243734Y-76300990D02*
X151243734Y-76443847D01*
X151243734Y-76443847D02*
X151196115Y-76634323D01*
X151196115Y-76634323D02*
X151148496Y-76729561D01*
X151148496Y-76729561D02*
X151053258Y-76824800D01*
X151053258Y-76824800D02*
X150910401Y-76872419D01*
X150910401Y-76872419D02*
X150815163Y-76872419D01*
X150815163Y-76872419D02*
X150672306Y-76824800D01*
X150672306Y-76824800D02*
X150624687Y-76777180D01*
X150624687Y-76777180D02*
X150624687Y-76443847D01*
X150624687Y-76443847D02*
X150815163Y-76443847D01*
X150196115Y-76872419D02*
X150196115Y-75872419D01*
X150196115Y-75872419D02*
X149815163Y-75872419D01*
X149815163Y-75872419D02*
X149719925Y-75920038D01*
X149719925Y-75920038D02*
X149672306Y-75967657D01*
X149672306Y-75967657D02*
X149624687Y-76062895D01*
X149624687Y-76062895D02*
X149624687Y-76205752D01*
X149624687Y-76205752D02*
X149672306Y-76300990D01*
X149672306Y-76300990D02*
X149719925Y-76348609D01*
X149719925Y-76348609D02*
X149815163Y-76396228D01*
X149815163Y-76396228D02*
X150196115Y-76396228D01*
X148672306Y-76872419D02*
X149243734Y-76872419D01*
X148958020Y-76872419D02*
X148958020Y-75872419D01*
X148958020Y-75872419D02*
X149053258Y-76015276D01*
X149053258Y-76015276D02*
X149148496Y-76110514D01*
X149148496Y-76110514D02*
X149243734Y-76158133D01*
X148053258Y-75872419D02*
X147958020Y-75872419D01*
X147958020Y-75872419D02*
X147862782Y-75920038D01*
X147862782Y-75920038D02*
X147815163Y-75967657D01*
X147815163Y-75967657D02*
X147767544Y-76062895D01*
X147767544Y-76062895D02*
X147719925Y-76253371D01*
X147719925Y-76253371D02*
X147719925Y-76491466D01*
X147719925Y-76491466D02*
X147767544Y-76681942D01*
X147767544Y-76681942D02*
X147815163Y-76777180D01*
X147815163Y-76777180D02*
X147862782Y-76824800D01*
X147862782Y-76824800D02*
X147958020Y-76872419D01*
X147958020Y-76872419D02*
X148053258Y-76872419D01*
X148053258Y-76872419D02*
X148148496Y-76824800D01*
X148148496Y-76824800D02*
X148196115Y-76777180D01*
X148196115Y-76777180D02*
X148243734Y-76681942D01*
X148243734Y-76681942D02*
X148291353Y-76491466D01*
X148291353Y-76491466D02*
X148291353Y-76253371D01*
X148291353Y-76253371D02*
X148243734Y-76062895D01*
X148243734Y-76062895D02*
X148196115Y-75967657D01*
X148196115Y-75967657D02*
X148148496Y-75920038D01*
X148148496Y-75920038D02*
X148053258Y-75872419D01*
X141172306Y-68420038D02*
X141267544Y-68372419D01*
X141267544Y-68372419D02*
X141410401Y-68372419D01*
X141410401Y-68372419D02*
X141553258Y-68420038D01*
X141553258Y-68420038D02*
X141648496Y-68515276D01*
X141648496Y-68515276D02*
X141696115Y-68610514D01*
X141696115Y-68610514D02*
X141743734Y-68800990D01*
X141743734Y-68800990D02*
X141743734Y-68943847D01*
X141743734Y-68943847D02*
X141696115Y-69134323D01*
X141696115Y-69134323D02*
X141648496Y-69229561D01*
X141648496Y-69229561D02*
X141553258Y-69324800D01*
X141553258Y-69324800D02*
X141410401Y-69372419D01*
X141410401Y-69372419D02*
X141315163Y-69372419D01*
X141315163Y-69372419D02*
X141172306Y-69324800D01*
X141172306Y-69324800D02*
X141124687Y-69277180D01*
X141124687Y-69277180D02*
X141124687Y-68943847D01*
X141124687Y-68943847D02*
X141315163Y-68943847D01*
X140696115Y-69372419D02*
X140696115Y-68372419D01*
X140696115Y-68372419D02*
X140315163Y-68372419D01*
X140315163Y-68372419D02*
X140219925Y-68420038D01*
X140219925Y-68420038D02*
X140172306Y-68467657D01*
X140172306Y-68467657D02*
X140124687Y-68562895D01*
X140124687Y-68562895D02*
X140124687Y-68705752D01*
X140124687Y-68705752D02*
X140172306Y-68800990D01*
X140172306Y-68800990D02*
X140219925Y-68848609D01*
X140219925Y-68848609D02*
X140315163Y-68896228D01*
X140315163Y-68896228D02*
X140696115Y-68896228D01*
X139743734Y-68467657D02*
X139696115Y-68420038D01*
X139696115Y-68420038D02*
X139600877Y-68372419D01*
X139600877Y-68372419D02*
X139362782Y-68372419D01*
X139362782Y-68372419D02*
X139267544Y-68420038D01*
X139267544Y-68420038D02*
X139219925Y-68467657D01*
X139219925Y-68467657D02*
X139172306Y-68562895D01*
X139172306Y-68562895D02*
X139172306Y-68658133D01*
X139172306Y-68658133D02*
X139219925Y-68800990D01*
X139219925Y-68800990D02*
X139791353Y-69372419D01*
X139791353Y-69372419D02*
X139172306Y-69372419D01*
X141172306Y-65920038D02*
X141267544Y-65872419D01*
X141267544Y-65872419D02*
X141410401Y-65872419D01*
X141410401Y-65872419D02*
X141553258Y-65920038D01*
X141553258Y-65920038D02*
X141648496Y-66015276D01*
X141648496Y-66015276D02*
X141696115Y-66110514D01*
X141696115Y-66110514D02*
X141743734Y-66300990D01*
X141743734Y-66300990D02*
X141743734Y-66443847D01*
X141743734Y-66443847D02*
X141696115Y-66634323D01*
X141696115Y-66634323D02*
X141648496Y-66729561D01*
X141648496Y-66729561D02*
X141553258Y-66824800D01*
X141553258Y-66824800D02*
X141410401Y-66872419D01*
X141410401Y-66872419D02*
X141315163Y-66872419D01*
X141315163Y-66872419D02*
X141172306Y-66824800D01*
X141172306Y-66824800D02*
X141124687Y-66777180D01*
X141124687Y-66777180D02*
X141124687Y-66443847D01*
X141124687Y-66443847D02*
X141315163Y-66443847D01*
X140696115Y-66872419D02*
X140696115Y-65872419D01*
X140696115Y-65872419D02*
X140315163Y-65872419D01*
X140315163Y-65872419D02*
X140219925Y-65920038D01*
X140219925Y-65920038D02*
X140172306Y-65967657D01*
X140172306Y-65967657D02*
X140124687Y-66062895D01*
X140124687Y-66062895D02*
X140124687Y-66205752D01*
X140124687Y-66205752D02*
X140172306Y-66300990D01*
X140172306Y-66300990D02*
X140219925Y-66348609D01*
X140219925Y-66348609D02*
X140315163Y-66396228D01*
X140315163Y-66396228D02*
X140696115Y-66396228D01*
X139172306Y-66872419D02*
X139743734Y-66872419D01*
X139458020Y-66872419D02*
X139458020Y-65872419D01*
X139458020Y-65872419D02*
X139553258Y-66015276D01*
X139553258Y-66015276D02*
X139648496Y-66110514D01*
X139648496Y-66110514D02*
X139743734Y-66158133D01*
X141172306Y-78420038D02*
X141267544Y-78372419D01*
X141267544Y-78372419D02*
X141410401Y-78372419D01*
X141410401Y-78372419D02*
X141553258Y-78420038D01*
X141553258Y-78420038D02*
X141648496Y-78515276D01*
X141648496Y-78515276D02*
X141696115Y-78610514D01*
X141696115Y-78610514D02*
X141743734Y-78800990D01*
X141743734Y-78800990D02*
X141743734Y-78943847D01*
X141743734Y-78943847D02*
X141696115Y-79134323D01*
X141696115Y-79134323D02*
X141648496Y-79229561D01*
X141648496Y-79229561D02*
X141553258Y-79324800D01*
X141553258Y-79324800D02*
X141410401Y-79372419D01*
X141410401Y-79372419D02*
X141315163Y-79372419D01*
X141315163Y-79372419D02*
X141172306Y-79324800D01*
X141172306Y-79324800D02*
X141124687Y-79277180D01*
X141124687Y-79277180D02*
X141124687Y-78943847D01*
X141124687Y-78943847D02*
X141315163Y-78943847D01*
X140696115Y-79372419D02*
X140696115Y-78372419D01*
X140696115Y-78372419D02*
X140315163Y-78372419D01*
X140315163Y-78372419D02*
X140219925Y-78420038D01*
X140219925Y-78420038D02*
X140172306Y-78467657D01*
X140172306Y-78467657D02*
X140124687Y-78562895D01*
X140124687Y-78562895D02*
X140124687Y-78705752D01*
X140124687Y-78705752D02*
X140172306Y-78800990D01*
X140172306Y-78800990D02*
X140219925Y-78848609D01*
X140219925Y-78848609D02*
X140315163Y-78896228D01*
X140315163Y-78896228D02*
X140696115Y-78896228D01*
X139267544Y-78372419D02*
X139458020Y-78372419D01*
X139458020Y-78372419D02*
X139553258Y-78420038D01*
X139553258Y-78420038D02*
X139600877Y-78467657D01*
X139600877Y-78467657D02*
X139696115Y-78610514D01*
X139696115Y-78610514D02*
X139743734Y-78800990D01*
X139743734Y-78800990D02*
X139743734Y-79181942D01*
X139743734Y-79181942D02*
X139696115Y-79277180D01*
X139696115Y-79277180D02*
X139648496Y-79324800D01*
X139648496Y-79324800D02*
X139553258Y-79372419D01*
X139553258Y-79372419D02*
X139362782Y-79372419D01*
X139362782Y-79372419D02*
X139267544Y-79324800D01*
X139267544Y-79324800D02*
X139219925Y-79277180D01*
X139219925Y-79277180D02*
X139172306Y-79181942D01*
X139172306Y-79181942D02*
X139172306Y-78943847D01*
X139172306Y-78943847D02*
X139219925Y-78848609D01*
X139219925Y-78848609D02*
X139267544Y-78800990D01*
X139267544Y-78800990D02*
X139362782Y-78753371D01*
X139362782Y-78753371D02*
X139553258Y-78753371D01*
X139553258Y-78753371D02*
X139648496Y-78800990D01*
X139648496Y-78800990D02*
X139696115Y-78848609D01*
X139696115Y-78848609D02*
X139743734Y-78943847D01*
X140838972Y-60872419D02*
X140267544Y-60872419D01*
X140553258Y-61872419D02*
X140553258Y-60872419D01*
X140029448Y-60872419D02*
X139362782Y-61872419D01*
X139362782Y-60872419D02*
X140029448Y-61872419D01*
X150672306Y-73420038D02*
X150767544Y-73372419D01*
X150767544Y-73372419D02*
X150910401Y-73372419D01*
X150910401Y-73372419D02*
X151053258Y-73420038D01*
X151053258Y-73420038D02*
X151148496Y-73515276D01*
X151148496Y-73515276D02*
X151196115Y-73610514D01*
X151196115Y-73610514D02*
X151243734Y-73800990D01*
X151243734Y-73800990D02*
X151243734Y-73943847D01*
X151243734Y-73943847D02*
X151196115Y-74134323D01*
X151196115Y-74134323D02*
X151148496Y-74229561D01*
X151148496Y-74229561D02*
X151053258Y-74324800D01*
X151053258Y-74324800D02*
X150910401Y-74372419D01*
X150910401Y-74372419D02*
X150815163Y-74372419D01*
X150815163Y-74372419D02*
X150672306Y-74324800D01*
X150672306Y-74324800D02*
X150624687Y-74277180D01*
X150624687Y-74277180D02*
X150624687Y-73943847D01*
X150624687Y-73943847D02*
X150815163Y-73943847D01*
X150196115Y-74372419D02*
X150196115Y-73372419D01*
X150196115Y-73372419D02*
X149815163Y-73372419D01*
X149815163Y-73372419D02*
X149719925Y-73420038D01*
X149719925Y-73420038D02*
X149672306Y-73467657D01*
X149672306Y-73467657D02*
X149624687Y-73562895D01*
X149624687Y-73562895D02*
X149624687Y-73705752D01*
X149624687Y-73705752D02*
X149672306Y-73800990D01*
X149672306Y-73800990D02*
X149719925Y-73848609D01*
X149719925Y-73848609D02*
X149815163Y-73896228D01*
X149815163Y-73896228D02*
X150196115Y-73896228D01*
X148672306Y-74372419D02*
X149243734Y-74372419D01*
X148958020Y-74372419D02*
X148958020Y-73372419D01*
X148958020Y-73372419D02*
X149053258Y-73515276D01*
X149053258Y-73515276D02*
X149148496Y-73610514D01*
X149148496Y-73610514D02*
X149243734Y-73658133D01*
X147719925Y-74372419D02*
X148291353Y-74372419D01*
X148005639Y-74372419D02*
X148005639Y-73372419D01*
X148005639Y-73372419D02*
X148100877Y-73515276D01*
X148100877Y-73515276D02*
X148196115Y-73610514D01*
X148196115Y-73610514D02*
X148291353Y-73658133D01*
X150672306Y-68420038D02*
X150767544Y-68372419D01*
X150767544Y-68372419D02*
X150910401Y-68372419D01*
X150910401Y-68372419D02*
X151053258Y-68420038D01*
X151053258Y-68420038D02*
X151148496Y-68515276D01*
X151148496Y-68515276D02*
X151196115Y-68610514D01*
X151196115Y-68610514D02*
X151243734Y-68800990D01*
X151243734Y-68800990D02*
X151243734Y-68943847D01*
X151243734Y-68943847D02*
X151196115Y-69134323D01*
X151196115Y-69134323D02*
X151148496Y-69229561D01*
X151148496Y-69229561D02*
X151053258Y-69324800D01*
X151053258Y-69324800D02*
X150910401Y-69372419D01*
X150910401Y-69372419D02*
X150815163Y-69372419D01*
X150815163Y-69372419D02*
X150672306Y-69324800D01*
X150672306Y-69324800D02*
X150624687Y-69277180D01*
X150624687Y-69277180D02*
X150624687Y-68943847D01*
X150624687Y-68943847D02*
X150815163Y-68943847D01*
X150196115Y-69372419D02*
X150196115Y-68372419D01*
X150196115Y-68372419D02*
X149815163Y-68372419D01*
X149815163Y-68372419D02*
X149719925Y-68420038D01*
X149719925Y-68420038D02*
X149672306Y-68467657D01*
X149672306Y-68467657D02*
X149624687Y-68562895D01*
X149624687Y-68562895D02*
X149624687Y-68705752D01*
X149624687Y-68705752D02*
X149672306Y-68800990D01*
X149672306Y-68800990D02*
X149719925Y-68848609D01*
X149719925Y-68848609D02*
X149815163Y-68896228D01*
X149815163Y-68896228D02*
X150196115Y-68896228D01*
X148672306Y-69372419D02*
X149243734Y-69372419D01*
X148958020Y-69372419D02*
X148958020Y-68372419D01*
X148958020Y-68372419D02*
X149053258Y-68515276D01*
X149053258Y-68515276D02*
X149148496Y-68610514D01*
X149148496Y-68610514D02*
X149243734Y-68658133D01*
X148338972Y-68372419D02*
X147719925Y-68372419D01*
X147719925Y-68372419D02*
X148053258Y-68753371D01*
X148053258Y-68753371D02*
X147910401Y-68753371D01*
X147910401Y-68753371D02*
X147815163Y-68800990D01*
X147815163Y-68800990D02*
X147767544Y-68848609D01*
X147767544Y-68848609D02*
X147719925Y-68943847D01*
X147719925Y-68943847D02*
X147719925Y-69181942D01*
X147719925Y-69181942D02*
X147767544Y-69277180D01*
X147767544Y-69277180D02*
X147815163Y-69324800D01*
X147815163Y-69324800D02*
X147910401Y-69372419D01*
X147910401Y-69372419D02*
X148196115Y-69372419D01*
X148196115Y-69372419D02*
X148291353Y-69324800D01*
X148291353Y-69324800D02*
X148338972Y-69277180D01*
X141172306Y-75920038D02*
X141267544Y-75872419D01*
X141267544Y-75872419D02*
X141410401Y-75872419D01*
X141410401Y-75872419D02*
X141553258Y-75920038D01*
X141553258Y-75920038D02*
X141648496Y-76015276D01*
X141648496Y-76015276D02*
X141696115Y-76110514D01*
X141696115Y-76110514D02*
X141743734Y-76300990D01*
X141743734Y-76300990D02*
X141743734Y-76443847D01*
X141743734Y-76443847D02*
X141696115Y-76634323D01*
X141696115Y-76634323D02*
X141648496Y-76729561D01*
X141648496Y-76729561D02*
X141553258Y-76824800D01*
X141553258Y-76824800D02*
X141410401Y-76872419D01*
X141410401Y-76872419D02*
X141315163Y-76872419D01*
X141315163Y-76872419D02*
X141172306Y-76824800D01*
X141172306Y-76824800D02*
X141124687Y-76777180D01*
X141124687Y-76777180D02*
X141124687Y-76443847D01*
X141124687Y-76443847D02*
X141315163Y-76443847D01*
X140696115Y-76872419D02*
X140696115Y-75872419D01*
X140696115Y-75872419D02*
X140315163Y-75872419D01*
X140315163Y-75872419D02*
X140219925Y-75920038D01*
X140219925Y-75920038D02*
X140172306Y-75967657D01*
X140172306Y-75967657D02*
X140124687Y-76062895D01*
X140124687Y-76062895D02*
X140124687Y-76205752D01*
X140124687Y-76205752D02*
X140172306Y-76300990D01*
X140172306Y-76300990D02*
X140219925Y-76348609D01*
X140219925Y-76348609D02*
X140315163Y-76396228D01*
X140315163Y-76396228D02*
X140696115Y-76396228D01*
X139219925Y-75872419D02*
X139696115Y-75872419D01*
X139696115Y-75872419D02*
X139743734Y-76348609D01*
X139743734Y-76348609D02*
X139696115Y-76300990D01*
X139696115Y-76300990D02*
X139600877Y-76253371D01*
X139600877Y-76253371D02*
X139362782Y-76253371D01*
X139362782Y-76253371D02*
X139267544Y-76300990D01*
X139267544Y-76300990D02*
X139219925Y-76348609D01*
X139219925Y-76348609D02*
X139172306Y-76443847D01*
X139172306Y-76443847D02*
X139172306Y-76681942D01*
X139172306Y-76681942D02*
X139219925Y-76777180D01*
X139219925Y-76777180D02*
X139267544Y-76824800D01*
X139267544Y-76824800D02*
X139362782Y-76872419D01*
X139362782Y-76872419D02*
X139600877Y-76872419D01*
X139600877Y-76872419D02*
X139696115Y-76824800D01*
X139696115Y-76824800D02*
X139743734Y-76777180D01*
X141172306Y-80920038D02*
X141267544Y-80872419D01*
X141267544Y-80872419D02*
X141410401Y-80872419D01*
X141410401Y-80872419D02*
X141553258Y-80920038D01*
X141553258Y-80920038D02*
X141648496Y-81015276D01*
X141648496Y-81015276D02*
X141696115Y-81110514D01*
X141696115Y-81110514D02*
X141743734Y-81300990D01*
X141743734Y-81300990D02*
X141743734Y-81443847D01*
X141743734Y-81443847D02*
X141696115Y-81634323D01*
X141696115Y-81634323D02*
X141648496Y-81729561D01*
X141648496Y-81729561D02*
X141553258Y-81824800D01*
X141553258Y-81824800D02*
X141410401Y-81872419D01*
X141410401Y-81872419D02*
X141315163Y-81872419D01*
X141315163Y-81872419D02*
X141172306Y-81824800D01*
X141172306Y-81824800D02*
X141124687Y-81777180D01*
X141124687Y-81777180D02*
X141124687Y-81443847D01*
X141124687Y-81443847D02*
X141315163Y-81443847D01*
X140696115Y-81872419D02*
X140696115Y-80872419D01*
X140696115Y-80872419D02*
X140315163Y-80872419D01*
X140315163Y-80872419D02*
X140219925Y-80920038D01*
X140219925Y-80920038D02*
X140172306Y-80967657D01*
X140172306Y-80967657D02*
X140124687Y-81062895D01*
X140124687Y-81062895D02*
X140124687Y-81205752D01*
X140124687Y-81205752D02*
X140172306Y-81300990D01*
X140172306Y-81300990D02*
X140219925Y-81348609D01*
X140219925Y-81348609D02*
X140315163Y-81396228D01*
X140315163Y-81396228D02*
X140696115Y-81396228D01*
X139791353Y-80872419D02*
X139124687Y-80872419D01*
X139124687Y-80872419D02*
X139553258Y-81872419D01*
X150719925Y-60872419D02*
X151196115Y-60872419D01*
X151196115Y-60872419D02*
X151243734Y-61348609D01*
X151243734Y-61348609D02*
X151196115Y-61300990D01*
X151196115Y-61300990D02*
X151100877Y-61253371D01*
X151100877Y-61253371D02*
X150862782Y-61253371D01*
X150862782Y-61253371D02*
X150767544Y-61300990D01*
X150767544Y-61300990D02*
X150719925Y-61348609D01*
X150719925Y-61348609D02*
X150672306Y-61443847D01*
X150672306Y-61443847D02*
X150672306Y-61681942D01*
X150672306Y-61681942D02*
X150719925Y-61777180D01*
X150719925Y-61777180D02*
X150767544Y-61824800D01*
X150767544Y-61824800D02*
X150862782Y-61872419D01*
X150862782Y-61872419D02*
X151100877Y-61872419D01*
X151100877Y-61872419D02*
X151196115Y-61824800D01*
X151196115Y-61824800D02*
X151243734Y-61777180D01*
X150386591Y-60872419D02*
X150053258Y-61872419D01*
X150053258Y-61872419D02*
X149719925Y-60872419D01*
X150672306Y-80920038D02*
X150767544Y-80872419D01*
X150767544Y-80872419D02*
X150910401Y-80872419D01*
X150910401Y-80872419D02*
X151053258Y-80920038D01*
X151053258Y-80920038D02*
X151148496Y-81015276D01*
X151148496Y-81015276D02*
X151196115Y-81110514D01*
X151196115Y-81110514D02*
X151243734Y-81300990D01*
X151243734Y-81300990D02*
X151243734Y-81443847D01*
X151243734Y-81443847D02*
X151196115Y-81634323D01*
X151196115Y-81634323D02*
X151148496Y-81729561D01*
X151148496Y-81729561D02*
X151053258Y-81824800D01*
X151053258Y-81824800D02*
X150910401Y-81872419D01*
X150910401Y-81872419D02*
X150815163Y-81872419D01*
X150815163Y-81872419D02*
X150672306Y-81824800D01*
X150672306Y-81824800D02*
X150624687Y-81777180D01*
X150624687Y-81777180D02*
X150624687Y-81443847D01*
X150624687Y-81443847D02*
X150815163Y-81443847D01*
X150196115Y-81872419D02*
X150196115Y-80872419D01*
X150196115Y-80872419D02*
X149815163Y-80872419D01*
X149815163Y-80872419D02*
X149719925Y-80920038D01*
X149719925Y-80920038D02*
X149672306Y-80967657D01*
X149672306Y-80967657D02*
X149624687Y-81062895D01*
X149624687Y-81062895D02*
X149624687Y-81205752D01*
X149624687Y-81205752D02*
X149672306Y-81300990D01*
X149672306Y-81300990D02*
X149719925Y-81348609D01*
X149719925Y-81348609D02*
X149815163Y-81396228D01*
X149815163Y-81396228D02*
X150196115Y-81396228D01*
X149053258Y-81300990D02*
X149148496Y-81253371D01*
X149148496Y-81253371D02*
X149196115Y-81205752D01*
X149196115Y-81205752D02*
X149243734Y-81110514D01*
X149243734Y-81110514D02*
X149243734Y-81062895D01*
X149243734Y-81062895D02*
X149196115Y-80967657D01*
X149196115Y-80967657D02*
X149148496Y-80920038D01*
X149148496Y-80920038D02*
X149053258Y-80872419D01*
X149053258Y-80872419D02*
X148862782Y-80872419D01*
X148862782Y-80872419D02*
X148767544Y-80920038D01*
X148767544Y-80920038D02*
X148719925Y-80967657D01*
X148719925Y-80967657D02*
X148672306Y-81062895D01*
X148672306Y-81062895D02*
X148672306Y-81110514D01*
X148672306Y-81110514D02*
X148719925Y-81205752D01*
X148719925Y-81205752D02*
X148767544Y-81253371D01*
X148767544Y-81253371D02*
X148862782Y-81300990D01*
X148862782Y-81300990D02*
X149053258Y-81300990D01*
X149053258Y-81300990D02*
X149148496Y-81348609D01*
X149148496Y-81348609D02*
X149196115Y-81396228D01*
X149196115Y-81396228D02*
X149243734Y-81491466D01*
X149243734Y-81491466D02*
X149243734Y-81681942D01*
X149243734Y-81681942D02*
X149196115Y-81777180D01*
X149196115Y-81777180D02*
X149148496Y-81824800D01*
X149148496Y-81824800D02*
X149053258Y-81872419D01*
X149053258Y-81872419D02*
X148862782Y-81872419D01*
X148862782Y-81872419D02*
X148767544Y-81824800D01*
X148767544Y-81824800D02*
X148719925Y-81777180D01*
X148719925Y-81777180D02*
X148672306Y-81681942D01*
X148672306Y-81681942D02*
X148672306Y-81491466D01*
X148672306Y-81491466D02*
X148719925Y-81396228D01*
X148719925Y-81396228D02*
X148767544Y-81348609D01*
X148767544Y-81348609D02*
X148862782Y-81300990D01*
X141172306Y-70920038D02*
X141267544Y-70872419D01*
X141267544Y-70872419D02*
X141410401Y-70872419D01*
X141410401Y-70872419D02*
X141553258Y-70920038D01*
X141553258Y-70920038D02*
X141648496Y-71015276D01*
X141648496Y-71015276D02*
X141696115Y-71110514D01*
X141696115Y-71110514D02*
X141743734Y-71300990D01*
X141743734Y-71300990D02*
X141743734Y-71443847D01*
X141743734Y-71443847D02*
X141696115Y-71634323D01*
X141696115Y-71634323D02*
X141648496Y-71729561D01*
X141648496Y-71729561D02*
X141553258Y-71824800D01*
X141553258Y-71824800D02*
X141410401Y-71872419D01*
X141410401Y-71872419D02*
X141315163Y-71872419D01*
X141315163Y-71872419D02*
X141172306Y-71824800D01*
X141172306Y-71824800D02*
X141124687Y-71777180D01*
X141124687Y-71777180D02*
X141124687Y-71443847D01*
X141124687Y-71443847D02*
X141315163Y-71443847D01*
X140696115Y-71872419D02*
X140696115Y-70872419D01*
X140696115Y-70872419D02*
X140315163Y-70872419D01*
X140315163Y-70872419D02*
X140219925Y-70920038D01*
X140219925Y-70920038D02*
X140172306Y-70967657D01*
X140172306Y-70967657D02*
X140124687Y-71062895D01*
X140124687Y-71062895D02*
X140124687Y-71205752D01*
X140124687Y-71205752D02*
X140172306Y-71300990D01*
X140172306Y-71300990D02*
X140219925Y-71348609D01*
X140219925Y-71348609D02*
X140315163Y-71396228D01*
X140315163Y-71396228D02*
X140696115Y-71396228D01*
X139791353Y-70872419D02*
X139172306Y-70872419D01*
X139172306Y-70872419D02*
X139505639Y-71253371D01*
X139505639Y-71253371D02*
X139362782Y-71253371D01*
X139362782Y-71253371D02*
X139267544Y-71300990D01*
X139267544Y-71300990D02*
X139219925Y-71348609D01*
X139219925Y-71348609D02*
X139172306Y-71443847D01*
X139172306Y-71443847D02*
X139172306Y-71681942D01*
X139172306Y-71681942D02*
X139219925Y-71777180D01*
X139219925Y-71777180D02*
X139267544Y-71824800D01*
X139267544Y-71824800D02*
X139362782Y-71872419D01*
X139362782Y-71872419D02*
X139648496Y-71872419D01*
X139648496Y-71872419D02*
X139743734Y-71824800D01*
X139743734Y-71824800D02*
X139791353Y-71777180D01*
X150672306Y-63420038D02*
X150767544Y-63372419D01*
X150767544Y-63372419D02*
X150910401Y-63372419D01*
X150910401Y-63372419D02*
X151053258Y-63420038D01*
X151053258Y-63420038D02*
X151148496Y-63515276D01*
X151148496Y-63515276D02*
X151196115Y-63610514D01*
X151196115Y-63610514D02*
X151243734Y-63800990D01*
X151243734Y-63800990D02*
X151243734Y-63943847D01*
X151243734Y-63943847D02*
X151196115Y-64134323D01*
X151196115Y-64134323D02*
X151148496Y-64229561D01*
X151148496Y-64229561D02*
X151053258Y-64324800D01*
X151053258Y-64324800D02*
X150910401Y-64372419D01*
X150910401Y-64372419D02*
X150815163Y-64372419D01*
X150815163Y-64372419D02*
X150672306Y-64324800D01*
X150672306Y-64324800D02*
X150624687Y-64277180D01*
X150624687Y-64277180D02*
X150624687Y-63943847D01*
X150624687Y-63943847D02*
X150815163Y-63943847D01*
X150196115Y-64372419D02*
X150196115Y-63372419D01*
X150196115Y-63372419D02*
X149624687Y-64372419D01*
X149624687Y-64372419D02*
X149624687Y-63372419D01*
X149148496Y-64372419D02*
X149148496Y-63372419D01*
X149148496Y-63372419D02*
X148910401Y-63372419D01*
X148910401Y-63372419D02*
X148767544Y-63420038D01*
X148767544Y-63420038D02*
X148672306Y-63515276D01*
X148672306Y-63515276D02*
X148624687Y-63610514D01*
X148624687Y-63610514D02*
X148577068Y-63800990D01*
X148577068Y-63800990D02*
X148577068Y-63943847D01*
X148577068Y-63943847D02*
X148624687Y-64134323D01*
X148624687Y-64134323D02*
X148672306Y-64229561D01*
X148672306Y-64229561D02*
X148767544Y-64324800D01*
X148767544Y-64324800D02*
X148910401Y-64372419D01*
X148910401Y-64372419D02*
X149148496Y-64372419D01*
X150672306Y-78420038D02*
X150767544Y-78372419D01*
X150767544Y-78372419D02*
X150910401Y-78372419D01*
X150910401Y-78372419D02*
X151053258Y-78420038D01*
X151053258Y-78420038D02*
X151148496Y-78515276D01*
X151148496Y-78515276D02*
X151196115Y-78610514D01*
X151196115Y-78610514D02*
X151243734Y-78800990D01*
X151243734Y-78800990D02*
X151243734Y-78943847D01*
X151243734Y-78943847D02*
X151196115Y-79134323D01*
X151196115Y-79134323D02*
X151148496Y-79229561D01*
X151148496Y-79229561D02*
X151053258Y-79324800D01*
X151053258Y-79324800D02*
X150910401Y-79372419D01*
X150910401Y-79372419D02*
X150815163Y-79372419D01*
X150815163Y-79372419D02*
X150672306Y-79324800D01*
X150672306Y-79324800D02*
X150624687Y-79277180D01*
X150624687Y-79277180D02*
X150624687Y-78943847D01*
X150624687Y-78943847D02*
X150815163Y-78943847D01*
X150196115Y-79372419D02*
X150196115Y-78372419D01*
X150196115Y-78372419D02*
X149815163Y-78372419D01*
X149815163Y-78372419D02*
X149719925Y-78420038D01*
X149719925Y-78420038D02*
X149672306Y-78467657D01*
X149672306Y-78467657D02*
X149624687Y-78562895D01*
X149624687Y-78562895D02*
X149624687Y-78705752D01*
X149624687Y-78705752D02*
X149672306Y-78800990D01*
X149672306Y-78800990D02*
X149719925Y-78848609D01*
X149719925Y-78848609D02*
X149815163Y-78896228D01*
X149815163Y-78896228D02*
X150196115Y-78896228D01*
X149148496Y-79372419D02*
X148958020Y-79372419D01*
X148958020Y-79372419D02*
X148862782Y-79324800D01*
X148862782Y-79324800D02*
X148815163Y-79277180D01*
X148815163Y-79277180D02*
X148719925Y-79134323D01*
X148719925Y-79134323D02*
X148672306Y-78943847D01*
X148672306Y-78943847D02*
X148672306Y-78562895D01*
X148672306Y-78562895D02*
X148719925Y-78467657D01*
X148719925Y-78467657D02*
X148767544Y-78420038D01*
X148767544Y-78420038D02*
X148862782Y-78372419D01*
X148862782Y-78372419D02*
X149053258Y-78372419D01*
X149053258Y-78372419D02*
X149148496Y-78420038D01*
X149148496Y-78420038D02*
X149196115Y-78467657D01*
X149196115Y-78467657D02*
X149243734Y-78562895D01*
X149243734Y-78562895D02*
X149243734Y-78800990D01*
X149243734Y-78800990D02*
X149196115Y-78896228D01*
X149196115Y-78896228D02*
X149148496Y-78943847D01*
X149148496Y-78943847D02*
X149053258Y-78991466D01*
X149053258Y-78991466D02*
X148862782Y-78991466D01*
X148862782Y-78991466D02*
X148767544Y-78943847D01*
X148767544Y-78943847D02*
X148719925Y-78896228D01*
X148719925Y-78896228D02*
X148672306Y-78800990D01*
X150672306Y-70920038D02*
X150767544Y-70872419D01*
X150767544Y-70872419D02*
X150910401Y-70872419D01*
X150910401Y-70872419D02*
X151053258Y-70920038D01*
X151053258Y-70920038D02*
X151148496Y-71015276D01*
X151148496Y-71015276D02*
X151196115Y-71110514D01*
X151196115Y-71110514D02*
X151243734Y-71300990D01*
X151243734Y-71300990D02*
X151243734Y-71443847D01*
X151243734Y-71443847D02*
X151196115Y-71634323D01*
X151196115Y-71634323D02*
X151148496Y-71729561D01*
X151148496Y-71729561D02*
X151053258Y-71824800D01*
X151053258Y-71824800D02*
X150910401Y-71872419D01*
X150910401Y-71872419D02*
X150815163Y-71872419D01*
X150815163Y-71872419D02*
X150672306Y-71824800D01*
X150672306Y-71824800D02*
X150624687Y-71777180D01*
X150624687Y-71777180D02*
X150624687Y-71443847D01*
X150624687Y-71443847D02*
X150815163Y-71443847D01*
X150196115Y-71872419D02*
X150196115Y-70872419D01*
X150196115Y-70872419D02*
X149815163Y-70872419D01*
X149815163Y-70872419D02*
X149719925Y-70920038D01*
X149719925Y-70920038D02*
X149672306Y-70967657D01*
X149672306Y-70967657D02*
X149624687Y-71062895D01*
X149624687Y-71062895D02*
X149624687Y-71205752D01*
X149624687Y-71205752D02*
X149672306Y-71300990D01*
X149672306Y-71300990D02*
X149719925Y-71348609D01*
X149719925Y-71348609D02*
X149815163Y-71396228D01*
X149815163Y-71396228D02*
X150196115Y-71396228D01*
X148672306Y-71872419D02*
X149243734Y-71872419D01*
X148958020Y-71872419D02*
X148958020Y-70872419D01*
X148958020Y-70872419D02*
X149053258Y-71015276D01*
X149053258Y-71015276D02*
X149148496Y-71110514D01*
X149148496Y-71110514D02*
X149243734Y-71158133D01*
X148291353Y-70967657D02*
X148243734Y-70920038D01*
X148243734Y-70920038D02*
X148148496Y-70872419D01*
X148148496Y-70872419D02*
X147910401Y-70872419D01*
X147910401Y-70872419D02*
X147815163Y-70920038D01*
X147815163Y-70920038D02*
X147767544Y-70967657D01*
X147767544Y-70967657D02*
X147719925Y-71062895D01*
X147719925Y-71062895D02*
X147719925Y-71158133D01*
X147719925Y-71158133D02*
X147767544Y-71300990D01*
X147767544Y-71300990D02*
X148338972Y-71872419D01*
X148338972Y-71872419D02*
X147719925Y-71872419D01*
X141172306Y-73420038D02*
X141267544Y-73372419D01*
X141267544Y-73372419D02*
X141410401Y-73372419D01*
X141410401Y-73372419D02*
X141553258Y-73420038D01*
X141553258Y-73420038D02*
X141648496Y-73515276D01*
X141648496Y-73515276D02*
X141696115Y-73610514D01*
X141696115Y-73610514D02*
X141743734Y-73800990D01*
X141743734Y-73800990D02*
X141743734Y-73943847D01*
X141743734Y-73943847D02*
X141696115Y-74134323D01*
X141696115Y-74134323D02*
X141648496Y-74229561D01*
X141648496Y-74229561D02*
X141553258Y-74324800D01*
X141553258Y-74324800D02*
X141410401Y-74372419D01*
X141410401Y-74372419D02*
X141315163Y-74372419D01*
X141315163Y-74372419D02*
X141172306Y-74324800D01*
X141172306Y-74324800D02*
X141124687Y-74277180D01*
X141124687Y-74277180D02*
X141124687Y-73943847D01*
X141124687Y-73943847D02*
X141315163Y-73943847D01*
X140696115Y-74372419D02*
X140696115Y-73372419D01*
X140696115Y-73372419D02*
X140315163Y-73372419D01*
X140315163Y-73372419D02*
X140219925Y-73420038D01*
X140219925Y-73420038D02*
X140172306Y-73467657D01*
X140172306Y-73467657D02*
X140124687Y-73562895D01*
X140124687Y-73562895D02*
X140124687Y-73705752D01*
X140124687Y-73705752D02*
X140172306Y-73800990D01*
X140172306Y-73800990D02*
X140219925Y-73848609D01*
X140219925Y-73848609D02*
X140315163Y-73896228D01*
X140315163Y-73896228D02*
X140696115Y-73896228D01*
X139267544Y-73705752D02*
X139267544Y-74372419D01*
X139505639Y-73324800D02*
X139743734Y-74039085D01*
X139743734Y-74039085D02*
X139124687Y-74039085D01*
X151291353Y-65872419D02*
X150672306Y-65872419D01*
X150672306Y-65872419D02*
X151005639Y-66253371D01*
X151005639Y-66253371D02*
X150862782Y-66253371D01*
X150862782Y-66253371D02*
X150767544Y-66300990D01*
X150767544Y-66300990D02*
X150719925Y-66348609D01*
X150719925Y-66348609D02*
X150672306Y-66443847D01*
X150672306Y-66443847D02*
X150672306Y-66681942D01*
X150672306Y-66681942D02*
X150719925Y-66777180D01*
X150719925Y-66777180D02*
X150767544Y-66824800D01*
X150767544Y-66824800D02*
X150862782Y-66872419D01*
X150862782Y-66872419D02*
X151148496Y-66872419D01*
X151148496Y-66872419D02*
X151243734Y-66824800D01*
X151243734Y-66824800D02*
X151291353Y-66777180D01*
X150386591Y-65872419D02*
X150053258Y-66872419D01*
X150053258Y-66872419D02*
X149719925Y-65872419D01*
X149481829Y-65872419D02*
X148862782Y-65872419D01*
X148862782Y-65872419D02*
X149196115Y-66253371D01*
X149196115Y-66253371D02*
X149053258Y-66253371D01*
X149053258Y-66253371D02*
X148958020Y-66300990D01*
X148958020Y-66300990D02*
X148910401Y-66348609D01*
X148910401Y-66348609D02*
X148862782Y-66443847D01*
X148862782Y-66443847D02*
X148862782Y-66681942D01*
X148862782Y-66681942D02*
X148910401Y-66777180D01*
X148910401Y-66777180D02*
X148958020Y-66824800D01*
X148958020Y-66824800D02*
X149053258Y-66872419D01*
X149053258Y-66872419D02*
X149338972Y-66872419D01*
X149338972Y-66872419D02*
X149434210Y-66824800D01*
X149434210Y-66824800D02*
X149481829Y-66777180D01*
X140124687Y-64372419D02*
X140458020Y-63896228D01*
X140696115Y-64372419D02*
X140696115Y-63372419D01*
X140696115Y-63372419D02*
X140315163Y-63372419D01*
X140315163Y-63372419D02*
X140219925Y-63420038D01*
X140219925Y-63420038D02*
X140172306Y-63467657D01*
X140172306Y-63467657D02*
X140124687Y-63562895D01*
X140124687Y-63562895D02*
X140124687Y-63705752D01*
X140124687Y-63705752D02*
X140172306Y-63800990D01*
X140172306Y-63800990D02*
X140219925Y-63848609D01*
X140219925Y-63848609D02*
X140315163Y-63896228D01*
X140315163Y-63896228D02*
X140696115Y-63896228D01*
X139791353Y-63372419D02*
X139124687Y-64372419D01*
X139124687Y-63372419D02*
X139791353Y-64372419D01*
M02*
