%TF.GenerationSoftware,KiCad,Pcbnew,9.0.0*%
%TF.CreationDate,2025-05-08T14:03:21-04:00*%
%TF.ProjectId,main-pcb,6d61696e-2d70-4636-922e-6b696361645f,rev?*%
%TF.SameCoordinates,Original*%
%TF.FileFunction,Soldermask,Top*%
%TF.FilePolarity,Negative*%
%FSLAX46Y46*%
G04 Gerber Fmt 4.6, Leading zero omitted, Abs format (unit mm)*
G04 Created by KiCad (PCBNEW 9.0.0) date 2025-05-08 14:03:21*
%MOMM*%
%LPD*%
G01*
G04 APERTURE LIST*
G04 Aperture macros list*
%AMRoundRect*
0 Rectangle with rounded corners*
0 $1 Rounding radius*
0 $2 $3 $4 $5 $6 $7 $8 $9 X,Y pos of 4 corners*
0 Add a 4 corners polygon primitive as box body*
4,1,4,$2,$3,$4,$5,$6,$7,$8,$9,$2,$3,0*
0 Add four circle primitives for the rounded corners*
1,1,$1+$1,$2,$3*
1,1,$1+$1,$4,$5*
1,1,$1+$1,$6,$7*
1,1,$1+$1,$8,$9*
0 Add four rect primitives between the rounded corners*
20,1,$1+$1,$2,$3,$4,$5,0*
20,1,$1+$1,$4,$5,$6,$7,0*
20,1,$1+$1,$6,$7,$8,$9,0*
20,1,$1+$1,$8,$9,$2,$3,0*%
G04 Aperture macros list end*
%ADD10RoundRect,0.250000X0.600000X0.750000X-0.600000X0.750000X-0.600000X-0.750000X0.600000X-0.750000X0*%
%ADD11O,1.700000X2.000000*%
%ADD12RoundRect,0.250000X0.725000X-0.600000X0.725000X0.600000X-0.725000X0.600000X-0.725000X-0.600000X0*%
%ADD13O,1.950000X1.700000*%
%ADD14C,1.600000*%
%ADD15O,1.600000X1.600000*%
%ADD16C,4.300000*%
%ADD17C,2.000000*%
%ADD18RoundRect,0.250000X-0.725000X0.600000X-0.725000X-0.600000X0.725000X-0.600000X0.725000X0.600000X0*%
G04 APERTURE END LIST*
D10*
%TO.C,VIN1*%
X136500000Y-125000000D03*
D11*
X134000000Y-125000000D03*
%TD*%
D12*
%TO.C,SteerFL1*%
X122000000Y-78000000D03*
D13*
X122000000Y-75500000D03*
X122000000Y-73000000D03*
%TD*%
D10*
%TO.C,Light4*%
X148000000Y-115000000D03*
D11*
X145500000Y-115000000D03*
%TD*%
D14*
%TO.C,18K*%
X132420000Y-103000000D03*
D15*
X142580000Y-103000000D03*
%TD*%
D16*
%TO.C,H2*%
X122000000Y-61500000D03*
%TD*%
D17*
%TO.C,U1*%
X138000000Y-66500000D03*
X138000000Y-69000000D03*
X138000000Y-71500000D03*
X138000000Y-74000000D03*
X138000000Y-76500000D03*
X138000000Y-79000000D03*
X138000000Y-81500000D03*
X153000000Y-81500000D03*
X153000000Y-79000000D03*
X153000000Y-76500000D03*
X153000000Y-74000000D03*
X153000000Y-71500000D03*
X153000000Y-69000000D03*
X153000000Y-66500000D03*
X153000000Y-64000000D03*
X153000000Y-61500000D03*
X138000000Y-61500000D03*
X138000000Y-64000000D03*
%TD*%
D14*
%TO.C,10K*%
X142660000Y-107500000D03*
D15*
X132500000Y-107500000D03*
%TD*%
D18*
%TO.C,CranePitch1*%
X169975000Y-95500000D03*
D13*
X169975000Y-98000000D03*
X169975000Y-100500000D03*
%TD*%
D14*
%TO.C,Light Resistor*%
X157080000Y-107500000D03*
D15*
X146920000Y-107500000D03*
%TD*%
D10*
%TO.C,Light2*%
X148000000Y-125000000D03*
D11*
X145500000Y-125000000D03*
%TD*%
D12*
%TO.C,SteerFR1*%
X122000000Y-89500000D03*
D13*
X122000000Y-87000000D03*
X122000000Y-84500000D03*
%TD*%
D16*
%TO.C,H4*%
X170000000Y-125500000D03*
%TD*%
D18*
%TO.C,CraneYaw1*%
X170000000Y-107500000D03*
D13*
X170000000Y-110000000D03*
X170000000Y-112500000D03*
%TD*%
D16*
%TO.C,H1*%
X170000000Y-61500000D03*
%TD*%
%TO.C,H3*%
X122000000Y-125500000D03*
%TD*%
D10*
%TO.C,Battery1*%
X136500000Y-115000000D03*
D11*
X134000000Y-115000000D03*
%TD*%
D12*
%TO.C,SteerBR1*%
X122000000Y-112500000D03*
D13*
X122000000Y-110000000D03*
X122000000Y-107500000D03*
%TD*%
D10*
%TO.C,Light3*%
X158500000Y-115025000D03*
D11*
X156000000Y-115025000D03*
%TD*%
D12*
%TO.C,SteerBL1*%
X121975000Y-101000000D03*
D13*
X121975000Y-98500000D03*
X121975000Y-96000000D03*
%TD*%
D12*
%TO.C,L298N1*%
X134000000Y-96500000D03*
D13*
X134000000Y-94000000D03*
X134000000Y-91500000D03*
%TD*%
D10*
%TO.C,Light1*%
X158500000Y-125000000D03*
D11*
X156000000Y-125000000D03*
%TD*%
D18*
%TO.C,CraneExtension1*%
X169975000Y-72500000D03*
D13*
X169975000Y-75000000D03*
X169975000Y-77500000D03*
%TD*%
D18*
%TO.C,CraneElbow1*%
X169975000Y-84000000D03*
D13*
X169975000Y-86500000D03*
X169975000Y-89000000D03*
%TD*%
M02*
