M48
; DRILL file {KiCad 9.0.0} date 2025-05-08T14:03:19-0400
; FORMAT={-:-/ absolute / metric / decimal}
; #@! TF.CreationDate,2025-05-08T14:03:19-04:00
; #@! TF.GenerationSoftware,Kicad,Pcbnew,9.0.0
; #@! TF.FileFunction,Plated,1,2,PTH
FMAT,2
METRIC
; #@! TA.AperFunction,Plated,PTH,ViaDrill
T1C0.300
; #@! TA.AperFunction,Plated,PTH,ComponentDrill
T2C0.800
; #@! TA.AperFunction,Plated,PTH,ComponentDrill
T3C0.950
; #@! TA.AperFunction,Plated,PTH,ComponentDrill
T4C1.000
; #@! TA.AperFunction,Plated,PTH,ComponentDrill
T5C1.020
%
G90
G05
T1
X138.5Y-87.0
X141.92Y-93.5
X149.5Y-93.5
T2
X132.42Y-103.0
X132.5Y-107.5
X142.58Y-103.0
X142.66Y-107.5
X146.92Y-107.5
X157.08Y-107.5
T3
X121.975Y-96.0
X121.975Y-98.5
X121.975Y-101.0
X122.0Y-73.0
X122.0Y-75.5
X122.0Y-78.0
X122.0Y-84.5
X122.0Y-87.0
X122.0Y-89.5
X122.0Y-107.5
X122.0Y-110.0
X122.0Y-112.5
X134.0Y-91.5
X134.0Y-94.0
X134.0Y-96.5
X169.975Y-72.5
X169.975Y-75.0
X169.975Y-77.5
X169.975Y-84.0
X169.975Y-86.5
X169.975Y-89.0
X169.975Y-95.5
X169.975Y-98.0
X169.975Y-100.5
X170.0Y-107.5
X170.0Y-110.0
X170.0Y-112.5
T4
X134.0Y-115.0
X134.0Y-125.0
X136.5Y-115.0
X136.5Y-125.0
X145.5Y-115.0
X145.5Y-125.0
X148.0Y-115.0
X148.0Y-125.0
X156.0Y-115.025
X156.0Y-125.0
X158.5Y-115.025
X158.5Y-125.0
T5
X138.0Y-61.5
X138.0Y-64.0
X138.0Y-66.5
X138.0Y-69.0
X138.0Y-71.5
X138.0Y-74.0
X138.0Y-76.5
X138.0Y-79.0
X138.0Y-81.5
X153.0Y-61.5
X153.0Y-64.0
X153.0Y-66.5
X153.0Y-69.0
X153.0Y-71.5
X153.0Y-74.0
X153.0Y-76.5
X153.0Y-79.0
X153.0Y-81.5
M30
